<svg width="101" height="100" viewBox="0 0 101 100" fill="none" xmlns="http://www.w3.org/2000/svg">
<rect x="0.666748" width="100" height="100" rx="50" fill="#FFFBF6"/>
<path fill-rule="evenodd" clip-rule="evenodd" d="M36.0864 44.8935H65.912V43.3196C65.912 40.6472 63.7287 38.4636 61.0565 38.4636H59.0091V40.2988C59.0091 41.1514 58.3185 41.8421 57.466 41.8421C56.6134 41.8421 55.9228 41.1514 55.9228 40.2988V38.4636H46.0725V40.2988C46.0725 41.1514 45.3819 41.8421 44.5293 41.8421C43.6768 41.8421 42.9877 41.1514 42.9877 40.2988V38.4636H40.9404C38.2681 38.4636 36.0848 40.6472 36.0848 43.3196V44.8935H36.0864ZM55.9259 33.5433C55.9259 32.6906 56.6165 32 57.4691 32C58.3216 32 59.0122 32.6906 59.0122 33.5433V35.3784H61.0596C65.4356 35.3784 69 38.9433 69 43.3195V60.0589C69 64.4353 65.4355 68 61.0596 68H40.942C36.566 68 33 64.4352 33 60.0589V43.3195C33 38.9431 36.5645 35.3784 40.942 35.3784H42.9893V33.5433C42.9893 32.6906 43.6799 32 44.531 32C45.3835 32 46.0741 32.6906 46.0741 33.5433V35.3784H55.9244V33.5433H55.9259ZM65.9136 47.9798H36.0864V60.0587C36.0864 62.7312 38.2698 64.9147 40.942 64.9147H61.0565C63.7287 64.9147 65.912 62.7312 65.912 60.0587V47.9798H65.9136Z" fill="#FF6F4F"/>
</svg>
