<svg width="656" height="507" viewBox="0 0 656 507" fill="none" xmlns="http://www.w3.org/2000/svg">
<g clip-path="url(#clip0_7848_5607)">
<g opacity="0.5" filter="url(#filter0_f_7848_5607)">
<circle cx="338" cy="214" r="163" fill="#E7ACD4"/>
</g>
<g opacity="0.8" filter="url(#filter1_f_7848_5607)">
<circle cx="439.5" cy="286.5" r="129.5" fill="#FFEEE6"/>
</g>
<g opacity="0.8" filter="url(#filter2_f_7848_5607)">
<circle cx="276" cy="276" r="120" fill="#FFD5BA"/>
</g>
<rect x="333.839" y="67" width="154.161" height="154.161" rx="14.0146" fill="white"/>
<rect x="382.891" y="116.051" width="56.0584" height="56.0584" rx="28.0292" fill="url(#paint0_linear_7848_5607)"/>
<path d="M410.372 131.839C410.572 131.343 411.267 131.343 411.468 131.839C413.722 137.392 421.01 138.971 421.01 146.651C421.01 152.197 416.492 156.693 410.919 156.693C405.347 156.692 400.829 152.197 400.829 146.65C400.829 138.971 408.118 137.392 410.372 131.839Z" fill="white"/>
<rect x="168" y="232.839" width="154.161" height="154.161" rx="14.0146" fill="white"/>
<rect x="217.051" y="281.89" width="56.0584" height="56.0584" rx="28.0292" fill="url(#paint1_linear_7848_5607)"/>
<path d="M255.092 300.225C255.746 302.348 256.026 304.557 255.954 306.803C254.344 307.621 252.691 308.722 251.11 310.2C251.031 307.955 250.607 305.934 250.011 304.166C251.858 302.203 253.777 300.935 255.085 300.225H255.092ZM245.08 298.241C246.784 300.341 249.637 304.782 249.637 310.975C249.637 313.192 249.177 318.726 245.087 323.71C243.384 321.609 240.531 317.169 240.531 310.975C240.531 308.759 240.991 303.224 245.08 298.241ZM235.076 300.225C236.384 300.943 238.303 302.203 240.157 304.173C239.359 306.607 239.108 308.759 239.05 310.2C237.476 308.722 235.823 307.621 234.214 306.81C234.142 304.564 234.415 302.355 235.076 300.233V300.225ZM226.394 306.042C229.075 306.317 234.214 307.426 238.555 311.801C238.684 311.931 238.864 312.12 239.072 312.351C239.41 317.668 241.659 321.652 243.355 323.934C240.524 323.507 236.003 322.21 232.115 318.299C230.563 316.727 227.005 312.467 226.394 306.042ZM258.053 318.291C254.165 322.21 249.644 323.507 246.812 323.934C250.039 319.624 250.895 315.068 251.081 312.359C251.297 312.127 251.484 311.931 251.606 311.801C255.947 307.426 261.086 306.317 263.766 306.042C263.163 312.467 259.605 316.719 258.053 318.291Z" fill="white"/>
<rect x="168" y="67" width="154.161" height="154.161" rx="14.0146" fill="white"/>
<path d="M268.16 125.688C261.917 119.468 251.813 119.114 245.16 124.712C245.128 124.712 245.106 124.712 245.074 124.712C245.042 124.712 245.02 124.712 244.998 124.712C241.936 122.127 238.076 120.723 234.021 120.723C229.471 120.723 225.201 122.481 221.998 125.688C215.485 132.143 215.378 142.759 221.826 149.419C221.858 149.44 221.88 149.472 221.912 149.504L233.288 160.818L244.319 171.809C244.524 172.002 244.794 172.11 245.052 172.11C245.311 172.11 245.581 172.002 245.786 171.809L268.128 149.59L268.214 149.494C268.214 149.494 268.268 149.44 268.3 149.408C268.322 149.386 268.343 149.376 268.376 149.333C271.427 146.18 273.11 142.03 273.11 137.623C273.11 133.215 271.341 128.862 268.128 125.677L268.16 125.688ZM261.938 147.446H254.671C254.541 147.446 254.423 147.413 254.304 147.37C254.272 147.37 254.239 147.338 254.207 147.317C254.121 147.285 254.056 147.231 253.991 147.177C253.959 147.156 253.927 147.135 253.905 147.102C253.84 147.027 253.787 146.963 253.743 146.866C253.743 146.845 253.722 146.824 253.711 146.802C253.711 146.802 253.711 146.795 253.711 146.781L250.875 139.499V139.478L249.301 135.596L247.726 139.51L245.193 145.826L242.648 152.142C242.648 152.142 242.615 152.196 242.605 152.217C242.561 152.303 242.508 152.378 242.443 152.453C242.421 152.486 242.389 152.507 242.357 152.528C242.292 152.593 242.216 152.646 242.13 152.679C242.109 152.679 242.098 152.711 242.076 152.721H242.033C241.914 152.764 241.807 152.797 241.688 152.797C241.569 152.797 241.451 152.764 241.343 152.721C241.343 152.721 241.311 152.721 241.3 152.721C241.278 152.721 241.268 152.7 241.246 152.689C241.16 152.646 241.084 152.593 241.009 152.539C240.987 152.518 240.955 152.496 240.933 152.464C240.858 152.389 240.804 152.314 240.761 152.217C240.761 152.196 240.739 152.185 240.728 152.164L238.184 145.837L236.588 141.848L234.463 146.824C234.41 146.952 234.334 147.038 234.269 147.124C234.237 147.145 234.215 147.167 234.183 147.188C234.118 147.253 234.043 147.306 233.967 147.338C233.935 147.338 233.903 147.37 233.87 147.381C233.752 147.424 233.633 147.456 233.504 147.456H228.231C227.659 147.456 227.196 146.995 227.196 146.427C227.196 145.858 227.659 145.397 228.231 145.397H232.814L235.639 138.738C235.747 138.491 235.941 138.288 236.2 138.18C236.739 137.966 237.343 138.223 237.558 138.749L240.092 145.065L241.666 148.979L243.241 145.076L245.786 138.749L248.32 132.433C248.352 132.347 248.417 132.283 248.46 132.207C248.492 132.175 248.503 132.132 248.535 132.1C248.568 132.068 248.6 132.057 248.632 132.036C248.708 131.972 248.783 131.907 248.88 131.875C248.88 131.875 248.967 131.854 249.01 131.843C249.096 131.821 249.171 131.8 249.268 131.8C249.344 131.8 249.409 131.821 249.484 131.843C249.549 131.843 249.603 131.843 249.646 131.864C249.732 131.907 249.797 131.961 249.872 132.004C249.905 132.036 249.948 132.057 249.991 132.09C250.012 132.111 250.034 132.154 250.056 132.197C250.12 132.272 250.185 132.336 250.207 132.422L252.741 138.738V138.76L255.318 145.387H261.863C262.434 145.387 262.898 145.848 262.898 146.416C262.898 146.984 262.434 147.446 261.863 147.446H261.938Z" fill="url(#paint2_linear_7848_5607)"/>
<rect x="333.839" y="232.839" width="154.161" height="154.161" rx="14.0146" fill="white"/>
<path d="M410.902 282.853C398.125 282.853 387.562 293.069 387.562 305.71C387.562 312.079 389.876 317.993 393.691 323.005C397.862 328.534 403.046 333.351 408.915 337.132C410.381 338.071 411.586 338.005 412.922 337.132C418.757 333.351 423.942 328.534 428.148 323.005C431.961 317.993 434.277 312.079 434.277 305.71C434.277 293.069 423.715 282.853 410.902 282.853Z" fill="url(#paint3_linear_7848_5607)"/>
<path d="M402.745 306.416H419.095" stroke="white" stroke-width="2.62774" stroke-linecap="round"/>
<path d="M410.92 298.24L410.92 314.591" stroke="white" stroke-width="2.62774" stroke-linecap="round"/>
</g>
<defs>
<filter id="filter0_f_7848_5607" x="-25" y="-149" width="726" height="726" filterUnits="userSpaceOnUse" color-interpolation-filters="sRGB">
<feFlood flood-opacity="0" result="BackgroundImageFix"/>
<feBlend mode="normal" in="SourceGraphic" in2="BackgroundImageFix" result="shape"/>
<feGaussianBlur stdDeviation="100" result="effect1_foregroundBlur_7848_5607"/>
</filter>
<filter id="filter1_f_7848_5607" x="110" y="-43" width="659" height="659" filterUnits="userSpaceOnUse" color-interpolation-filters="sRGB">
<feFlood flood-opacity="0" result="BackgroundImageFix"/>
<feBlend mode="normal" in="SourceGraphic" in2="BackgroundImageFix" result="shape"/>
<feGaussianBlur stdDeviation="100" result="effect1_foregroundBlur_7848_5607"/>
</filter>
<filter id="filter2_f_7848_5607" x="-44" y="-44" width="640" height="640" filterUnits="userSpaceOnUse" color-interpolation-filters="sRGB">
<feFlood flood-opacity="0" result="BackgroundImageFix"/>
<feBlend mode="normal" in="SourceGraphic" in2="BackgroundImageFix" result="shape"/>
<feGaussianBlur stdDeviation="100" result="effect1_foregroundBlur_7848_5607"/>
</filter>
<linearGradient id="paint0_linear_7848_5607" x1="449.46" y1="193.131" x2="399.923" y2="106.814" gradientUnits="userSpaceOnUse">
<stop stop-color="#FF785A"/>
<stop offset="1" stop-color="#FFB4A3"/>
</linearGradient>
<linearGradient id="paint1_linear_7848_5607" x1="283.62" y1="358.971" x2="234.084" y2="272.653" gradientUnits="userSpaceOnUse">
<stop stop-color="#1FA0B7"/>
<stop offset="1" stop-color="#A7F3C5"/>
</linearGradient>
<linearGradient id="paint2_linear_7848_5607" x1="254.252" y1="172.195" x2="237.801" y2="119.137" gradientUnits="userSpaceOnUse">
<stop stop-color="#FF5B5B"/>
<stop offset="0.865069" stop-color="#FFA3A3"/>
</linearGradient>
<linearGradient id="paint3_linear_7848_5607" x1="442.268" y1="341.247" x2="388.391" y2="285.478" gradientUnits="userSpaceOnUse">
<stop stop-color="#5AB2FF"/>
<stop offset="0.689193" stop-color="#A3BFFF"/>
</linearGradient>
<clipPath id="clip0_7848_5607">
<rect width="656" height="507" fill="white"/>
</clipPath>
</defs>
</svg>
