<svg width="36" height="36" viewBox="0 0 36 36" fill="none" xmlns="http://www.w3.org/2000/svg">
<g id="Frame 1000007411">
<path id="Vector" d="M29.0144 0.5H13.0718C10.8747 0.5 9.08615 2.31225 9.08615 4.53846V5.88462H5.98564C3.78854 5.88462 2 7.69686 2 9.92308V31.4615C2 33.6878 3.78854 35.5 5.98564 35.5H21.9282C24.1253 35.5 25.9138 33.6878 25.9138 31.4615V30.1154H29.0144C31.2115 30.1154 33 28.3031 33 26.0769V4.53846C33 2.31225 31.2115 0.5 29.0144 0.5ZM23.2585 31.4615C23.2585 32.2036 22.6623 32.8077 21.9299 32.8077H5.98734C5.25496 32.8077 4.65879 32.2036 4.65879 31.4615V9.92308C4.65879 9.18099 5.25496 8.57692 5.98734 8.57692H14.402V13.5122C14.402 15.7385 16.1906 17.5507 18.3877 17.5507H23.2585V31.4615ZM17.0574 8.7824C17.1554 8.83961 17.26 8.89009 17.3398 8.97255L22.8682 14.5743C22.9496 14.6567 22.9994 14.761 23.0559 14.8603H18.3862C17.6538 14.8603 17.0576 14.2563 17.0576 13.5142L17.0574 8.7824ZM30.3429 26.0769C30.3429 26.819 29.7467 27.4231 29.0144 27.4231H25.9138V15.5248C25.9138 14.463 25.4887 13.4214 24.7464 12.6693L19.2179 7.06755C18.4756 6.31538 17.4476 5.88462 16.3998 5.88462H11.7432V4.53846C11.7432 3.79638 12.3394 3.19231 13.0718 3.19231H29.0144C29.7467 3.19231 30.3429 3.79638 30.3429 4.53846V26.0769Z" fill="#FF6F4F"/>
</g>
</svg>
