<svg width="101" height="100" viewBox="0 0 101 100" fill="none" xmlns="http://www.w3.org/2000/svg">
<rect x="0.666748" width="100" height="100" rx="50" fill="#FFFBF6"/>
<path d="M62.0144 32.5H46.0718C43.8747 32.5 42.0862 34.3122 42.0862 36.5385V37.8846H38.9856C36.7885 37.8846 35 39.6969 35 41.9231V63.4615C35 65.6878 36.7885 67.5 38.9856 67.5H54.9282C57.1253 67.5 58.9138 65.6878 58.9138 63.4615V62.1154H62.0144C64.2115 62.1154 66 60.3031 66 58.0769V36.5385C66 34.3122 64.2115 32.5 62.0144 32.5ZM56.2585 63.4615C56.2585 64.2036 55.6623 64.8077 54.9299 64.8077H38.9873C38.255 64.8077 37.6588 64.2036 37.6588 63.4615V41.9231C37.6588 41.181 38.255 40.5769 38.9873 40.5769H47.402V45.5122C47.402 47.7385 49.1906 49.5507 51.3877 49.5507H56.2585V63.4615ZM50.0574 40.7824C50.1554 40.8396 50.26 40.8901 50.3398 40.9725L55.8682 46.5743C55.9496 46.6567 55.9994 46.761 56.0559 46.8603H51.3862C50.6538 46.8603 50.0576 46.2563 50.0576 45.5142L50.0574 40.7824ZM63.3429 58.0769C63.3429 58.819 62.7467 59.4231 62.0144 59.4231H58.9138V47.5248C58.9138 46.463 58.4887 45.4214 57.7464 44.6693L52.2179 39.0676C51.4756 38.3154 50.4476 37.8846 49.3998 37.8846H44.7432V36.5385C44.7432 35.7964 45.3394 35.1923 46.0718 35.1923H62.0144C62.7467 35.1923 63.3429 35.7964 63.3429 36.5385V58.0769Z" fill="#FF6F4F"/>
</svg>
