<svg width="39" height="37" viewBox="0 0 39 37" fill="none" xmlns="http://www.w3.org/2000/svg">
<path id="Vector" d="M34.1231 11.0613H32.0064C30.7352 5.17576 25.621 0.75 19.5121 0.75C13.4031 0.75 8.28903 5.17588 7.01198 11.0613H4.89506C2.60067 11.0613 0.75 12.9694 0.75 15.3035V19.7574C0.75 22.0918 2.60697 23.9997 4.89506 23.9997H7.86329C8.51101 23.9997 9.02194 23.4629 9.02194 22.814V13.9187C9.02194 7.95539 13.7327 3.11514 19.5061 3.11514C25.2794 3.11514 29.9902 7.95539 29.9902 13.9187V21.1173C29.9902 26.6495 25.8752 31.257 20.6501 31.8455C20.1523 30.4579 18.8555 29.4631 17.3253 29.4631C15.3631 29.4631 13.78 31.1041 13.78 33.1066C13.78 35.1091 15.3631 36.75 17.3253 36.75C18.9069 36.75 20.2371 35.6821 20.6981 34.22C26.2483 33.6889 30.7895 29.4694 31.9935 23.9997H34.1231C36.4064 23.9997 38.25 22.0905 38.25 19.7574V15.3035C38.25 12.9705 36.4064 11.0613 34.1231 11.0613ZM6.70465 21.6346H4.89506C3.89322 21.6346 3.06729 20.7971 3.06729 19.7637V15.3098C3.06729 14.2706 3.89274 13.4389 4.89506 13.4389H6.70465V21.6346ZM17.3253 34.3849C16.6525 34.3849 16.0972 33.8238 16.0972 33.1128C16.0972 32.4018 16.6525 31.8408 17.3253 31.8408C17.9962 31.8408 18.5534 32.4185 18.5534 33.1128C18.5534 33.8071 17.9962 34.3849 17.3253 34.3849ZM35.9327 19.7637C35.9327 20.8048 35.1114 21.6346 34.1231 21.6346H32.3135V13.4327H34.1231C35.1165 13.4327 35.9327 14.2677 35.9327 15.3035V19.7574V19.7637Z" fill="#FF6F4F" stroke="#FF6F4F" stroke-width="0.5"/>
</svg>
