<svg width="96" height="19" viewBox="0 0 96 19" fill="none" xmlns="http://www.w3.org/2000/svg">
<g id="&#235;&#161;&#156;&#234;&#179;&#160; &#234;&#176;&#128;&#236;&#157;&#180;&#235;&#147;&#156; &#237;&#140;&#140;&#236;&#157;&#188;" clip-path="url(#clip0_7766_6548)">
<path id="Vector" d="M69.5356 7.08465C69.5356 5.47397 69.266 4.14738 68.7339 3.1386C68.1994 2.125 67.4097 1.33772 66.3889 0.805637C65.3705 0.273557 63.9716 0.00390625 62.2261 0.00390625C60.0665 0.00390625 58.3475 0.608213 57.1148 1.79516C55.8821 2.98451 55.2585 4.56149 55.2585 6.48035C55.2585 7.8286 55.5691 9.01796 56.1831 10.0171C56.797 11.0187 57.5843 11.7578 58.5208 12.2201C59.4526 12.6799 60.7455 12.911 62.361 12.911C64.222 12.911 65.6714 12.639 66.673 12.1045C67.6769 11.5676 68.5461 10.672 69.2539 9.43929L69.3526 9.26835L64.5158 8.82294L64.4724 8.87591C64.1956 9.22742 63.9355 9.47299 63.702 9.60782C63.312 9.8245 62.8955 9.93284 62.4645 9.93284C61.7759 9.93284 61.2318 9.68968 60.8032 9.1913C60.524 8.86868 60.3362 8.37994 60.2471 7.73711H69.5356V7.08706V7.08465ZM64.5471 5.25729H60.2591C60.3386 4.63131 60.5047 4.1522 60.7527 3.82958C61.1716 3.27343 61.7181 3.00137 62.4187 3.00137C63.0206 3.00137 63.5094 3.18434 63.8753 3.54548C64.2244 3.88977 64.4484 4.46519 64.5471 5.25488V5.25729Z" fill="black"/>
<path id="Vector_2" d="M38.2615 5.23035C37.5007 4.91495 36.3307 4.66697 34.785 4.49362C33.7858 4.37324 33.131 4.24083 32.842 4.09637C32.582 3.96636 32.4568 3.78338 32.4568 3.53781C32.4568 3.31149 32.5579 3.1237 32.7674 2.95998C32.9841 2.79386 33.3428 2.70719 33.8364 2.70719C34.3299 2.70719 34.7465 2.82275 35.0859 3.04906C35.3267 3.21278 35.5 3.47762 35.606 3.83635L35.6349 3.93747L40.3056 3.47762L40.2454 3.32353C39.9372 2.5218 39.5424 1.87416 39.0705 1.39986C38.5962 0.923155 38.0015 0.56683 37.2985 0.342923C36.6003 0.119017 35.5121 0.00585938 34.0603 0.00585938C32.6855 0.00585938 31.5708 0.152723 30.745 0.439227C29.912 0.730547 29.2499 1.17836 28.7732 1.77304C28.2941 2.37012 28.0509 3.08999 28.0509 3.91339C28.0509 4.66697 28.2772 5.34832 28.7202 5.93818C29.1632 6.52564 29.7146 6.94697 30.3622 7.19254C30.993 7.4333 32.1318 7.69814 33.7425 7.97983C34.8042 8.16762 35.4639 8.32411 35.7023 8.4469C36.008 8.60821 36.1573 8.82249 36.1573 9.10899C36.1573 9.3642 36.0441 9.57366 35.8082 9.74941C35.4904 9.9974 35.0305 10.1226 34.4383 10.1226C33.8966 10.1226 33.4608 10.0118 33.143 9.79034C32.8252 9.57125 32.5724 9.19807 32.3918 8.67803L32.3581 8.58414L27.5044 9.27271L27.5357 9.41476C27.8078 10.6041 28.4385 11.3023 29.4016 11.95C30.3574 12.5928 31.9729 12.9178 34.1999 12.9178C35.7745 12.9178 37.0409 12.718 37.9606 12.3207C38.8875 11.9211 39.5785 11.3745 40.0119 10.6956C40.4452 10.0167 40.6643 9.30882 40.6643 8.58895C40.6643 7.86908 40.4549 7.2118 40.0432 6.61472C39.6315 6.02004 39.032 5.55778 38.2591 5.23757L38.2615 5.23035Z" fill="black"/>
<path id="Vector_3" d="M24.0288 0.80173C23.0104 0.269651 21.6115 0 19.866 0C17.7064 0 15.9874 0.604307 14.7547 1.79125C13.522 2.98061 12.8984 4.55758 12.8984 6.47644C12.8984 7.8247 13.209 9.01405 13.823 10.0132C14.4369 11.0148 15.2242 11.7539 16.1607 12.2162C17.0925 12.676 18.3854 12.9071 20.0009 12.9071C21.8595 12.9071 23.3113 12.6351 24.3129 12.1006C25.3168 11.5637 26.186 10.6657 26.8938 9.43538L26.9925 9.26444L22.1557 8.81903L22.1123 8.872C21.8354 9.22351 21.5754 9.46909 21.3395 9.60391C20.9519 9.8206 20.5353 9.92894 20.102 9.92894C19.4134 9.92894 18.8693 9.68577 18.4407 9.1874C18.1614 8.86719 17.9737 8.37604 17.8846 7.73321H27.1731V7.08316C27.1731 5.47488 26.9034 4.14588 26.3714 3.1371C25.8369 2.1235 25.0472 1.33862 24.0264 0.804138L24.0288 0.80173ZM17.899 5.25579C17.9785 4.62981 18.1446 4.1507 18.3926 3.82808C18.8115 3.27193 19.358 2.99987 20.0586 2.99987C20.6678 2.99987 21.1445 3.17803 21.5152 3.54399C21.8643 3.89068 22.0882 4.46369 22.187 5.25338H17.899V5.25579Z" fill="black"/>
<path id="Vector_4" d="M7.69493 3.78507L9.39229 0.12793H14.1593L8.0344 12.5295C7.91402 12.7895 7.654 12.9195 7.25434 12.9195C6.85468 12.9195 6.58503 12.7895 6.44539 12.5295L0.000244141 0.12793H5.84589L7.69493 3.78507Z" fill="black"/>
<path id="Vector_5" d="M54.7669 5.14296C54.7596 7.04737 54.1313 8.74714 52.8793 10.2398C51.9476 11.3522 50.6764 12.1443 49.0729 12.6186C48.2399 12.8641 47.2937 12.999 46.2343 13.0182V18.286H41.4673V0.12793H43.5763L44.9655 2.04679C46.4582 0.455363 48.0256 0.12793 49.6724 0.12793C51.3192 0.12793 52.5784 0.602227 53.4547 1.54601C54.3311 2.49219 54.7693 3.69118 54.7693 5.14296H54.7669ZM49.9757 4.92146C49.9757 4.08843 49.4244 3.73451 48.7719 3.78989C48.7719 3.78989 48.7671 3.78989 48.7647 3.78989C48.3458 3.826 47.8932 4.03065 47.4116 4.51458C46.9277 4.9985 46.5569 5.54984 46.2969 6.1686L46.2319 9.49831C46.3451 9.41886 46.5136 9.31051 46.7375 9.17328C46.9614 9.03605 47.2046 8.87233 47.4718 8.67972C49.044 7.56019 49.9228 6.41899 49.9685 5.24649C49.9733 5.13574 49.9757 5.02739 49.9757 4.92146Z" fill="black"/>
<path id="Vector_6" d="M75.3859 2.57363L76.6306 0.255116L81.2363 0.286414L78.0896 6.1417L82.0525 12.7144L76.0768 12.6735L74.6877 9.83736L73.52 12.6567L68.5242 12.623L71.9261 6.20189L68.5098 0.202148L74.1748 0.24067L75.3883 2.57604L75.3859 2.57363Z" fill="black"/>
<path id="Vector_7" d="M88.5533 2.5747L89.7812 0.246548H94.3869L91.2787 6.12109L95.285 12.6649H89.3093L87.9009 9.83601L86.7524 12.6649H81.7567L85.1153 6.2198L81.658 0.244141H87.323L88.5509 2.57229L88.5533 2.5747Z" fill="black"/>
</g>
<defs>
<clipPath id="clip0_7766_6548">
<rect width="95.288" height="18.2857" fill="white"/>
</clipPath>
</defs>
</svg>
