<svg width="656" height="720" viewBox="0 0 656 720" fill="none" xmlns="http://www.w3.org/2000/svg">
<g clip-path="url(#clip0_7848_5603)">
<rect width="656" height="720" rx="24" fill="white"/>
<path d="M134.466 71.5469H141.005L148.072 88.8086H148.353L155.419 71.5469H161.958V97H156.826V80.3359H156.615L149.97 96.8945H146.455L139.81 80.2656H139.599V97H134.466V71.5469ZM164.508 91.6562C164.508 87.4023 167.953 85.9961 171.61 85.7852C172.981 85.6973 175.547 85.5742 176.356 85.5391V83.9922C176.32 82.4102 175.231 81.4609 173.297 81.4609C171.539 81.4609 170.414 82.2695 170.133 83.5703H165.176C165.492 80.2656 168.375 77.6641 173.438 77.6641C177.586 77.6641 181.524 79.5273 181.524 84.1328V97H176.602V94.3633H176.461C175.512 96.1211 173.719 97.3516 170.871 97.3516C167.215 97.3516 164.508 95.4531 164.508 91.6562ZM169.5 91.5156C169.5 92.9922 170.695 93.7656 172.348 93.7656C174.703 93.7656 176.391 92.1836 176.356 90.1797V88.7734C175.565 88.8086 173.35 88.9316 172.453 89.0195C170.66 89.1953 169.5 90.0391 169.5 91.5156ZM189.979 85.9609V97H184.776V77.9102H189.733V81.25H189.944C190.823 79.0352 192.862 77.6641 195.675 77.6641C199.647 77.6641 202.284 80.3711 202.249 84.8359V97H197.081V85.75C197.081 83.3945 195.78 81.9883 193.636 81.9883C191.456 81.9883 189.979 83.4297 189.979 85.9609ZM204.658 91.6562C204.658 87.4023 208.103 85.9961 211.759 85.7852C213.13 85.6973 215.697 85.5742 216.505 85.5391V83.9922C216.47 82.4102 215.38 81.4609 213.447 81.4609C211.689 81.4609 210.564 82.2695 210.283 83.5703H205.326C205.642 80.2656 208.525 77.6641 213.587 77.6641C217.736 77.6641 221.673 79.5273 221.673 84.1328V97H216.752V94.3633H216.611C215.662 96.1211 213.869 97.3516 211.021 97.3516C207.365 97.3516 204.658 95.4531 204.658 91.6562ZM209.65 91.5156C209.65 92.9922 210.845 93.7656 212.498 93.7656C214.853 93.7656 216.541 92.1836 216.505 90.1797V88.7734C215.714 88.8086 213.5 88.9316 212.603 89.0195C210.81 89.1953 209.65 90.0391 209.65 91.5156ZM233.504 104.559C228.231 104.559 224.996 102.203 224.68 98.582H229.813C230.094 100.094 231.535 100.797 233.61 100.797C236.035 100.797 237.653 99.7773 237.653 97.1055V93.625H237.407C236.703 95.1719 235.016 96.7188 231.957 96.7188C227.633 96.7188 224.188 93.6953 224.188 87.332C224.188 80.8633 227.739 77.6641 231.957 77.6641C235.157 77.6641 236.703 79.5625 237.407 81.1094H237.617V77.9102H242.785V97.2109C242.785 102.062 238.918 104.559 233.504 104.559ZM233.575 92.8164C236.176 92.8164 237.653 90.7773 237.653 87.4023C237.653 83.9922 236.176 81.8125 233.575 81.8125C230.938 81.8125 229.532 84.0977 229.532 87.4023C229.532 90.707 230.938 92.8164 233.575 92.8164ZM254.757 97.3867C248.921 97.3867 245.335 93.5898 245.335 87.543C245.335 81.6367 248.956 77.6641 254.546 77.6641C259.573 77.6641 263.511 80.8281 263.511 87.332V88.8086H250.468C250.468 91.6914 252.19 93.4844 254.862 93.4844C256.62 93.4844 257.886 92.7109 258.413 91.5508H263.37C262.632 95.0664 259.468 97.3867 254.757 97.3867ZM250.468 85.5391H258.589C258.589 83.2188 256.972 81.5664 254.651 81.5664C252.261 81.5664 250.556 83.3418 250.468 85.5391ZM278.84 85.9609V97H273.637V71.5469H278.7V81.25H278.911C279.79 79.0352 281.723 77.6641 284.606 77.6641C288.579 77.6641 291.215 80.3359 291.215 84.8359V97H286.012V85.75C286.012 83.3945 284.747 81.9883 282.567 81.9883C280.387 81.9883 278.84 83.4297 278.84 85.9609ZM303.152 97.3867C297.316 97.3867 293.73 93.5898 293.73 87.543C293.73 81.6367 297.351 77.6641 302.941 77.6641C307.968 77.6641 311.905 80.8281 311.905 87.332V88.8086H298.863C298.863 91.6914 300.585 93.4844 303.257 93.4844C305.015 93.4844 306.28 92.7109 306.808 91.5508H311.765C311.027 95.0664 307.863 97.3867 303.152 97.3867ZM298.863 85.5391H306.984C306.984 83.2188 305.366 81.5664 303.046 81.5664C300.655 81.5664 298.95 83.3418 298.863 85.5391ZM313.541 91.6562C313.541 87.4023 316.986 85.9961 320.643 85.7852C322.014 85.6973 324.58 85.5742 325.389 85.5391V83.9922C325.353 82.4102 324.264 81.4609 322.33 81.4609C320.572 81.4609 319.447 82.2695 319.166 83.5703H314.209C314.525 80.2656 317.408 77.6641 322.471 77.6641C326.619 77.6641 330.557 79.5273 330.557 84.1328V97H325.635V94.3633H325.494C324.545 96.1211 322.752 97.3516 319.904 97.3516C316.248 97.3516 313.541 95.4531 313.541 91.6562ZM318.533 91.5156C318.533 92.9922 319.728 93.7656 321.381 93.7656C323.736 93.7656 325.424 92.1836 325.389 90.1797V88.7734C324.598 88.8086 322.383 88.9316 321.486 89.0195C319.693 89.1953 318.533 90.0391 318.533 91.5156ZM339.012 71.5469V97H333.809V71.5469H339.012ZM352.39 77.9102V81.8125H348.804V91.1289C348.804 92.6406 349.542 93.0273 350.597 93.0625C351.124 93.0625 352.038 93.0273 352.671 92.957V97.0703C352.109 97.1758 351.195 97.2461 349.894 97.2461C346.132 97.2461 343.566 95.5586 343.601 91.8672V81.8125H340.964V77.9102H343.601V73.3398H348.804V77.9102H352.39ZM360.565 85.9609V97H355.361V71.5469H360.424V81.25H360.635C361.514 79.0352 363.447 77.6641 366.33 77.6641C370.303 77.6641 372.94 80.3359 372.94 84.8359V97H367.736V85.75C367.736 83.3945 366.471 81.9883 364.291 81.9883C362.111 81.9883 360.565 83.4297 360.565 85.9609ZM393.859 77.9102V81.8125H390.273V91.1289C390.273 92.6406 391.011 93.0273 392.066 93.0625C392.593 93.0625 393.507 93.0273 394.14 92.957V97.0703C393.578 97.1758 392.664 97.2461 391.363 97.2461C387.601 97.2461 385.035 95.5586 385.07 91.8672V81.8125H382.433V77.9102H385.07V73.3398H390.273V77.9102H393.859ZM404.776 97.3867C399.01 97.3867 395.424 93.4141 395.424 87.5078C395.424 81.6016 399.01 77.6641 404.776 77.6641C410.541 77.6641 414.162 81.6016 414.162 87.5078C414.162 93.4141 410.541 97.3867 404.776 97.3867ZM404.811 93.3438C407.483 93.3438 408.854 90.8477 408.854 87.5078C408.854 84.1328 407.483 81.6367 404.811 81.6367C402.104 81.6367 400.698 84.1328 400.698 87.5078C400.698 90.8477 402.104 93.3438 404.811 93.3438ZM425.29 104.559C420.017 104.559 416.782 102.203 416.466 98.582H421.599C421.88 100.094 423.321 100.797 425.395 100.797C427.821 100.797 429.438 99.7773 429.438 97.1055V93.625H429.192C428.489 95.1719 426.802 96.7188 423.743 96.7188C419.419 96.7188 415.974 93.6953 415.974 87.332C415.974 80.8633 419.524 77.6641 423.743 77.6641C426.942 77.6641 428.489 79.5625 429.192 81.1094H429.403V77.9102H434.571V97.2109C434.571 102.062 430.704 104.559 425.29 104.559ZM425.36 92.8164C427.962 92.8164 429.438 90.7773 429.438 87.4023C429.438 83.9922 427.962 81.8125 425.36 81.8125C422.724 81.8125 421.317 84.0977 421.317 87.4023C421.317 90.707 422.724 92.8164 425.36 92.8164ZM446.543 97.3867C440.707 97.3867 437.121 93.5898 437.121 87.543C437.121 81.6367 440.742 77.6641 446.332 77.6641C451.359 77.6641 455.297 80.8281 455.297 87.332V88.8086H442.254C442.254 91.6914 443.976 93.4844 446.648 93.4844C448.406 93.4844 449.672 92.7109 450.199 91.5508H455.156C454.418 95.0664 451.254 97.3867 446.543 97.3867ZM442.254 85.5391H450.375C450.375 83.2188 448.758 81.5664 446.437 81.5664C444.047 81.5664 442.341 83.3418 442.254 85.5391ZM467.901 77.9102V81.8125H464.315V91.1289C464.315 92.6406 465.053 93.0273 466.108 93.0625C466.635 93.0625 467.549 93.0273 468.182 92.957V97.0703C467.62 97.1758 466.705 97.2461 465.405 97.2461C461.643 97.2461 459.077 95.5586 459.112 91.8672V81.8125H456.475V77.9102H459.112V73.3398H464.315V77.9102H467.901ZM476.075 85.9609V97H470.872V71.5469H475.935V81.25H476.146C477.025 79.0352 478.958 77.6641 481.841 77.6641C485.814 77.6641 488.45 80.3359 488.45 84.8359V97H483.247V85.75C483.247 83.3945 481.982 81.9883 479.802 81.9883C477.622 81.9883 476.075 83.4297 476.075 85.9609ZM500.387 97.3867C494.551 97.3867 490.965 93.5898 490.965 87.543C490.965 81.6367 494.586 77.6641 500.176 77.6641C505.203 77.6641 509.14 80.8281 509.14 87.332V88.8086H496.098C496.098 91.6914 497.82 93.4844 500.492 93.4844C502.25 93.4844 503.515 92.7109 504.043 91.5508H509C508.262 95.0664 505.098 97.3867 500.387 97.3867ZM496.098 85.5391H504.219C504.219 83.2188 502.601 81.5664 500.281 81.5664C497.89 81.5664 496.185 83.3418 496.098 85.5391ZM511.69 97V77.9102H516.717V81.2148H516.928C517.631 78.8594 519.389 77.6289 521.534 77.6289C522.061 77.6289 522.729 77.6992 523.186 77.8047V82.4453C522.694 82.3047 521.71 82.1641 520.971 82.1641C518.616 82.1641 516.893 83.8164 516.893 86.1367V97H511.69Z" fill="#1E1E1E"/>
<path d="M105.959 147V131.445H108.322V138.191H116.057V131.445H118.42V147H116.057V140.211H108.322V147H105.959ZM126.434 147.236C122.996 147.236 120.891 144.873 120.891 141.242C120.891 137.654 123.039 135.184 126.283 135.184C128.947 135.184 131.461 136.838 131.461 141.049V141.865H123.168C123.232 144.078 124.532 145.346 126.455 145.346C127.766 145.346 128.604 144.787 128.99 144.078H131.311C130.795 145.969 128.99 147.236 126.434 147.236ZM123.189 140.146H129.205C129.205 138.363 128.066 137.074 126.305 137.074C124.468 137.074 123.275 138.492 123.189 140.146ZM133.201 143.713C133.201 141.049 135.457 140.361 137.562 140.211C138.336 140.157 140.087 140.061 140.635 140.039L140.613 139.115C140.613 137.805 139.818 137.031 138.25 137.031C136.896 137.031 136.08 137.654 135.844 138.514H133.566C133.781 136.58 135.586 135.184 138.336 135.184C140.184 135.184 142.912 135.871 142.912 139.244V147H140.678V145.41H140.592C140.141 146.291 139.066 147.258 137.133 147.258C134.92 147.258 133.201 145.99 133.201 143.713ZM135.436 143.734C135.436 144.852 136.359 145.432 137.648 145.432C139.518 145.432 140.635 144.186 140.635 142.789V141.715L137.885 141.908C136.381 142.016 135.436 142.574 135.436 143.734ZM147.982 131.445V147H145.684V131.445H147.982ZM156.232 135.334V137.16H153.848V143.562C153.848 144.873 154.514 145.109 155.244 145.131C155.566 145.131 156.082 145.088 156.404 145.066V147.064C156.082 147.107 155.588 147.15 154.965 147.15C153.16 147.15 151.549 146.162 151.57 144.035V137.16H149.852V135.334H151.57V132.541H153.848V135.334H156.232ZM161.023 140.082V147H158.725V131.445H160.98V137.246H161.131C161.689 135.979 162.764 135.184 164.59 135.184C166.996 135.184 168.586 136.666 168.586 139.588V147H166.287V139.867C166.287 138.148 165.363 137.16 163.816 137.16C162.205 137.16 161.023 138.213 161.023 140.082ZM176.922 147V131.445H182.465C186.074 131.445 187.857 133.465 187.857 136.322C187.857 138.417 186.912 140.007 185.021 140.705L188.459 147H185.773L182.615 141.135H182.465H179.285V147H176.922ZM179.285 139.094H182.229C184.527 139.094 185.473 138.084 185.473 136.322C185.473 134.561 184.527 133.465 182.229 133.465H179.285V139.094ZM195.162 147.236C191.725 147.236 189.619 144.873 189.619 141.242C189.619 137.654 191.768 135.184 195.012 135.184C197.676 135.184 200.189 136.838 200.189 141.049V141.865H191.896C191.961 144.078 193.261 145.346 195.184 145.346C196.494 145.346 197.332 144.787 197.719 144.078H200.039C199.523 145.969 197.719 147.236 195.162 147.236ZM191.918 140.146H197.934C197.934 138.363 196.795 137.074 195.033 137.074C193.196 137.074 192.004 138.492 191.918 140.146ZM207.408 147.236C204.014 147.236 201.951 144.723 201.951 141.221C201.951 137.654 204.078 135.184 207.365 135.184C210.029 135.184 211.963 136.752 212.199 139.115H209.965C209.729 138.02 208.848 137.096 207.408 137.096C205.518 137.096 204.25 138.664 204.25 141.156C204.25 143.713 205.496 145.281 207.408 145.281C208.697 145.281 209.686 144.572 209.965 143.305H212.199C211.941 145.561 210.158 147.236 207.408 147.236ZM219.311 147.236C216.002 147.236 213.854 144.83 213.854 141.221C213.854 137.59 216.002 135.184 219.311 135.184C222.598 135.184 224.746 137.59 224.746 141.221C224.746 144.83 222.598 147.236 219.311 147.236ZM219.311 145.324C221.416 145.324 222.426 143.455 222.426 141.221C222.426 138.986 221.416 137.074 219.311 137.074C217.162 137.074 216.152 138.986 216.152 141.221C216.152 143.455 217.162 145.324 219.311 145.324ZM227.002 147V135.334H229.215V137.182H229.344C229.773 135.936 230.934 135.162 232.309 135.162C232.588 135.162 233.039 135.184 233.275 135.205V137.396C233.082 137.354 232.545 137.268 232.072 137.268C230.482 137.268 229.301 138.363 229.301 139.889V147H227.002ZM238.969 147.236C236.154 147.236 234.092 144.959 234.092 141.199C234.092 137.396 236.176 135.184 238.99 135.184C241.16 135.184 241.955 136.494 242.363 137.225H242.471V131.445H244.77V147H242.535V145.174H242.363C241.934 145.947 241.096 147.236 238.969 147.236ZM239.484 145.281C241.439 145.281 242.535 143.605 242.535 141.156C242.535 138.729 241.461 137.139 239.484 137.139C237.443 137.139 236.434 138.857 236.434 141.156C236.434 143.498 237.486 145.281 239.484 145.281ZM250.527 145.518L248.809 151.447H246.982L248.121 145.518H250.527ZM258.949 131.445H261.828L266.748 143.498H266.941L271.861 131.445H274.74V147H272.484V135.764H272.334L267.779 146.979H265.91L261.334 135.742H261.205V147H258.949V131.445ZM282.754 147.236C279.316 147.236 277.211 144.873 277.211 141.242C277.211 137.654 279.359 135.184 282.604 135.184C285.268 135.184 287.781 136.838 287.781 141.049V141.865H279.488C279.553 144.078 280.853 145.346 282.775 145.346C284.086 145.346 284.924 144.787 285.311 144.078H287.631C287.115 145.969 285.311 147.236 282.754 147.236ZM279.51 140.146H285.525C285.525 138.363 284.387 137.074 282.625 137.074C280.788 137.074 279.596 138.492 279.51 140.146ZM292.357 140.082V147H290.059V135.334H292.271V137.246H292.4C292.959 136 294.098 135.184 295.838 135.184C298.244 135.184 299.812 136.688 299.812 139.588V147H297.535V139.867C297.535 138.17 296.611 137.16 295.064 137.16C293.496 137.16 292.357 138.213 292.357 140.082ZM309.158 138.514C308.943 137.59 308.213 136.988 306.945 136.988C305.635 136.988 304.689 137.676 304.711 138.557C304.689 139.244 305.248 139.738 306.537 140.039L308.385 140.469C310.533 140.941 311.564 141.973 311.586 143.627C311.564 145.732 309.803 147.236 306.816 147.236C304.023 147.236 302.348 145.99 302.068 143.82H304.41C304.604 144.873 305.42 145.389 306.795 145.389C308.277 145.389 309.223 144.787 309.244 143.799C309.223 143.047 308.664 142.553 307.439 142.273L305.613 141.887C303.508 141.414 302.412 140.297 302.412 138.686C302.412 136.602 304.217 135.184 306.924 135.184C309.523 135.184 311.135 136.516 311.371 138.514H309.158ZM319.277 135.334V137.16H316.893V143.562C316.893 144.873 317.559 145.109 318.289 145.131C318.611 145.131 319.127 145.088 319.449 145.066V147.064C319.127 147.107 318.633 147.15 318.01 147.15C316.205 147.15 314.594 146.162 314.615 144.035V137.16H312.896V135.334H314.615V132.541H316.893V135.334H319.277ZM321.512 147V135.334H323.725V137.182H323.854C324.283 135.936 325.443 135.162 326.818 135.162C327.098 135.162 327.549 135.184 327.785 135.205V137.396C327.592 137.354 327.055 137.268 326.582 137.268C324.992 137.268 323.811 138.363 323.811 139.889V147H321.512ZM336.916 142.145V135.334H339.193V147H336.959V144.98H336.83C336.293 146.227 335.09 147.15 333.35 147.15C331.094 147.15 329.504 145.646 329.504 142.746V135.334H331.803V142.467C331.803 144.057 332.77 145.066 334.166 145.066C335.434 145.066 336.916 144.143 336.916 142.145ZM341.449 143.713C341.449 141.049 343.705 140.361 345.811 140.211C346.584 140.157 348.335 140.061 348.883 140.039L348.861 139.115C348.861 137.805 348.066 137.031 346.498 137.031C345.145 137.031 344.328 137.654 344.092 138.514H341.814C342.029 136.58 343.834 135.184 346.584 135.184C348.432 135.184 351.16 135.871 351.16 139.244V147H348.926V145.41H348.84C348.389 146.291 347.314 147.258 345.381 147.258C343.168 147.258 341.449 145.99 341.449 143.713ZM343.684 143.734C343.684 144.852 344.607 145.432 345.896 145.432C347.766 145.432 348.883 144.186 348.883 142.789V141.715L346.133 141.908C344.629 142.016 343.684 142.574 343.684 143.734ZM356.23 131.445V147H353.932V131.445H356.23ZM375.115 136.516C374.729 134.518 373.074 133.4 371.098 133.4C368.412 133.4 366.414 135.463 366.414 139.223C366.414 143.004 368.434 145.045 371.098 145.045C373.053 145.045 374.707 143.949 375.115 141.973L377.5 141.994C377.006 145.066 374.492 147.215 371.076 147.215C367.016 147.215 364.072 144.186 364.072 139.223C364.072 134.238 367.037 131.23 371.076 131.23C374.363 131.23 376.963 133.164 377.5 136.516H375.115ZM381.346 151.383C380.873 151.383 380.422 151.361 380.121 151.318V149.406C380.379 149.428 380.83 149.449 381.152 149.449C381.861 149.449 382.463 149.385 383 147.924L383.279 147.15L379.004 135.334H381.453L384.396 144.379H384.525L387.469 135.334H389.939L385.127 148.547C384.461 150.395 383.258 151.383 381.346 151.383ZM396.342 147.236C392.947 147.236 390.885 144.723 390.885 141.221C390.885 137.654 393.012 135.184 396.299 135.184C398.963 135.184 400.896 136.752 401.133 139.115H398.898C398.662 138.02 397.781 137.096 396.342 137.096C394.451 137.096 393.184 138.664 393.184 141.156C393.184 143.713 394.43 145.281 396.342 145.281C397.631 145.281 398.619 144.572 398.898 143.305H401.133C400.875 145.561 399.092 147.236 396.342 147.236ZM405.602 131.445V147H403.303V131.445H405.602ZM413.422 147.236C409.984 147.236 407.879 144.873 407.879 141.242C407.879 137.654 410.027 135.184 413.271 135.184C415.936 135.184 418.449 136.838 418.449 141.049V141.865H410.156C410.221 144.078 411.521 145.346 413.443 145.346C414.754 145.346 415.592 144.787 415.979 144.078H418.299C417.783 145.969 415.979 147.236 413.422 147.236ZM410.178 140.146H416.193C416.193 138.363 415.055 137.074 413.293 137.074C411.456 137.074 410.264 138.492 410.178 140.146ZM423.498 145.518L421.779 151.447H419.953L421.092 145.518H423.498ZM431.92 131.445H434.799L439.719 143.498H439.912L444.832 131.445H447.711V147H445.455V135.764H445.305L440.75 146.979H438.881L434.305 135.742H434.176V147H431.92V131.445ZM455.725 147.236C452.287 147.236 450.182 144.873 450.182 141.242C450.182 137.654 452.33 135.184 455.574 135.184C458.238 135.184 460.752 136.838 460.752 141.049V141.865H452.459C452.523 144.078 453.823 145.346 455.746 145.346C457.057 145.346 457.895 144.787 458.281 144.078H460.602C460.086 145.969 458.281 147.236 455.725 147.236ZM452.48 140.146H458.496C458.496 138.363 457.357 137.074 455.596 137.074C453.759 137.074 452.566 138.492 452.48 140.146ZM465.328 140.082V147H463.029V135.334H465.242V137.246H465.371C465.93 136 467.068 135.184 468.809 135.184C471.215 135.184 472.783 136.688 472.783 139.588V147H470.506V139.867C470.506 138.17 469.582 137.16 468.035 137.16C466.467 137.16 465.328 138.213 465.328 140.082ZM481.033 135.334V137.16H478.648V143.562C478.648 144.873 479.314 145.109 480.045 145.131C480.367 145.131 480.883 145.088 481.205 145.066V147.064C480.883 147.107 480.389 147.15 479.766 147.15C477.961 147.15 476.35 146.162 476.371 144.035V137.16H474.652V135.334H476.371V132.541H478.648V135.334H481.033ZM482.73 143.713C482.73 141.049 484.986 140.361 487.092 140.211C487.865 140.157 489.616 140.061 490.164 140.039L490.143 139.115C490.143 137.805 489.348 137.031 487.779 137.031C486.426 137.031 485.609 137.654 485.373 138.514H483.096C483.311 136.58 485.115 135.184 487.865 135.184C489.713 135.184 492.441 135.871 492.441 139.244V147H490.207V145.41H490.121C489.67 146.291 488.596 147.258 486.662 147.258C484.449 147.258 482.73 145.99 482.73 143.713ZM484.965 143.734C484.965 144.852 485.889 145.432 487.178 145.432C489.047 145.432 490.164 144.186 490.164 142.789V141.715L487.414 141.908C485.91 142.016 484.965 142.574 484.965 143.734ZM497.512 131.445V147H495.213V131.445H497.512ZM516.396 136.516C516.01 134.518 514.355 133.4 512.379 133.4C509.693 133.4 507.695 135.463 507.695 139.223C507.695 143.004 509.715 145.045 512.379 145.045C514.334 145.045 515.988 143.949 516.396 141.973L518.781 141.994C518.287 145.066 515.773 147.215 512.357 147.215C508.297 147.215 505.354 144.186 505.354 139.223C505.354 134.238 508.318 131.23 512.357 131.23C515.645 131.23 518.244 133.164 518.781 136.516H516.396ZM520.607 143.713C520.607 141.049 522.863 140.361 524.969 140.211C525.742 140.157 527.493 140.061 528.041 140.039L528.02 139.115C528.02 137.805 527.225 137.031 525.656 137.031C524.303 137.031 523.486 137.654 523.25 138.514H520.973C521.188 136.58 522.992 135.184 525.742 135.184C527.59 135.184 530.318 135.871 530.318 139.244V147H528.084V145.41H527.998C527.547 146.291 526.473 147.258 524.539 147.258C522.326 147.258 520.607 145.99 520.607 143.713ZM522.842 143.734C522.842 144.852 523.766 145.432 525.055 145.432C526.924 145.432 528.041 144.186 528.041 142.789V141.715L525.291 141.908C523.787 142.016 522.842 142.574 522.842 143.734ZM533.09 147V135.334H535.303V137.182H535.432C535.861 135.936 537.021 135.162 538.396 135.162C538.676 135.162 539.127 135.184 539.363 135.205V137.396C539.17 137.354 538.633 137.268 538.16 137.268C536.57 137.268 535.389 138.363 535.389 139.889V147H533.09ZM545.723 147.236C542.285 147.236 540.18 144.873 540.18 141.242C540.18 137.654 542.328 135.184 545.572 135.184C548.236 135.184 550.75 136.838 550.75 141.049V141.865H542.457C542.521 144.078 543.821 145.346 545.744 145.346C547.055 145.346 547.893 144.787 548.279 144.078H550.6C550.084 145.969 548.279 147.236 545.723 147.236ZM542.479 140.146H548.494C548.494 138.363 547.355 137.074 545.594 137.074C543.757 137.074 542.564 138.492 542.479 140.146Z" fill="#777777"/>
<g clip-path="url(#clip1_7848_5603)">
<g opacity="0.5" filter="url(#filter0_f_7848_5603)">
<circle cx="338" cy="427" r="163" fill="#E7ACD4"/>
</g>
<g opacity="0.8" filter="url(#filter1_f_7848_5603)">
<circle cx="439.5" cy="499.5" r="129.5" fill="#FFEEE6"/>
</g>
<g opacity="0.8" filter="url(#filter2_f_7848_5603)">
<circle cx="276" cy="489" r="120" fill="#FFD5BA"/>
</g>
<rect x="333.839" y="280" width="154.161" height="154.161" rx="14.0146" fill="white"/>
<rect x="382.891" y="329.051" width="56.0584" height="56.0584" rx="28.0292" fill="url(#paint0_linear_7848_5603)"/>
<path d="M410.372 344.839C410.572 344.343 411.267 344.343 411.468 344.839C413.722 350.392 421.01 351.971 421.01 359.651C421.01 365.197 416.492 369.693 410.919 369.693C405.347 369.692 400.829 365.197 400.829 359.65C400.829 351.971 408.118 350.392 410.372 344.839Z" fill="white"/>
<rect x="168" y="445.839" width="154.161" height="154.161" rx="14.0146" fill="white"/>
<rect x="217.051" y="494.89" width="56.0584" height="56.0584" rx="28.0292" fill="url(#paint1_linear_7848_5603)"/>
<path d="M255.092 513.225C255.746 515.348 256.026 517.557 255.954 519.803C254.344 520.621 252.691 521.722 251.11 523.2C251.031 520.955 250.607 518.934 250.011 517.166C251.858 515.203 253.777 513.935 255.085 513.225H255.092ZM245.08 511.241C246.784 513.341 249.637 517.782 249.637 523.975C249.637 526.192 249.177 531.726 245.087 536.71C243.384 534.609 240.531 530.169 240.531 523.975C240.531 521.759 240.991 516.224 245.08 511.241ZM235.076 513.225C236.384 513.943 238.303 515.203 240.157 517.173C239.359 519.607 239.108 521.759 239.05 523.2C237.476 521.722 235.823 520.621 234.214 519.81C234.142 517.564 234.415 515.355 235.076 513.233V513.225ZM226.394 519.042C229.075 519.317 234.214 520.426 238.555 524.801C238.684 524.931 238.864 525.12 239.072 525.351C239.41 530.668 241.659 534.652 243.355 536.934C240.524 536.507 236.003 535.21 232.115 531.299C230.563 529.727 227.005 525.467 226.394 519.042ZM258.053 531.291C254.165 535.21 249.644 536.507 246.812 536.934C250.039 532.624 250.895 528.068 251.081 525.359C251.297 525.127 251.484 524.931 251.606 524.801C255.947 520.426 261.086 519.317 263.766 519.042C263.163 525.467 259.605 529.719 258.053 531.291Z" fill="white"/>
<rect x="168" y="280" width="154.161" height="154.161" rx="14.0146" fill="white"/>
<path d="M268.16 338.688C261.917 332.468 251.813 332.114 245.16 337.712C245.128 337.712 245.106 337.712 245.074 337.712C245.042 337.712 245.02 337.712 244.998 337.712C241.936 335.127 238.076 333.723 234.021 333.723C229.471 333.723 225.201 335.481 221.998 338.688C215.485 345.143 215.378 355.759 221.826 362.419C221.858 362.44 221.88 362.472 221.912 362.504L233.288 373.818L244.319 384.809C244.524 385.002 244.794 385.11 245.052 385.11C245.311 385.11 245.581 385.002 245.786 384.809L268.128 362.59L268.214 362.494C268.214 362.494 268.268 362.44 268.3 362.408C268.322 362.386 268.343 362.376 268.376 362.333C271.427 359.18 273.11 355.03 273.11 350.623C273.11 346.215 271.341 341.862 268.128 338.677L268.16 338.688ZM261.938 360.446H254.671C254.541 360.446 254.423 360.413 254.304 360.37C254.272 360.37 254.239 360.338 254.207 360.317C254.121 360.285 254.056 360.231 253.991 360.177C253.959 360.156 253.927 360.135 253.905 360.102C253.84 360.027 253.787 359.963 253.743 359.866C253.743 359.845 253.722 359.824 253.711 359.802C253.711 359.802 253.711 359.795 253.711 359.781L250.875 352.499V352.478L249.301 348.596L247.726 352.51L245.193 358.826L242.648 365.142C242.648 365.142 242.615 365.196 242.605 365.217C242.561 365.303 242.508 365.378 242.443 365.453C242.421 365.486 242.389 365.507 242.357 365.528C242.292 365.593 242.216 365.646 242.13 365.679C242.109 365.679 242.098 365.711 242.076 365.721H242.033C241.914 365.764 241.807 365.797 241.688 365.797C241.569 365.797 241.451 365.764 241.343 365.721C241.343 365.721 241.311 365.721 241.3 365.721C241.278 365.721 241.268 365.7 241.246 365.689C241.16 365.646 241.084 365.593 241.009 365.539C240.987 365.518 240.955 365.496 240.933 365.464C240.858 365.389 240.804 365.314 240.761 365.217C240.761 365.196 240.739 365.185 240.728 365.164L238.184 358.837L236.588 354.848L234.463 359.824C234.41 359.952 234.334 360.038 234.269 360.124C234.237 360.145 234.215 360.167 234.183 360.188C234.118 360.253 234.043 360.306 233.967 360.338C233.935 360.338 233.903 360.37 233.87 360.381C233.752 360.424 233.633 360.456 233.504 360.456H228.231C227.659 360.456 227.196 359.995 227.196 359.427C227.196 358.858 227.659 358.397 228.231 358.397H232.814L235.639 351.738C235.747 351.491 235.941 351.288 236.2 351.18C236.739 350.966 237.343 351.223 237.558 351.749L240.092 358.065L241.666 361.979L243.241 358.076L245.786 351.749L248.32 345.433C248.352 345.347 248.417 345.283 248.46 345.207C248.492 345.175 248.503 345.132 248.535 345.1C248.568 345.068 248.6 345.057 248.632 345.036C248.708 344.972 248.783 344.907 248.88 344.875C248.88 344.875 248.967 344.854 249.01 344.843C249.096 344.821 249.171 344.8 249.268 344.8C249.344 344.8 249.409 344.821 249.484 344.843C249.549 344.843 249.603 344.843 249.646 344.864C249.732 344.907 249.797 344.961 249.872 345.004C249.905 345.036 249.948 345.057 249.991 345.09C250.012 345.111 250.034 345.154 250.056 345.197C250.12 345.272 250.185 345.336 250.207 345.422L252.741 351.738V351.76L255.318 358.387H261.863C262.434 358.387 262.898 358.848 262.898 359.416C262.898 359.984 262.434 360.446 261.863 360.446H261.938Z" fill="url(#paint2_linear_7848_5603)"/>
<rect x="333.839" y="445.839" width="154.161" height="154.161" rx="14.0146" fill="white"/>
<path d="M410.902 495.853C398.125 495.853 387.562 506.069 387.562 518.71C387.562 525.079 389.876 530.993 393.691 536.005C397.862 541.534 403.046 546.351 408.915 550.132C410.381 551.071 411.586 551.005 412.922 550.132C418.757 546.351 423.942 541.534 428.148 536.005C431.961 530.993 434.277 525.079 434.277 518.71C434.277 506.069 423.715 495.853 410.902 495.853Z" fill="url(#paint3_linear_7848_5603)"/>
<path d="M402.745 519.416H419.095" stroke="white" stroke-width="2.62774" stroke-linecap="round"/>
<path d="M410.92 511.24L410.92 527.591" stroke="white" stroke-width="2.62774" stroke-linecap="round"/>
</g>
</g>
<defs>
<filter id="filter0_f_7848_5603" x="-25" y="64" width="726" height="726" filterUnits="userSpaceOnUse" color-interpolation-filters="sRGB">
<feFlood flood-opacity="0" result="BackgroundImageFix"/>
<feBlend mode="normal" in="SourceGraphic" in2="BackgroundImageFix" result="shape"/>
<feGaussianBlur stdDeviation="100" result="effect1_foregroundBlur_7848_5603"/>
</filter>
<filter id="filter1_f_7848_5603" x="110" y="170" width="659" height="659" filterUnits="userSpaceOnUse" color-interpolation-filters="sRGB">
<feFlood flood-opacity="0" result="BackgroundImageFix"/>
<feBlend mode="normal" in="SourceGraphic" in2="BackgroundImageFix" result="shape"/>
<feGaussianBlur stdDeviation="100" result="effect1_foregroundBlur_7848_5603"/>
</filter>
<filter id="filter2_f_7848_5603" x="-44" y="169" width="640" height="640" filterUnits="userSpaceOnUse" color-interpolation-filters="sRGB">
<feFlood flood-opacity="0" result="BackgroundImageFix"/>
<feBlend mode="normal" in="SourceGraphic" in2="BackgroundImageFix" result="shape"/>
<feGaussianBlur stdDeviation="100" result="effect1_foregroundBlur_7848_5603"/>
</filter>
<linearGradient id="paint0_linear_7848_5603" x1="449.46" y1="406.131" x2="399.923" y2="319.814" gradientUnits="userSpaceOnUse">
<stop stop-color="#FF785A"/>
<stop offset="1" stop-color="#FFB4A3"/>
</linearGradient>
<linearGradient id="paint1_linear_7848_5603" x1="283.62" y1="571.971" x2="234.084" y2="485.653" gradientUnits="userSpaceOnUse">
<stop stop-color="#1FA0B7"/>
<stop offset="1" stop-color="#A7F3C5"/>
</linearGradient>
<linearGradient id="paint2_linear_7848_5603" x1="254.252" y1="385.195" x2="237.801" y2="332.137" gradientUnits="userSpaceOnUse">
<stop stop-color="#FF5B5B"/>
<stop offset="0.865069" stop-color="#FFA3A3"/>
</linearGradient>
<linearGradient id="paint3_linear_7848_5603" x1="442.268" y1="554.247" x2="388.391" y2="498.478" gradientUnits="userSpaceOnUse">
<stop stop-color="#5AB2FF"/>
<stop offset="0.689193" stop-color="#A3BFFF"/>
</linearGradient>
<clipPath id="clip0_7848_5603">
<rect width="656" height="720" rx="24" fill="white"/>
</clipPath>
<clipPath id="clip1_7848_5603">
<rect width="656" height="507" fill="white" transform="translate(0 213)"/>
</clipPath>
</defs>
</svg>
