<svg width="253" height="52" viewBox="0 0 253 52" fill="none" xmlns="http://www.w3.org/2000/svg">
<rect width="253" height="52" rx="26" fill="url(#paint0_linear_339_7089)"/>
<rect x="0.5" y="0.5" width="252" height="51" rx="25.5" stroke="#FFE6C2" stroke-opacity="0.28"/>
<g clip-path="url(#clip0_339_7089)">
<path d="M82.8435 27.1983C82.8435 25.789 82.6076 24.6282 82.142 23.7455C81.6743 22.8586 80.9833 22.1698 80.0901 21.7042C79.199 21.2386 77.975 21.0027 76.4477 21.0027C74.558 21.0027 73.0539 21.5315 71.9753 22.57C70.8967 23.6107 70.3511 24.9906 70.3511 26.6696C70.3511 27.8493 70.6228 28.89 71.16 29.7642C71.6972 30.6406 72.3861 31.2873 73.2056 31.6918C74.0209 32.0942 75.1521 32.2964 76.5657 32.2964C78.1941 32.2964 79.4623 32.0584 80.3387 31.5907C81.2172 31.1209 81.9777 30.3372 82.597 29.2586L82.6834 29.1091L78.4511 28.7193L78.4132 28.7657C78.171 29.0733 77.9434 29.2881 77.7391 29.4061C77.3978 29.5957 77.0334 29.6905 76.6563 29.6905C76.0538 29.6905 75.5777 29.4777 75.2027 29.0417C74.9583 28.7594 74.794 28.3317 74.7161 27.7692H82.8435V27.2004V27.1983ZM78.4785 25.5994H74.7266C74.7961 25.0517 74.9415 24.6324 75.1584 24.3502C75.525 23.8635 76.0032 23.6255 76.6163 23.6255C77.1429 23.6255 77.5706 23.7856 77.8908 24.1016C78.1962 24.4028 78.3922 24.9063 78.4785 25.5973V25.5994Z" fill="#1C1A19"/>
<path d="M55.4789 25.5761C54.8132 25.3001 53.7894 25.0831 52.4369 24.9314C51.5627 24.8261 50.9896 24.7102 50.7368 24.5838C50.5093 24.4701 50.3998 24.31 50.3998 24.0951C50.3998 23.8971 50.4883 23.7327 50.6715 23.5895C50.8611 23.4441 51.175 23.3683 51.6069 23.3683C52.0388 23.3683 52.4032 23.4694 52.7002 23.6674C52.9109 23.8107 53.0626 24.0424 53.1553 24.3563L53.1806 24.4448L57.2675 24.0424L57.2148 23.9076C56.9451 23.2061 56.5997 22.6394 56.1867 22.2244C55.7717 21.8073 55.2514 21.4955 54.6363 21.2996C54.0253 21.1037 53.0731 21.0046 51.8028 21.0046C50.5999 21.0046 49.6245 21.1331 48.902 21.3838C48.1731 21.6387 47.5937 22.0306 47.1766 22.5509C46.7574 23.0734 46.5446 23.7033 46.5446 24.4237C46.5446 25.0831 46.7426 25.6793 47.1303 26.1954C47.5179 26.7094 48.0003 27.0781 48.567 27.293C49.1189 27.5037 50.1154 27.7354 51.5247 27.9819C52.4538 28.1462 53.031 28.2831 53.2395 28.3906C53.5071 28.5317 53.6377 28.7192 53.6377 28.9699C53.6377 29.1932 53.5387 29.3765 53.3322 29.5302C53.0542 29.7472 52.6518 29.8568 52.1336 29.8568C51.6596 29.8568 51.2783 29.7599 51.0002 29.5661C50.7221 29.3744 50.5009 29.0478 50.3429 28.5928L50.3134 28.5106L46.0664 29.1131L46.0938 29.2374C46.3318 30.2781 46.8838 30.889 47.7264 31.4557C48.5628 32.0182 49.9763 32.3026 51.925 32.3026C53.3027 32.3026 54.4108 32.1277 55.2156 31.7801C56.0266 31.4304 56.6313 30.9522 57.0105 30.3582C57.3896 29.7641 57.5814 29.1447 57.5814 28.5148C57.5814 27.885 57.3981 27.3098 57.0378 26.7874C56.6776 26.267 56.153 25.8626 55.4768 25.5824L55.4789 25.5761Z" fill="#1C1A19"/>
<path d="M43.0252 21.7015C42.1341 21.2359 40.9101 21 39.3828 21C37.4931 21 35.989 21.5288 34.9104 22.5673C33.8318 23.608 33.2861 24.9879 33.2861 26.6669C33.2861 27.8466 33.5579 28.8873 34.0951 29.7616C34.6323 30.6379 35.3212 31.2847 36.1406 31.6891C36.9559 32.0915 38.0872 32.2937 39.5007 32.2937C41.1271 32.2937 42.3974 32.0557 43.2738 31.588C44.1522 31.1182 44.9127 30.3325 45.5321 29.256L45.6185 29.1064L41.3862 28.7167L41.3483 28.763C41.106 29.0706 40.8785 29.2854 40.672 29.4034C40.3329 29.593 39.9684 29.6878 39.5892 29.6878C38.9867 29.6878 38.5106 29.475 38.1356 29.039C37.8913 28.7588 37.7269 28.329 37.649 27.7666H45.7765V27.1978C45.7765 25.7905 45.5405 24.6276 45.0749 23.745C44.6073 22.8581 43.9163 22.1713 43.0231 21.7036L43.0252 21.7015ZM37.6616 25.5988C37.7312 25.0511 37.8765 24.6319 38.0935 24.3496C38.4601 23.8629 38.9383 23.6249 39.5513 23.6249C40.0843 23.6249 40.5014 23.7808 40.8258 24.101C41.1313 24.4043 41.3272 24.9057 41.4136 25.5967H37.6616V25.5988Z" fill="#1C1A19"/>
<path d="M28.7329 24.3118L30.218 21.1118H34.3892L29.0299 31.9632C28.9246 32.1907 28.697 32.3044 28.3473 32.3044C27.9976 32.3044 27.7617 32.1907 27.6395 31.9632L22 21.1118H27.1149L28.7329 24.3118Z" fill="#1C1A19"/>
<path d="M69.9213 25.4997C69.915 27.1661 69.3652 28.6534 68.2697 29.9595C67.4544 30.9328 66.3421 31.6259 64.9391 32.0409C64.2102 32.2557 63.3823 32.3737 62.4553 32.3906V36.9999H58.2842V21.1116H60.1296L61.3451 22.7906C62.6513 21.3981 64.0227 21.1116 65.4636 21.1116C66.9046 21.1116 68.0064 21.5266 68.7732 22.3524C69.54 23.1803 69.9234 24.2294 69.9234 25.4997H69.9213ZM65.7291 25.3059C65.7291 24.577 65.2467 24.2673 64.6758 24.3158C64.6758 24.3158 64.6715 24.3158 64.6694 24.3158C64.3029 24.3474 63.9068 24.5265 63.4855 24.9499C63.0621 25.3733 62.7376 25.8557 62.5101 26.3972L62.4532 29.3107C62.5522 29.2411 62.6997 29.1463 62.8956 29.0263C63.0916 28.9062 63.3043 28.7629 63.5382 28.5944C64.9138 27.6148 65.6827 26.6162 65.7228 25.5903C65.727 25.4934 65.7291 25.3986 65.7291 25.3059Z" fill="#1C1A19"/>
<path d="M87.9624 23.2521L89.0515 21.2233L93.0816 21.2507L90.3282 26.3741L93.7957 32.1253L88.567 32.0894L87.3515 29.6078L86.3297 32.0747L81.9584 32.0452L84.9351 26.4268L81.9458 21.177L86.9027 21.2107L87.9645 23.2542L87.9624 23.2521Z" fill="#1C1A19"/>
<path d="M99.4841 23.2519L100.559 21.2148H104.589L101.869 26.355L105.374 32.0808H100.146L98.9132 29.6055L97.9083 32.0808H93.5371L96.4758 26.4413L93.4507 21.2126H98.4076L99.482 23.2498L99.4841 23.2519Z" fill="#1C1A19"/>
</g>
<path d="M122 20L122 32" stroke="#E7DED0" stroke-width="2" stroke-linecap="round"/>
<g clip-path="url(#clip1_339_7089)">
<path fill-rule="evenodd" clip-rule="evenodd" d="M145.629 17.3058C146.289 16.6477 147.185 16.2783 148.118 16.2783C150.061 16.2783 151.639 17.8482 151.639 19.7885C151.639 20.72 151.268 21.613 150.607 22.2712L149.727 23.1483H150.581C152.523 23.1483 154.103 24.7099 154.117 26.6486C154.124 27.5925 153.75 28.4994 153.081 29.1663L148.094 34.1348C147.427 34.799 146.522 35.1688 145.58 35.1622C143.656 35.1487 142.097 33.5978 142.084 31.6769C142.077 30.7368 142.449 29.8337 143.116 29.1695L143.996 28.2924H141.538C139.954 28.2924 138.667 27.0121 138.667 25.4291C138.667 24.6692 138.97 23.9407 139.508 23.4039L145.629 17.3058ZM145.347 28.2924L143.789 29.8451C143.303 30.3291 143.033 30.9865 143.037 31.6702C143.047 33.0663 144.181 34.1986 145.587 34.2085C146.274 34.2133 146.935 33.9432 147.421 33.4592L152.408 28.4907C152.896 28.004 153.168 27.3428 153.163 26.6553C153.153 25.2439 152.002 24.102 150.581 24.102L144.862 24.102C144.543 24.102 144.287 24.3592 144.287 24.6728C144.287 24.9863 144.543 25.2435 144.862 25.2435H148.861C149.703 25.2435 150.389 25.9244 150.389 26.7679C150.389 27.6115 149.703 28.2924 148.861 28.2924L145.347 28.2924ZM148.376 23.1483L149.934 21.5955C150.415 21.116 150.685 20.4659 150.685 19.7885C150.685 18.3782 149.538 17.2321 148.118 17.2321C147.436 17.2321 146.783 17.5018 146.302 17.9814L140.181 24.0795C139.822 24.4378 139.62 24.9233 139.62 25.4291C139.62 26.4821 140.477 27.3387 141.538 27.3387H148.861C149.18 27.3387 149.435 27.0815 149.435 26.7679C149.435 26.4544 149.18 26.1972 148.861 26.1972H144.862C144.019 26.1972 143.334 25.5163 143.334 24.6728C143.334 23.8292 144.019 23.1483 144.862 23.1483H148.376Z" fill="url(#paint1_linear_339_7089)"/>
<path d="M160.15 30.9847C159.494 30.7044 158.976 30.3007 158.595 29.7737C158.213 29.2467 158.017 28.6244 158.006 27.9068H160.529C160.562 28.389 160.733 28.7702 161.042 29.0505C161.35 29.3308 161.773 29.471 162.312 29.471C162.85 29.471 163.293 29.3392 163.607 29.0757C163.921 28.8122 164.078 28.4674 164.078 28.0414C164.078 27.6938 163.971 27.4078 163.758 27.1836C163.545 26.9593 163.279 26.7827 162.959 26.6538C162.64 26.5248 162.199 26.3819 161.639 26.2249C160.876 26.0006 160.257 25.7792 159.78 25.5605C159.304 25.3419 158.895 25.0111 158.553 24.5682C158.211 24.1253 158.04 23.5338 158.04 22.7938C158.04 22.0986 158.213 21.4931 158.561 20.9773C158.909 20.4616 159.396 20.0663 160.024 19.7916C160.652 19.5169 161.37 19.3795 162.177 19.3795C163.388 19.3795 164.372 19.6739 165.129 20.2625C165.886 20.8512 166.303 21.6725 166.382 22.7265H163.792C163.769 22.3229 163.598 21.9893 163.279 21.7258C162.959 21.4623 162.536 21.3305 162.009 21.3305C161.549 21.3305 161.182 21.4483 160.907 21.6837C160.632 21.9192 160.495 22.2612 160.495 22.7097C160.495 23.0237 160.599 23.2844 160.806 23.4918C161.014 23.6992 161.272 23.8674 161.58 23.9964C161.888 24.1253 162.323 24.2739 162.883 24.4421C163.646 24.6663 164.268 24.8906 164.75 25.1148C165.233 25.3391 165.647 25.6755 165.995 26.124C166.343 26.5725 166.516 27.1612 166.516 27.89C166.516 28.5179 166.354 29.101 166.029 29.6392C165.703 30.1774 165.227 30.6063 164.599 30.9258C163.971 31.2454 163.225 31.4052 162.362 31.4052C161.544 31.4052 160.806 31.265 160.15 30.9847Z" fill="url(#paint2_linear_339_7089)"/>
<path d="M168.039 20.4644C167.764 20.2009 167.627 19.8729 167.627 19.4805C167.627 19.088 167.764 18.76 168.039 18.4965C168.314 18.233 168.658 18.1013 169.073 18.1013C169.488 18.1013 169.833 18.233 170.108 18.4965C170.382 18.76 170.52 19.088 170.52 19.4805C170.52 19.8729 170.382 20.2009 170.108 20.4644C169.833 20.7279 169.488 20.8596 169.073 20.8596C168.658 20.8596 168.314 20.7279 168.039 20.4644ZM170.234 21.9697V31.2875H167.879V21.9697H170.234Z" fill="url(#paint3_linear_339_7089)"/>
<path d="M177.365 22.2304C177.892 22.5051 178.307 22.8611 178.609 23.2984V21.9697H180.981V31.3548C180.981 32.2181 180.807 32.989 180.46 33.6674C180.112 34.3457 179.591 34.884 178.895 35.282C178.2 35.6801 177.359 35.8791 176.373 35.8791C175.049 35.8791 173.965 35.5707 173.118 34.954C172.271 34.3373 171.792 33.4964 171.68 32.4312H174.018C174.141 32.8573 174.408 33.1964 174.817 33.4487C175.226 33.701 175.722 33.8272 176.305 33.8272C176.989 33.8272 177.544 33.6225 177.97 33.2133C178.396 32.804 178.609 32.1845 178.609 31.3548V29.9083C178.307 30.3456 177.889 30.71 177.356 31.0016C176.824 31.2931 176.216 31.4388 175.532 31.4388C174.747 31.4388 174.029 31.237 173.379 30.8334C172.728 30.4297 172.215 29.8607 171.84 29.1262C171.464 28.3918 171.276 27.548 171.276 26.595C171.276 25.6419 171.464 24.8177 171.84 24.0889C172.215 23.3601 172.726 22.7994 173.37 22.407C174.015 22.0146 174.735 21.8183 175.532 21.8183C176.227 21.8183 176.838 21.9557 177.365 22.2304ZM178.273 25.1569C178.049 24.7477 177.746 24.4337 177.365 24.215C176.984 23.9964 176.574 23.8871 176.137 23.8871C175.7 23.8871 175.296 23.9936 174.926 24.2066C174.556 24.4197 174.256 24.7308 174.026 25.1401C173.796 25.5494 173.681 26.0343 173.681 26.595C173.681 27.1556 173.796 27.6461 174.026 28.0666C174.256 28.4871 174.559 28.8095 174.935 29.0337C175.31 29.258 175.711 29.3701 176.137 29.3701C176.563 29.3701 176.984 29.2608 177.365 29.0421C177.746 28.8235 178.049 28.5095 178.273 28.1003C178.497 27.691 178.609 27.2004 178.609 26.6286C178.609 26.0567 178.497 25.5662 178.273 25.1569Z" fill="url(#paint4_linear_339_7089)"/>
<path d="M190.467 22.8863C191.151 23.5871 191.493 24.5654 191.493 25.8213V31.2875H189.138V26.1408C189.138 25.4008 188.953 24.8317 188.583 24.4337C188.213 24.0356 187.709 23.8366 187.07 23.8366C186.431 23.8366 185.906 24.0356 185.531 24.4337C185.155 24.8317 184.967 25.4008 184.967 26.1408V31.2875H182.613V21.9697H184.967V23.1302C185.281 22.7266 185.682 22.4098 186.17 22.1799C186.658 21.9501 187.193 21.8351 187.776 21.8351C188.886 21.8351 189.783 22.1855 190.467 22.8863Z" fill="url(#paint5_linear_339_7089)"/>
<path d="M193.015 24.0889C193.391 23.3601 193.901 22.7994 194.545 22.407C195.19 22.0146 195.911 21.8183 196.707 21.8183C197.402 21.8183 198.01 21.9585 198.532 22.2388C199.053 22.5191 199.471 22.8723 199.785 23.2984V21.9697H202.156V31.2875H199.785V29.9251C199.482 30.3624 199.064 30.724 198.532 31.01C197.999 31.2959 197.385 31.4388 196.69 31.4388C195.905 31.4388 195.19 31.237 194.545 30.8334C193.901 30.4297 193.391 29.8607 193.015 29.1262C192.639 28.3918 192.451 27.548 192.451 26.595C192.451 25.6419 192.639 24.8177 193.015 24.0889ZM199.448 25.1569C199.224 24.7477 198.921 24.4337 198.54 24.215C198.159 23.9964 197.75 23.8871 197.312 23.8871C196.875 23.8871 196.471 23.9936 196.101 24.2066C195.731 24.4197 195.431 24.7308 195.201 25.1401C194.972 25.5494 194.857 26.0343 194.857 26.595C194.857 27.1556 194.972 27.6461 195.201 28.0666C195.431 28.4871 195.734 28.8095 196.11 29.0337C196.485 29.258 196.886 29.3701 197.312 29.3701C197.738 29.3701 198.159 29.2608 198.54 29.0421C198.921 28.8235 199.224 28.5095 199.448 28.1003C199.672 27.691 199.785 27.2004 199.785 26.6286C199.785 26.0567 199.672 25.5662 199.448 25.1569Z" fill="url(#paint6_linear_339_7089)"/>
<path d="M206.142 18.8413V31.2874H203.788V18.8413H206.142Z" fill="url(#paint7_linear_339_7089)"/>
<path d="M207.95 20.4644C207.676 20.2009 207.538 19.8729 207.538 19.4805C207.538 19.088 207.676 18.76 207.95 18.4965C208.225 18.233 208.57 18.1013 208.985 18.1013C209.4 18.1013 209.744 18.233 210.019 18.4965C210.294 18.76 210.431 19.088 210.431 19.4805C210.431 19.8729 210.294 20.2009 210.019 20.4644C209.744 20.7279 209.4 20.8596 208.985 20.8596C208.57 20.8596 208.225 20.7279 207.95 20.4644ZM210.145 21.9697V31.2875H207.791V21.9697H210.145Z" fill="url(#paint8_linear_339_7089)"/>
<path d="M219.648 22.8863C220.332 23.5871 220.674 24.5654 220.674 25.8213V31.2875H218.319V26.1408C218.319 25.4008 218.134 24.8317 217.764 24.4337C217.394 24.0356 216.89 23.8366 216.25 23.8366C215.611 23.8366 215.087 24.0356 214.712 24.4337C214.336 24.8317 214.148 25.4008 214.148 26.1408V31.2875H211.793V21.9697H214.148V23.1302C214.462 22.7266 214.863 22.4098 215.351 22.1799C215.838 21.9501 216.374 21.8351 216.957 21.8351C218.067 21.8351 218.964 22.1855 219.648 22.8863Z" fill="url(#paint9_linear_339_7089)"/>
<path d="M227.721 22.2304C228.248 22.5051 228.663 22.8611 228.966 23.2984V21.9697H231.337V31.3548C231.337 32.2181 231.164 32.989 230.816 33.6674C230.468 34.3457 229.947 34.884 229.252 35.282C228.557 35.6801 227.716 35.8791 226.729 35.8791C225.406 35.8791 224.321 35.5707 223.475 34.954C222.628 34.3373 222.149 33.4964 222.036 32.4312H224.374C224.498 32.8573 224.764 33.1964 225.173 33.4487C225.582 33.701 226.079 33.8272 226.662 33.8272C227.346 33.8272 227.901 33.6225 228.327 33.2133C228.753 32.804 228.966 32.1845 228.966 31.3548V29.9083C228.663 30.3456 228.246 30.71 227.713 31.0016C227.18 31.2931 226.572 31.4388 225.888 31.4388C225.103 31.4388 224.386 31.237 223.735 30.8334C223.085 30.4297 222.572 29.8607 222.196 29.1262C221.821 28.3918 221.633 27.548 221.633 26.595C221.633 25.6419 221.821 24.8177 222.196 24.0889C222.572 23.3601 223.082 22.7994 223.727 22.407C224.372 22.0146 225.092 21.8183 225.888 21.8183C226.583 21.8183 227.194 21.9557 227.721 22.2304ZM228.63 25.1569C228.405 24.7477 228.103 24.4337 227.721 24.215C227.34 23.9964 226.931 23.8871 226.494 23.8871C226.056 23.8871 225.653 23.9936 225.283 24.2066C224.913 24.4197 224.613 24.7308 224.383 25.1401C224.153 25.5494 224.038 26.0343 224.038 26.595C224.038 27.1556 224.153 27.6461 224.383 28.0666C224.613 28.4871 224.915 28.8095 225.291 29.0337C225.667 29.258 226.067 29.3701 226.494 29.3701C226.92 29.3701 227.34 29.2608 227.721 29.0421C228.103 28.8235 228.405 28.5095 228.63 28.1003C228.854 27.691 228.966 27.2004 228.966 26.6286C228.966 26.0567 228.854 25.5662 228.63 25.1569Z" fill="url(#paint10_linear_339_7089)"/>
</g>
<defs>
<linearGradient id="paint0_linear_339_7089" x1="-166.635" y1="17" x2="252.994" y2="26.2913" gradientUnits="userSpaceOnUse">
<stop offset="0.018124" stop-color="#FBE4FE"/>
<stop offset="0.71805" stop-color="#FFF9F1"/>
</linearGradient>
<linearGradient id="paint1_linear_339_7089" x1="138.664" y1="16.2783" x2="138.276" y2="36.346" gradientUnits="userSpaceOnUse">
<stop stop-color="#FF7F62"/>
<stop offset="1" stop-color="#FF4C24"/>
</linearGradient>
<linearGradient id="paint2_linear_339_7089" x1="138.664" y1="16.2783" x2="138.276" y2="36.346" gradientUnits="userSpaceOnUse">
<stop stop-color="#FF7F62"/>
<stop offset="1" stop-color="#FF4C24"/>
</linearGradient>
<linearGradient id="paint3_linear_339_7089" x1="138.664" y1="16.2783" x2="138.276" y2="36.346" gradientUnits="userSpaceOnUse">
<stop stop-color="#FF7F62"/>
<stop offset="1" stop-color="#FF4C24"/>
</linearGradient>
<linearGradient id="paint4_linear_339_7089" x1="138.664" y1="16.2783" x2="138.276" y2="36.346" gradientUnits="userSpaceOnUse">
<stop stop-color="#FF7F62"/>
<stop offset="1" stop-color="#FF4C24"/>
</linearGradient>
<linearGradient id="paint5_linear_339_7089" x1="138.664" y1="16.2783" x2="138.276" y2="36.346" gradientUnits="userSpaceOnUse">
<stop stop-color="#FF7F62"/>
<stop offset="1" stop-color="#FF4C24"/>
</linearGradient>
<linearGradient id="paint6_linear_339_7089" x1="138.664" y1="16.2783" x2="138.276" y2="36.346" gradientUnits="userSpaceOnUse">
<stop stop-color="#FF7F62"/>
<stop offset="1" stop-color="#FF4C24"/>
</linearGradient>
<linearGradient id="paint7_linear_339_7089" x1="138.664" y1="16.2783" x2="138.276" y2="36.346" gradientUnits="userSpaceOnUse">
<stop stop-color="#FF7F62"/>
<stop offset="1" stop-color="#FF4C24"/>
</linearGradient>
<linearGradient id="paint8_linear_339_7089" x1="138.664" y1="16.2783" x2="138.276" y2="36.346" gradientUnits="userSpaceOnUse">
<stop stop-color="#FF7F62"/>
<stop offset="1" stop-color="#FF4C24"/>
</linearGradient>
<linearGradient id="paint9_linear_339_7089" x1="138.664" y1="16.2783" x2="138.276" y2="36.346" gradientUnits="userSpaceOnUse">
<stop stop-color="#FF7F62"/>
<stop offset="1" stop-color="#FF4C24"/>
</linearGradient>
<linearGradient id="paint10_linear_339_7089" x1="138.664" y1="16.2783" x2="138.276" y2="36.346" gradientUnits="userSpaceOnUse">
<stop stop-color="#FF7F62"/>
<stop offset="1" stop-color="#FF4C24"/>
</linearGradient>
<clipPath id="clip0_339_7089">
<rect width="83.377" height="16" fill="white" transform="translate(22 21)"/>
</clipPath>
<clipPath id="clip1_339_7089">
<rect width="93" height="20" fill="white" transform="translate(138 16)"/>
</clipPath>
</defs>
</svg>
