<svg width="34" height="36" viewBox="0 0 34 36" fill="none" xmlns="http://www.w3.org/2000/svg">
<g id="Group 38463">
<path id="Vector" fill-rule="evenodd" clip-rule="evenodd" d="M21.3074 19.5365C19.9847 19.8346 19 20.9626 19 22.3097C19 23.8808 20.3453 25.1587 22.0009 25.1587C22.8902 25.1587 23.6131 25.8438 23.6131 26.6903C23.6131 27.5367 22.8902 28.2218 22.0009 28.2218C21.1098 28.2218 20.3869 27.5367 20.3869 26.6903C20.3869 26.3263 20.0766 26.0315 19.6934 26.0315C19.3121 26.0315 19 26.3263 19 26.6903C19 28.0357 19.9847 29.1638 21.3074 29.4619V30.3413C21.3074 30.7052 21.6177 31 22.0009 31C22.384 31 22.6943 30.7052 22.6943 30.3413V29.4619C24.0153 29.1638 25 28.0357 25 26.6903C25 25.1175 23.6565 23.8413 22.0009 23.8413C21.1098 23.8413 20.3869 23.1545 20.3869 22.3097C20.3869 21.4633 21.1098 20.7782 22.0009 20.7782C22.8902 20.7782 23.6131 21.4633 23.6131 22.3097C23.6131 22.6737 23.9234 22.9685 24.3066 22.9685C24.6897 22.9685 25 22.6737 25 22.3097C25 20.9626 24.0153 19.8345 22.6943 19.5365V18.6587C22.6943 18.2948 22.384 18 22.0009 18C21.6177 18 21.3074 18.2948 21.3074 18.6587V19.5365Z" fill="#FF6F4F"/>
<path id="Vector_2" d="M7.71028 16.0007V11.4409C7.71028 10.897 8.15084 10.4565 8.69464 10.4565H14.6429V1.73436C14.6429 1.19056 15.0834 0.75 15.6272 0.75H22.5615C23.1031 0.75 23.5459 1.19015 23.5459 1.73436L23.5456 13.0563C29.0249 13.8076 33.25 18.5118 33.25 24.1963C33.25 30.402 28.2125 35.4399 22.0046 35.4399C19.4945 35.4399 17.1745 34.6166 15.3009 33.2221H1.76204C1.21824 33.2221 0.777679 32.7815 0.777679 32.2377V16.9851C0.777679 16.4435 1.21783 16.0007 1.76204 16.0007H7.71028ZM22.005 14.92C16.8848 14.92 12.7283 19.0765 12.7283 24.1967C12.7283 29.3168 16.8847 33.4715 22.005 33.4715C27.1252 33.4715 31.2817 29.3168 31.2817 24.1967C31.2817 19.0766 27.1252 14.92 22.005 14.92ZM10.7597 24.1965C10.7597 20.8054 12.2662 17.7611 14.6426 15.6989V12.425L9.67896 12.4251V31.2535H13.2529C11.6937 29.3241 10.7597 26.8693 10.7597 24.1965ZM7.71024 17.9695H2.74659V31.2534H7.71024V17.9695ZM21.5769 12.9597V2.71877H16.6113V14.3282C18.0955 13.5141 19.7816 13.0264 21.5769 12.9597Z" fill="#FF6F4F" stroke="#FF6F4F" stroke-width="0.5"/>
</g>
</svg>
