<svg width="101" height="100" viewBox="0 0 101 100" fill="none" xmlns="http://www.w3.org/2000/svg">
<rect x="0.5" width="100" height="100" rx="50" fill="#FFFBF6"/>
<path d="M65.6231 43.0613H63.5064C62.2352 37.1758 57.121 32.75 51.0121 32.75C44.9031 32.75 39.789 37.1759 38.512 43.0613H36.3951C34.1007 43.0613 32.25 44.9694 32.25 47.3035V51.7574C32.25 54.0918 34.107 55.9997 36.3951 55.9997H39.3633C40.011 55.9997 40.5219 55.4629 40.5219 54.814V45.9187C40.5219 39.9554 45.2327 35.1151 51.0061 35.1151C56.7794 35.1151 61.4902 39.9554 61.4902 45.9187V53.1173C61.4902 58.6495 57.3752 63.257 52.1501 63.8455C51.6523 62.4579 50.3555 61.4631 48.8253 61.4631C46.8631 61.4631 45.28 63.1041 45.28 65.1066C45.28 67.1091 46.8631 68.75 48.8253 68.75C50.4069 68.75 51.7371 67.6821 52.1981 66.22C57.7483 65.6889 62.2895 61.4694 63.4935 55.9997H65.6231C67.9064 55.9997 69.75 54.0905 69.75 51.7574V47.3035C69.75 44.9705 67.9064 43.0613 65.6231 43.0613ZM38.2046 53.6346H36.3951C35.3932 53.6346 34.5673 52.7971 34.5673 51.7637V47.3098C34.5673 46.2706 35.3927 45.4389 36.3951 45.4389H38.2046V53.6346ZM48.8253 66.3849C48.1525 66.3849 47.5972 65.8238 47.5972 65.1128C47.5972 64.4018 48.1525 63.8408 48.8253 63.8408C49.4962 63.8408 50.0534 64.4185 50.0534 65.1128C50.0534 65.8071 49.4962 66.3849 48.8253 66.3849ZM67.4327 51.7637C67.4327 52.8048 66.6114 53.6346 65.6231 53.6346H63.8135V45.4327H65.6231C66.6165 45.4327 67.4327 46.2677 67.4327 47.3035V51.7574V51.7637Z" fill="#FF6F4F" stroke="#FF6F4F" stroke-width="0.5"/>
</svg>
