<svg width="101" height="100" viewBox="0 0 101 100" fill="none" xmlns="http://www.w3.org/2000/svg">
<rect x="0.333008" width="100" height="100" rx="50" fill="#FFFBF6"/>
<path fill-rule="evenodd" clip-rule="evenodd" d="M57.3074 51.5365C55.9847 51.8346 55 52.9626 55 54.3097C55 55.8808 56.3453 57.1587 58.0009 57.1587C58.8902 57.1587 59.6131 57.8438 59.6131 58.6903C59.6131 59.5367 58.8902 60.2218 58.0009 60.2218C57.1098 60.2218 56.3869 59.5367 56.3869 58.6903C56.3869 58.3263 56.0766 58.0315 55.6934 58.0315C55.3121 58.0315 55 58.3263 55 58.6903C55 60.0357 55.9847 61.1638 57.3074 61.4619V62.3413C57.3074 62.7052 57.6177 63 58.0009 63C58.384 63 58.6943 62.7052 58.6943 62.3413V61.4619C60.0153 61.1638 61 60.0357 61 58.6903C61 57.1175 59.6565 55.8413 58.0009 55.8413C57.1098 55.8413 56.3869 55.1545 56.3869 54.3097C56.3869 53.4633 57.1098 52.7782 58.0009 52.7782C58.8902 52.7782 59.6131 53.4633 59.6131 54.3097C59.6131 54.6737 59.9234 54.9685 60.3066 54.9685C60.6897 54.9685 61 54.6737 61 54.3097C61 52.9626 60.0153 51.8345 58.6943 51.5365V50.6587C58.6943 50.2948 58.384 50 58.0009 50C57.6177 50 57.3074 50.2948 57.3074 50.6587V51.5365Z" fill="#FF6F4F"/>
<path d="M43.7098 48.0007V43.4409C43.7098 42.897 44.1503 42.4565 44.6942 42.4565H50.6424V33.7344C50.6424 33.1906 51.083 32.75 51.6268 32.75H58.561C59.1026 32.75 59.5454 33.1901 59.5454 33.7344L59.5451 45.0563C65.0244 45.8076 69.2495 50.5118 69.2495 56.1963C69.2495 62.402 64.2121 67.4399 58.0041 67.4399C55.494 67.4399 53.174 66.6166 51.3004 65.2221H37.7616C37.2177 65.2221 36.7772 64.7815 36.7772 64.2377V48.9851C36.7772 48.4435 37.2173 48.0007 37.7616 48.0007H43.7098ZM58.0045 46.92C52.8843 46.92 48.7278 51.0765 48.7278 56.1967C48.7278 61.3168 52.8842 65.4715 58.0045 65.4715C63.1247 65.4715 67.2812 61.3168 67.2812 56.1967C67.2812 51.0766 63.1247 46.92 58.0045 46.92ZM46.7592 56.1965C46.7592 52.8054 48.2657 49.7611 50.6421 47.6989V44.425L45.6785 44.4251V63.2535H49.2524C47.6932 61.3241 46.7592 58.8693 46.7592 56.1965ZM43.7097 49.9695H38.7461V63.2534H43.7097V49.9695ZM57.5764 44.9597V34.7188H52.6108V46.3282C54.095 45.5141 55.7811 45.0264 57.5764 44.9597Z" fill="#FF6F4F" stroke="#FF6F4F" stroke-width="0.5"/>
</svg>
