<svg width="100" height="100" viewBox="0 0 100 100" fill="none" xmlns="http://www.w3.org/2000/svg">
<rect width="100" height="100" rx="50" fill="#FFFBF6"/>
<path d="M37.4572 49.0312L34.9487 51.6478L33.8879 50.5495C33.468 50.1141 32.7769 50.1032 32.3417 50.5211C31.9064 50.9411 31.8933 51.6325 32.3132 52.0679L34.1613 53.9866C34.3669 54.201 34.6512 54.3213 34.9487 54.3213C35.2461 54.3213 35.5304 54.1988 35.736 53.9844L39.0319 50.5473C39.4496 50.112 39.4365 49.4184 38.9991 49.0005C38.5639 48.5827 37.8706 48.5958 37.4528 49.0334L37.4572 49.0312Z" fill="#FF6F4F"/>
<path d="M34.1613 41.2907C34.3669 41.5051 34.6512 41.6254 34.9486 41.6254C35.2461 41.6254 35.5304 41.5029 35.736 41.2885L39.0319 37.8514C39.4496 37.416 39.4365 36.7225 38.9991 36.3046C38.5638 35.8867 37.8705 35.8999 37.4528 36.3374L34.9421 38.9541L33.8813 37.8558C33.4614 37.4204 32.7703 37.4095 32.3351 37.8273C31.8999 38.2474 31.8867 38.9388 32.3067 39.3741L34.1547 41.2929L34.1613 41.2907Z" fill="#FF6F4F"/>
<path d="M44.4871 40.1557H66.9067C67.6484 40.1557 68.2502 39.5536 68.2502 38.8118C68.2502 38.07 67.6484 37.4679 66.9067 37.4679H44.4871C43.7453 37.4679 43.1436 38.07 43.1436 38.8118C43.1436 39.5536 43.7453 40.1557 44.4871 40.1557Z" fill="#FF6F4F" stroke="#FF6F4F" stroke-width="0.5"/>
<path d="M66.9067 50.1638H44.4871C43.7453 50.1638 43.1436 50.7659 43.1436 51.5077C43.1436 52.2496 43.7453 52.8516 44.4871 52.8516H66.9067C67.6484 52.8516 68.2502 52.2496 68.2502 51.5077C68.2502 50.7659 67.6484 50.1638 66.9067 50.1638Z" fill="#FF6F4F" stroke="#FF6F4F" stroke-width="0.5"/>
<path d="M66.9067 62.8577H44.4871C43.7453 62.8577 43.1436 63.4598 43.1436 64.2016C43.1436 64.9434 43.7453 65.5455 44.4871 65.5455H66.9067C67.6484 65.5455 68.2502 64.9434 68.2502 64.2016C68.2502 63.4598 67.6484 62.8577 66.9067 62.8577Z" fill="#FF6F4F" stroke="#FF6F4F" stroke-width="0.5"/>
<path d="M36.6263 64.2016C36.6263 65.1949 35.8193 66 34.8285 66C33.8378 66 33.0286 65.1949 33.0286 64.2016C33.0286 63.2083 33.8356 62.4032 34.8285 62.4032C35.8214 62.4032 36.6263 63.2105 36.6263 64.2016Z" fill="#FF6F4F"/>
</svg>
