<svg width="120" height="120" viewBox="0 0 120 120" fill="none" xmlns="http://www.w3.org/2000/svg">
<rect width="120" height="120" rx="23.25" fill="white"/>
<path fill-rule="evenodd" clip-rule="evenodd" d="M57.1059 25.9532C59.8197 23.2611 63.4989 21.75 67.3338 21.75C75.3175 21.75 81.8017 28.1722 81.8017 36.1093C81.8017 39.9199 80.2757 43.573 77.5616 46.2653L76.436 47.382C75.5198 48.2908 76.1634 49.8535 77.4539 49.8535C85.4316 49.8535 91.9265 56.2414 91.9823 64.1723C92.0095 68.0337 90.4751 71.7434 87.7248 74.4718L67.2358 94.7968C64.4969 97.5137 60.776 99.0267 56.9059 98.9996C49.0018 98.9443 42.5962 92.5998 42.5403 84.7421C42.5129 80.8964 44.0409 77.2018 46.78 74.4847C48.11 73.1653 47.1757 70.8968 45.3023 70.8968H40.3003C33.7899 70.8968 28.5 65.6595 28.5 59.1839C28.5 56.0751 29.745 53.0952 31.9587 50.8991L57.1059 25.9532ZM64.9677 70.8968C59.1905 70.8968 53.6474 73.1798 49.5459 77.2485C47.5501 79.2283 46.439 81.9177 46.4589 84.7145C46.4995 90.4259 51.1588 95.0578 56.9334 95.0982C59.7593 95.118 62.4738 94.0131 64.4699 92.033L84.9589 71.7079C86.966 69.7169 88.0835 67.0123 88.0637 64.1996C88.0231 58.4261 83.2915 53.755 77.4539 53.755L53.9555 53.755C52.645 53.755 51.5948 54.807 51.5948 56.0897C51.5948 57.3724 52.645 58.4244 53.9555 58.4244H70.3858C73.8471 58.4244 76.6652 61.2097 76.6652 64.6606C76.6652 68.1115 73.8471 70.8968 70.3858 70.8968H64.9677ZM59.3732 49.8535C65.1507 49.8535 70.6941 47.5703 74.7958 43.5015C76.7734 41.5397 77.883 38.8805 77.883 36.1093C77.883 30.3403 73.1667 25.6515 67.3338 25.6515C64.5336 25.6515 61.8496 26.755 59.8718 28.717L34.7246 53.6629C33.2473 55.1284 32.4187 57.1145 32.4187 59.1839C32.4187 63.4913 35.9407 66.9953 40.3003 66.9953H70.3858C71.6963 66.9953 72.7465 65.9433 72.7465 64.6606C72.7465 63.3779 71.6963 62.3259 70.3858 62.3259H53.9555C50.4943 62.3259 47.6761 59.5406 47.6762 56.0897C47.6761 52.6388 50.4943 49.8535 53.9555 49.8535H59.3732Z" fill="url(#paint0_linear_2928_7327)"/>
<defs>
<linearGradient id="paint0_linear_2928_7327" x1="28.5" y1="60.375" x2="91.9827" y2="60.375" gradientUnits="userSpaceOnUse">
<stop stop-color="#FF7F63"/>
<stop offset="1" stop-color="#FF512A"/>
<stop offset="1" stop-color="#99938A"/>
</linearGradient>
</defs>
</svg>
