<svg width="380" height="228" viewBox="0 0 380 228" fill="none" xmlns="http://www.w3.org/2000/svg">
<g clip-path="url(#clip0_7951_15998)">
<g clip-path="url(#clip1_7951_15998)">
<g opacity="0.3">
<g opacity="0.8" filter="url(#filter0_f_7951_15998)">
<ellipse cx="539.083" cy="267.985" rx="133.14" ry="133.899" fill="#FFEEE6"/>
</g>
<g opacity="0.3" filter="url(#filter1_f_7951_15998)">
<ellipse cx="394.755" cy="240.42" rx="253.954" ry="258.52" fill="#E7ACD4"/>
</g>
</g>
<path fill-rule="evenodd" clip-rule="evenodd" d="M105.263 108.688C106.692 107.264 108.63 106.465 110.649 106.465C114.853 106.465 118.268 109.862 118.268 114.06C118.268 116.075 117.465 118.008 116.035 119.432L114.13 121.329H115.979C120.18 121.329 123.6 124.708 123.629 128.903C123.644 130.945 122.836 132.907 121.387 134.351L110.598 145.101C109.155 146.538 107.196 147.338 105.158 147.324C100.996 147.295 97.6223 143.939 97.5929 139.783C97.5785 137.749 98.3831 135.795 99.8255 134.357L101.73 132.46H96.4133C92.9849 132.46 90.1992 129.69 90.1992 126.264C90.1992 124.62 90.8548 123.044 92.0206 121.882L105.263 108.688ZM104.654 132.46L101.282 135.819C100.231 136.866 99.646 138.289 99.6564 139.768C99.6778 142.789 102.131 145.239 105.172 145.26C106.66 145.271 108.09 144.686 109.141 143.639L119.931 132.889C120.988 131.836 121.576 130.405 121.566 128.917C121.544 125.864 119.053 123.393 115.979 123.393L103.604 123.393C102.914 123.393 102.361 123.949 102.361 124.628C102.361 125.306 102.914 125.863 103.604 125.863H112.256C114.079 125.863 115.563 127.336 115.563 129.161C115.563 130.986 114.079 132.46 112.256 132.46L104.654 132.46ZM111.207 121.329L114.579 117.97C115.62 116.932 116.205 115.526 116.205 114.06C116.205 111.008 113.721 108.528 110.649 108.528C109.175 108.528 107.761 109.112 106.72 110.15L93.4771 123.344C92.6992 124.119 92.2628 125.17 92.2628 126.264C92.2628 128.543 94.1175 130.396 96.4133 130.396H112.256C112.947 130.396 113.5 129.84 113.5 129.161C113.5 128.483 112.947 127.926 112.256 127.926H103.604C101.781 127.926 100.297 126.453 100.297 124.628C100.297 122.803 101.781 121.329 103.604 121.329H111.207Z" fill="url(#paint0_linear_7951_15998)"/>
<path d="M136.684 138.285C135.265 137.679 134.142 136.805 133.318 135.665C132.493 134.525 132.068 133.178 132.044 131.625H137.503C137.575 132.669 137.945 133.493 138.613 134.1C139.28 134.707 140.196 135.01 141.36 135.01C142.525 135.01 143.483 134.725 144.162 134.155C144.842 133.584 145.181 132.838 145.181 131.917C145.181 131.164 144.951 130.546 144.49 130.061C144.029 129.575 143.453 129.193 142.761 128.914C142.07 128.635 141.117 128.326 139.904 127.986C138.255 127.501 136.914 127.022 135.883 126.549C134.852 126.076 133.967 125.36 133.227 124.402C132.487 123.443 132.117 122.164 132.117 120.562C132.117 119.058 132.493 117.748 133.245 116.632C133.997 115.516 135.052 114.661 136.411 114.067C137.769 113.472 139.322 113.175 141.069 113.175C143.689 113.175 145.818 113.812 147.456 115.085C149.093 116.359 149.997 118.136 150.167 120.417H144.563C144.514 119.543 144.144 118.822 143.453 118.252C142.761 117.681 141.845 117.396 140.705 117.396C139.71 117.396 138.916 117.651 138.321 118.161C137.727 118.67 137.43 119.41 137.43 120.38C137.43 121.06 137.654 121.624 138.103 122.073C138.552 122.521 139.11 122.885 139.777 123.164C140.444 123.443 141.384 123.765 142.597 124.129C144.247 124.614 145.594 125.099 146.637 125.584C147.68 126.07 148.578 126.797 149.33 127.768C150.082 128.738 150.458 130.012 150.458 131.589C150.458 132.948 150.106 134.209 149.403 135.374C148.699 136.538 147.668 137.466 146.309 138.158C144.951 138.849 143.337 139.195 141.469 139.195C139.698 139.195 138.103 138.892 136.684 138.285Z" fill="url(#paint1_linear_7951_15998)"/>
<path d="M153.752 115.522C153.158 114.952 152.86 114.242 152.86 113.393C152.86 112.544 153.158 111.835 153.752 111.264C154.346 110.694 155.092 110.409 155.99 110.409C156.888 110.409 157.634 110.694 158.228 111.264C158.823 111.835 159.12 112.544 159.12 113.393C159.12 114.242 158.823 114.952 158.228 115.522C157.634 116.092 156.888 116.377 155.99 116.377C155.092 116.377 154.346 116.092 153.752 115.522ZM158.501 118.779V138.94H153.406V118.779H158.501Z" fill="url(#paint2_linear_7951_15998)"/>
<path d="M173.931 119.343C175.071 119.938 175.969 120.708 176.624 121.654V118.779H181.755V139.086C181.755 140.954 181.379 142.622 180.627 144.09C179.875 145.557 178.747 146.722 177.243 147.583C175.738 148.444 173.919 148.875 171.784 148.875C168.921 148.875 166.574 148.208 164.742 146.873C162.91 145.539 161.873 143.72 161.631 141.415H166.689C166.956 142.337 167.532 143.071 168.418 143.616C169.303 144.162 170.377 144.435 171.638 144.435C173.118 144.435 174.319 143.993 175.241 143.107C176.163 142.221 176.624 140.881 176.624 139.086V135.956C175.969 136.902 175.065 137.691 173.913 138.322C172.76 138.952 171.444 139.268 169.964 139.268C168.266 139.268 166.713 138.831 165.306 137.958C163.899 137.084 162.789 135.853 161.976 134.264C161.164 132.675 160.757 130.849 160.757 128.787C160.757 126.725 161.164 124.942 161.976 123.365C162.789 121.788 163.893 120.575 165.288 119.725C166.683 118.876 168.242 118.452 169.964 118.452C171.468 118.452 172.791 118.749 173.931 119.343ZM175.896 125.675C175.411 124.79 174.756 124.111 173.931 123.638C173.106 123.164 172.22 122.928 171.274 122.928C170.328 122.928 169.455 123.158 168.654 123.619C167.853 124.08 167.205 124.754 166.707 125.639C166.21 126.525 165.961 127.574 165.961 128.787C165.961 130 166.21 131.061 166.707 131.971C167.205 132.881 167.86 133.578 168.672 134.064C169.485 134.549 170.352 134.792 171.274 134.792C172.196 134.792 173.106 134.555 173.931 134.082C174.756 133.609 175.411 132.929 175.896 132.044C176.381 131.158 176.624 130.097 176.624 128.86C176.624 127.622 176.381 126.561 175.896 125.675Z" fill="url(#paint3_linear_7951_15998)"/>
<path d="M202.28 120.763C203.76 122.279 204.5 124.396 204.5 127.113V138.94H199.405V127.804C199.405 126.203 199.005 124.972 198.204 124.111C197.404 123.249 196.312 122.819 194.929 122.819C193.546 122.819 192.412 123.249 191.599 124.111C190.787 124.972 190.38 126.203 190.38 127.804V138.94H185.285V118.779H190.38V121.29C191.06 120.417 191.927 119.732 192.982 119.234C194.038 118.737 195.196 118.488 196.458 118.488C198.859 118.488 200.8 119.246 202.28 120.763Z" fill="url(#paint4_linear_7951_15998)"/>
<path d="M207.793 123.365C208.606 121.788 209.71 120.575 211.105 119.725C212.5 118.876 214.058 118.452 215.781 118.452C217.285 118.452 218.601 118.755 219.729 119.362C220.857 119.968 221.761 120.732 222.44 121.654V118.779H227.572V138.94H222.44V135.992C221.785 136.939 220.882 137.721 219.729 138.34C218.577 138.958 217.249 139.268 215.744 139.268C214.046 139.268 212.5 138.831 211.105 137.958C209.71 137.084 208.606 135.853 207.793 134.264C206.98 132.675 206.574 130.849 206.574 128.787C206.574 126.725 206.98 124.942 207.793 123.365ZM221.713 125.675C221.227 124.79 220.572 124.111 219.747 123.638C218.923 123.164 218.037 122.928 217.091 122.928C216.145 122.928 215.271 123.158 214.471 123.619C213.67 124.08 213.021 124.754 212.524 125.639C212.026 126.525 211.778 127.574 211.778 128.787C211.778 130 212.026 131.061 212.524 131.971C213.021 132.881 213.676 133.578 214.489 134.064C215.302 134.549 216.169 134.792 217.091 134.792C218.013 134.792 218.923 134.555 219.747 134.082C220.572 133.609 221.227 132.929 221.713 132.044C222.198 131.158 222.44 130.097 222.44 128.86C222.44 127.622 222.198 126.561 221.713 125.675Z" fill="url(#paint5_linear_7951_15998)"/>
<path d="M236.197 112.01V138.94H231.102V112.01H236.197Z" fill="url(#paint6_linear_7951_15998)"/>
<path d="M240.109 115.522C239.514 114.952 239.217 114.242 239.217 113.393C239.217 112.544 239.514 111.835 240.109 111.264C240.703 110.694 241.449 110.409 242.347 110.409C243.244 110.409 243.99 110.694 244.585 111.264C245.179 111.835 245.476 112.544 245.476 113.393C245.476 114.242 245.179 114.952 244.585 115.522C243.99 116.092 243.244 116.377 242.347 116.377C241.449 116.377 240.703 116.092 240.109 115.522ZM244.858 118.779V138.94H239.763V118.779H244.858Z" fill="url(#paint7_linear_7951_15998)"/>
<path d="M265.419 120.763C266.899 122.279 267.639 124.396 267.639 127.113V138.94H262.544V127.804C262.544 126.203 262.143 124.972 261.343 124.111C260.542 123.249 259.45 122.819 258.068 122.819C256.685 122.819 255.551 123.249 254.738 124.111C253.925 124.972 253.519 126.203 253.519 127.804V138.94H248.424V118.779H253.519V121.29C254.198 120.417 255.065 119.732 256.121 119.234C257.176 118.737 258.334 118.488 259.596 118.488C261.998 118.488 263.939 119.246 265.419 120.763Z" fill="url(#paint8_linear_7951_15998)"/>
<path d="M282.887 119.343C284.027 119.938 284.925 120.708 285.58 121.654V118.779H290.711V139.086C290.711 140.954 290.335 142.622 289.583 144.09C288.831 145.557 287.703 146.722 286.199 147.583C284.695 148.444 282.875 148.875 280.74 148.875C277.877 148.875 275.53 148.208 273.698 146.873C271.867 145.539 270.829 143.72 270.587 141.415H275.645C275.912 142.337 276.488 143.071 277.374 143.616C278.259 144.162 279.333 144.435 280.594 144.435C282.074 144.435 283.275 143.993 284.197 143.107C285.119 142.221 285.58 140.881 285.58 139.086V135.956C284.925 136.902 284.021 137.691 282.869 138.322C281.717 138.952 280.4 139.268 278.92 139.268C277.222 139.268 275.669 138.831 274.262 137.958C272.855 137.084 271.745 135.853 270.933 134.264C270.12 132.675 269.713 130.849 269.713 128.787C269.713 126.725 270.12 124.942 270.933 123.365C271.745 121.788 272.849 120.575 274.244 119.725C275.639 118.876 277.198 118.452 278.92 118.452C280.425 118.452 281.747 118.749 282.887 119.343ZM284.852 125.675C284.367 124.79 283.712 124.111 282.887 123.638C282.062 123.164 281.177 122.928 280.231 122.928C279.284 122.928 278.411 123.158 277.61 123.619C276.81 124.08 276.161 124.754 275.663 125.639C275.166 126.525 274.917 127.574 274.917 128.787C274.917 130 275.166 131.061 275.663 131.971C276.161 132.881 276.816 133.578 277.629 134.064C278.441 134.549 279.309 134.792 280.231 134.792C281.152 134.792 282.062 134.555 282.887 134.082C283.712 133.609 284.367 132.929 284.852 132.044C285.337 131.158 285.58 130.097 285.58 128.86C285.58 127.622 285.337 126.561 284.852 125.675Z" fill="url(#paint9_linear_7951_15998)"/>
<g opacity="0.3">
<g opacity="0.8" filter="url(#filter2_f_7951_15998)">
<ellipse cx="332.683" cy="330.269" rx="133.14" ry="133.899" fill="#FFEEE6"/>
</g>
<g opacity="0.3" filter="url(#filter3_f_7951_15998)">
<ellipse cx="60" cy="99.9004" rx="240" ry="230" fill="#FFD5BA"/>
</g>
</g>
<g filter="url(#filter4_dd_7951_15998)">
<rect x="32" y="30.2324" width="316.531" height="207.612" rx="8.66216" fill="white"/>
<rect x="32.2707" y="30.5031" width="315.99" height="207.071" rx="8.39147" stroke="#F9F9F9" stroke-width="0.541385"/>
<g clip-path="url(#clip2_7951_15998)">
<path fill-rule="evenodd" clip-rule="evenodd" d="M52.4 46.0334C52.725 45.7096 53.1655 45.5278 53.6247 45.5278C54.5808 45.5278 55.3572 46.3002 55.3572 47.2548C55.3572 47.7132 55.1745 48.1525 54.8495 48.4763L54.4164 48.9079H54.8366C55.7919 48.9079 56.5696 49.6762 56.5763 50.63C56.5795 51.0945 56.3958 51.5406 56.0665 51.8688L53.613 54.3133C53.285 54.6401 52.8395 54.8221 52.3761 54.8188C51.4296 54.8121 50.6626 54.0491 50.6559 53.104C50.6526 52.6415 50.8356 52.1971 51.1635 51.8703L51.5966 51.4388H50.3876C49.608 51.4388 48.9746 50.8089 48.9746 50.0301C48.9746 49.6562 49.1237 49.2978 49.3888 49.0337L52.4 46.0334ZM52.2615 51.4388L51.4947 52.2027C51.2558 52.4409 51.1227 52.7643 51.1251 53.1007C51.13 53.7876 51.6879 54.3447 52.3794 54.3496C52.7177 54.3519 53.0428 54.2191 53.2818 53.9809L55.7353 51.5364C55.9756 51.2969 56.1094 50.9716 56.107 50.6333C56.1022 49.9389 55.5356 49.3771 54.8366 49.3771L52.0228 49.3771C51.8658 49.3771 51.7401 49.5037 51.7401 49.6579C51.7401 49.8122 51.8658 49.9387 52.0228 49.9387H53.9902C54.4047 49.9387 54.7421 50.2737 54.7421 50.6888C54.7421 51.1038 54.4047 51.4388 53.9902 51.4388L52.2615 51.4388ZM53.7515 48.9079L54.5183 48.1439C54.7551 47.908 54.888 47.5882 54.888 47.2548C54.888 46.561 54.3232 45.9971 53.6247 45.9971C53.2894 45.9971 52.968 46.1298 52.7312 46.3658L49.72 49.3661C49.5431 49.5423 49.4439 49.7812 49.4439 50.0301C49.4439 50.5481 49.8656 50.9696 50.3876 50.9696H53.9902C54.1471 50.9696 54.2729 50.8431 54.2729 50.6888C54.2729 50.5345 54.1471 50.408 53.9902 50.408H52.0228C51.6083 50.408 51.2709 50.073 51.2709 49.6579C51.2709 49.2429 51.6083 48.9079 52.0228 48.9079H53.7515Z" fill="url(#paint10_linear_7951_15998)"/>
<path d="M59.5448 52.7634C59.222 52.6255 58.9669 52.4269 58.7793 52.1676C58.5917 51.9083 58.4952 51.6022 58.4897 51.2491H59.7309C59.7475 51.4863 59.8316 51.6739 59.9833 51.8118C60.135 51.9497 60.3433 52.0187 60.6081 52.0187C60.8729 52.0187 61.0908 51.9539 61.2453 51.8242C61.3997 51.6946 61.477 51.5249 61.477 51.3153C61.477 51.1443 61.4246 51.0036 61.3198 50.8933C61.2149 50.7829 61.0839 50.6961 60.9267 50.6326C60.7695 50.5692 60.5529 50.4988 60.2771 50.4216C59.902 50.3113 59.5972 50.2023 59.3627 50.0947C59.1282 49.9872 58.9269 49.8244 58.7586 49.6065C58.5904 49.3886 58.5062 49.0976 58.5062 48.7335C58.5062 48.3914 58.5917 48.0935 58.7628 47.8398C58.9338 47.586 59.1738 47.3915 59.4827 47.2564C59.7916 47.1212 60.1447 47.0536 60.5419 47.0536C61.1377 47.0536 61.6218 47.1985 61.9942 47.4881C62.3666 47.7777 62.5721 48.1818 62.6107 48.7004H61.3363C61.3253 48.5018 61.2411 48.3377 61.0839 48.208C60.9267 48.0784 60.7184 48.0135 60.4591 48.0135C60.233 48.0135 60.0523 48.0715 59.9171 48.1873C59.782 48.3032 59.7144 48.4714 59.7144 48.6921C59.7144 48.8466 59.7654 48.9748 59.8675 49.0769C59.9695 49.179 60.0964 49.2617 60.2481 49.3251C60.3998 49.3886 60.6136 49.4617 60.8895 49.5444C61.2646 49.6548 61.5708 49.7651 61.808 49.8754C62.0452 49.9858 62.2493 50.1513 62.4203 50.3719C62.5914 50.5926 62.6769 50.8822 62.6769 51.2408C62.6769 51.5498 62.5969 51.8366 62.4369 52.1014C62.2769 52.3662 62.0424 52.5772 61.7335 52.7345C61.4246 52.8917 61.0577 52.9703 60.6329 52.9703C60.2302 52.9703 59.8675 52.9014 59.5448 52.7634Z" fill="url(#paint11_linear_7951_15998)"/>
<path d="M63.4259 47.5874C63.2908 47.4577 63.2232 47.2964 63.2232 47.1033C63.2232 46.9102 63.2908 46.7488 63.4259 46.6192C63.5611 46.4896 63.7307 46.4247 63.9348 46.4247C64.1389 46.4247 64.3086 46.4896 64.4437 46.6192C64.5789 46.7488 64.6465 46.9102 64.6465 47.1033C64.6465 47.2964 64.5789 47.4577 64.4437 47.5874C64.3086 47.717 64.1389 47.7819 63.9348 47.7819C63.7307 47.7819 63.5611 47.717 63.4259 47.5874ZM64.5058 48.328V52.9124H63.3473V48.328H64.5058Z" fill="url(#paint12_linear_7951_15998)"/>
<path d="M68.0144 48.4563C68.2737 48.5914 68.4778 48.7666 68.6267 48.9817V48.328H69.7935V52.9455C69.7935 53.3703 69.708 53.7496 69.537 54.0833C69.366 54.4171 69.1094 54.6819 68.7674 54.8777C68.4254 55.0736 68.0116 55.1715 67.5262 55.1715C66.8752 55.1715 66.3414 55.0198 65.9249 54.7164C65.5084 54.413 65.2726 53.9992 65.2174 53.4751H66.3676C66.4283 53.6847 66.5594 53.8516 66.7607 53.9758C66.9621 54.0999 67.2062 54.1619 67.4931 54.1619C67.8296 54.1619 68.1026 54.0613 68.3123 53.8599C68.5219 53.6585 68.6267 53.3537 68.6267 52.9455V52.2338C68.4778 52.449 68.2723 52.6283 68.0102 52.7717C67.7482 52.9152 67.4489 52.9869 67.1124 52.9869C66.7262 52.9869 66.3732 52.8876 66.0532 52.689C65.7332 52.4904 65.4808 52.2104 65.296 51.8491C65.1112 51.4877 65.0188 51.0726 65.0188 50.6037C65.0188 50.1347 65.1112 49.7293 65.296 49.3707C65.4808 49.0121 65.7318 48.7363 66.0491 48.5432C66.3663 48.3501 66.7207 48.2535 67.1124 48.2535C67.4544 48.2535 67.7551 48.3211 68.0144 48.4563ZM68.4612 49.8961C68.3509 49.6948 68.202 49.5403 68.0144 49.4327C67.8268 49.3252 67.6255 49.2714 67.4103 49.2714C67.1952 49.2714 66.9965 49.3238 66.8145 49.4286C66.6324 49.5334 66.4849 49.6865 66.3718 49.8879C66.2587 50.0892 66.2021 50.3278 66.2021 50.6037C66.2021 50.8795 66.2587 51.1209 66.3718 51.3277C66.4849 51.5346 66.6338 51.6932 66.8186 51.8035C67.0034 51.9139 67.2007 51.969 67.4103 51.969C67.6199 51.969 67.8268 51.9153 68.0144 51.8077C68.202 51.7001 68.3509 51.5456 68.4612 51.3443C68.5716 51.1429 68.6267 50.9016 68.6267 50.6202C68.6267 50.3389 68.5716 50.0975 68.4612 49.8961Z" fill="url(#paint13_linear_7951_15998)"/>
<path d="M74.4608 48.779C74.7973 49.1238 74.9655 49.6051 74.9655 50.223V52.9124H73.807V50.3802C73.807 50.0161 73.716 49.7362 73.534 49.5403C73.3519 49.3445 73.1036 49.2465 72.7892 49.2465C72.4747 49.2465 72.2168 49.3445 72.032 49.5403C71.8472 49.7362 71.7548 50.0161 71.7548 50.3802V52.9124H70.5963V48.328H71.7548V48.899C71.9093 48.7004 72.1065 48.5445 72.3465 48.4315C72.5865 48.3184 72.8499 48.2618 73.1367 48.2618C73.6829 48.2618 74.1242 48.4342 74.4608 48.779Z" fill="url(#paint14_linear_7951_15998)"/>
<path d="M75.7143 49.3707C75.8991 49.0121 76.1501 48.7363 76.4673 48.5432C76.7845 48.3501 77.139 48.2535 77.5307 48.2535C77.8727 48.2535 78.172 48.3225 78.4285 48.4604C78.685 48.5983 78.8905 48.7721 79.045 48.9817V48.328H80.2118V52.9124H79.045V52.2421C78.896 52.4573 78.6905 52.6352 78.4285 52.7759C78.1665 52.9165 77.8644 52.9869 77.5224 52.9869C77.1362 52.9869 76.7845 52.8876 76.4673 52.689C76.1501 52.4904 75.8991 52.2104 75.7143 51.8491C75.5295 51.4877 75.4371 51.0726 75.4371 50.6037C75.4371 50.1347 75.5295 49.7293 75.7143 49.3707ZM78.8795 49.8961C78.7692 49.6948 78.6202 49.5403 78.4326 49.4327C78.2451 49.3252 78.0437 49.2714 77.8286 49.2714C77.6134 49.2714 77.4148 49.3238 77.2328 49.4286C77.0507 49.5334 76.9031 49.6865 76.79 49.8879C76.677 50.0892 76.6204 50.3278 76.6204 50.6037C76.6204 50.8795 76.677 51.1209 76.79 51.3277C76.9031 51.5346 77.0521 51.6932 77.2369 51.8035C77.4217 51.9139 77.6189 51.969 77.8286 51.969C78.0382 51.969 78.2451 51.9153 78.4326 51.8077C78.6202 51.7001 78.7692 51.5456 78.8795 51.3443C78.9898 51.1429 79.045 50.9016 79.045 50.6202C79.045 50.3389 78.9898 50.0975 78.8795 49.8961Z" fill="url(#paint15_linear_7951_15998)"/>
<path d="M82.1731 46.7888V52.9124H81.0146V46.7888H82.1731Z" fill="url(#paint16_linear_7951_15998)"/>
<path d="M83.0626 47.5874C82.9274 47.4577 82.8598 47.2964 82.8598 47.1033C82.8598 46.9102 82.9274 46.7488 83.0626 46.6192C83.1977 46.4896 83.3674 46.4247 83.5715 46.4247C83.7756 46.4247 83.9453 46.4896 84.0804 46.6192C84.2156 46.7488 84.2832 46.9102 84.2832 47.1033C84.2832 47.2964 84.2156 47.4577 84.0804 47.5874C83.9453 47.717 83.7756 47.7819 83.5715 47.7819C83.3674 47.7819 83.1977 47.717 83.0626 47.5874ZM84.1425 48.328V52.9124H82.984V48.328H84.1425Z" fill="url(#paint17_linear_7951_15998)"/>
<path d="M88.8178 48.779C89.1544 49.1238 89.3226 49.6051 89.3226 50.223V52.9124H88.1641V50.3802C88.1641 50.0161 88.0731 49.7362 87.891 49.5403C87.709 49.3445 87.4607 49.2465 87.1463 49.2465C86.8318 49.2465 86.5739 49.3445 86.3891 49.5403C86.2043 49.7362 86.1119 50.0161 86.1119 50.3802V52.9124H84.9534V48.328H86.1119V48.899C86.2663 48.7004 86.4636 48.5445 86.7036 48.4315C86.9435 48.3184 87.207 48.2618 87.4938 48.2618C88.04 48.2618 88.4813 48.4342 88.8178 48.779Z" fill="url(#paint18_linear_7951_15998)"/>
<path d="M92.79 48.4563C93.0493 48.5914 93.2534 48.7666 93.4023 48.9817V48.328H94.5691V52.9455C94.5691 53.3703 94.4836 53.7496 94.3126 54.0833C94.1416 54.4171 93.8851 54.6819 93.543 54.8777C93.201 55.0736 92.7872 55.1715 92.3018 55.1715C91.6508 55.1715 91.117 55.0198 90.7005 54.7164C90.284 54.413 90.0482 53.9992 89.993 53.4751H91.1432C91.2039 53.6847 91.335 53.8516 91.5363 53.9758C91.7377 54.0999 91.9818 54.1619 92.2687 54.1619C92.6052 54.1619 92.8783 54.0613 93.0879 53.8599C93.2975 53.6585 93.4023 53.3537 93.4023 52.9455V52.2338C93.2534 52.449 93.0479 52.6283 92.7858 52.7717C92.5238 52.9152 92.2245 52.9869 91.888 52.9869C91.5018 52.9869 91.1488 52.8876 90.8288 52.689C90.5088 52.4904 90.2564 52.2104 90.0716 51.8491C89.8868 51.4877 89.7944 51.0726 89.7944 50.6037C89.7944 50.1347 89.8868 49.7293 90.0716 49.3707C90.2564 49.0121 90.5074 48.7363 90.8247 48.5432C91.1419 48.3501 91.4963 48.2535 91.888 48.2535C92.23 48.2535 92.5307 48.3211 92.79 48.4563ZM93.2368 49.8961C93.1265 49.6948 92.9776 49.5403 92.79 49.4327C92.6024 49.3252 92.4011 49.2714 92.1859 49.2714C91.9708 49.2714 91.7721 49.3238 91.5901 49.4286C91.408 49.5334 91.2605 49.6865 91.1474 49.8879C91.0343 50.0892 90.9777 50.3278 90.9777 50.6037C90.9777 50.8795 91.0343 51.1209 91.1474 51.3277C91.2605 51.5346 91.4094 51.6932 91.5942 51.8035C91.779 51.9139 91.9763 51.969 92.1859 51.969C92.3955 51.969 92.6024 51.9153 92.79 51.8077C92.9776 51.7001 93.1265 51.5456 93.2368 51.3443C93.3472 51.1429 93.4023 50.9016 93.4023 50.6202C93.4023 50.3389 93.3472 50.0975 93.2368 49.8961Z" fill="url(#paint19_linear_7951_15998)"/>
</g>
<path d="M52.6274 75.634C52.6274 76.2279 52.5162 76.7366 52.2937 77.1601C52.073 77.5818 51.7715 77.9048 51.3893 78.1291C51.0089 78.3534 50.5774 78.4655 50.0947 78.4655C49.612 78.4655 49.1796 78.3534 48.7974 78.1291C48.4169 77.903 48.1155 77.5791 47.893 77.1574C47.6723 76.7339 47.5619 76.2261 47.5619 75.634C47.5619 75.0401 47.6723 74.5323 47.893 74.1106C48.1155 73.6871 48.4169 73.3632 48.7974 73.1389C49.1796 72.9146 49.612 72.8025 50.0947 72.8025C50.5774 72.8025 51.0089 72.9146 51.3893 73.1389C51.7715 73.3632 52.073 73.6871 52.2937 74.1106C52.5162 74.5323 52.6274 75.0401 52.6274 75.634ZM51.6235 75.634C51.6235 75.2159 51.558 74.8633 51.427 74.5762C51.2978 74.2873 51.1184 74.0693 50.8887 73.9222C50.659 73.7732 50.3943 73.6988 50.0947 73.6988C49.795 73.6988 49.5304 73.7732 49.3007 73.9222C49.071 74.0693 48.8907 74.2873 48.7597 74.5762C48.6305 74.8633 48.5659 75.2159 48.5659 75.634C48.5659 76.0521 48.6305 76.4056 48.7597 76.6945C48.8907 76.9816 49.071 77.1996 49.3007 77.3485C49.5304 77.4956 49.795 77.5692 50.0947 77.5692C50.3943 77.5692 50.659 77.4956 50.8887 77.3485C51.1184 77.1996 51.2978 76.9816 51.427 76.6945C51.558 76.4056 51.6235 76.0521 51.6235 75.634ZM54.2321 75.9677V78.3901H53.2577V74.2559H54.189V74.9584H54.2374C54.3325 74.7269 54.4842 74.543 54.6923 74.4067C54.9023 74.2703 55.1615 74.2021 55.4702 74.2021C55.7555 74.2021 56.004 74.2631 56.2157 74.3851C56.4293 74.5071 56.5943 74.6839 56.711 74.9154C56.8294 75.1468 56.8877 75.4276 56.8859 75.7578V78.3901H55.9116V75.9085C55.9116 75.6322 55.8398 75.416 55.6963 75.2599C55.5545 75.1038 55.358 75.0257 55.1068 75.0257C54.9364 75.0257 54.7847 75.0634 54.6519 75.1388C54.521 75.2123 54.4178 75.3191 54.3424 75.459C54.2688 75.599 54.2321 75.7686 54.2321 75.9677ZM58.5801 72.8779V78.3901H57.6057V72.8779H58.5801ZM59.9169 79.9405C59.7841 79.9405 59.6612 79.9297 59.5482 79.9082C59.4369 79.8884 59.3481 79.8651 59.2817 79.8382L59.5078 79.0792C59.6495 79.1204 59.776 79.1402 59.8873 79.1384C59.9985 79.1366 60.0963 79.1016 60.1807 79.0334C60.2668 78.967 60.3395 78.8558 60.3987 78.6997L60.4821 78.4763L58.9829 74.2559H60.0165L60.9693 77.3781H61.0124L61.9678 74.2559H63.0041L61.3488 78.8908C61.2716 79.1097 61.1694 79.2972 61.042 79.4533C60.9146 79.6112 60.7584 79.7314 60.5736 79.814C60.3906 79.8983 60.1717 79.9405 59.9169 79.9405ZM65.2081 78.3901L67.5524 73.7499V73.7122H64.8313V72.8779H68.586V73.7311L66.2443 78.3901H65.2081ZM70.8041 78.3901V74.2559H71.7354V74.9584H71.7838C71.8699 74.7216 72.0126 74.5367 72.2118 74.404C72.4109 74.2694 72.6487 74.2021 72.925 74.2021C73.205 74.2021 73.4409 74.2703 73.6329 74.4067C73.8267 74.5412 73.9631 74.7252 74.042 74.9584H74.0851C74.1766 74.7287 74.3309 74.5457 74.548 74.4093C74.7669 74.2712 75.0262 74.2021 75.3259 74.2021C75.7063 74.2021 76.0167 74.3223 76.2572 74.5628C76.4976 74.8032 76.6178 75.154 76.6178 75.6152V78.3901H75.6408V75.7659C75.6408 75.5093 75.5726 75.3218 75.4362 75.2033C75.2999 75.0831 75.133 75.023 74.9356 75.023C74.7006 75.023 74.5166 75.0966 74.3838 75.2437C74.2529 75.3891 74.1874 75.5784 74.1874 75.8116V78.3901H73.2319V75.7255C73.2319 75.512 73.1673 75.3415 73.0381 75.2141C72.9107 75.0867 72.7438 75.023 72.5374 75.023C72.3975 75.023 72.2701 75.0589 72.1552 75.1307C72.0404 75.2007 71.9489 75.3002 71.8807 75.4294C71.8125 75.5568 71.7784 75.7058 71.7784 75.8762V78.3901H70.8041ZM79.1389 78.4709C78.7352 78.4709 78.3853 78.3821 78.0892 78.2044C77.7932 78.0268 77.5635 77.7783 77.4002 77.4589C77.2387 77.1395 77.158 76.7662 77.158 76.3392C77.158 75.9121 77.2387 75.538 77.4002 75.2168C77.5635 74.8956 77.7932 74.6462 78.0892 74.4686C78.3853 74.2909 78.7352 74.2021 79.1389 74.2021C79.5427 74.2021 79.8926 74.2909 80.1886 74.4686C80.4847 74.6462 80.7135 74.8956 80.875 75.2168C81.0383 75.538 81.1199 75.9121 81.1199 76.3392C81.1199 76.7662 81.0383 77.1395 80.875 77.4589C80.7135 77.7783 80.4847 78.0268 80.1886 78.2044C79.8926 78.3821 79.5427 78.4709 79.1389 78.4709ZM79.1443 77.6903C79.3632 77.6903 79.5463 77.6302 79.6934 77.51C79.8405 77.388 79.95 77.2247 80.0218 77.0201C80.0953 76.8156 80.1321 76.5877 80.1321 76.3365C80.1321 76.0835 80.0953 75.8547 80.0218 75.6501C79.95 75.4438 79.8405 75.2796 79.6934 75.1576C79.5463 75.0356 79.3632 74.9746 79.1443 74.9746C78.92 74.9746 78.7334 75.0356 78.5845 75.1576C78.4373 75.2796 78.327 75.4438 78.2534 75.6501C78.1816 75.8547 78.1458 76.0835 78.1458 76.3365C78.1458 76.5877 78.1816 76.8156 78.2534 77.0201C78.327 77.2247 78.4373 77.388 78.5845 77.51C78.7334 77.6302 78.92 77.6903 79.1443 77.6903ZM82.6505 75.9677V78.3901H81.6762V74.2559H82.6075V74.9584H82.6559C82.751 74.7269 82.9026 74.543 83.1108 74.4067C83.3207 74.2703 83.58 74.2021 83.8887 74.2021C84.174 74.2021 84.4225 74.2631 84.6342 74.3851C84.8477 74.5071 85.0128 74.6839 85.1295 74.9154C85.2479 75.1468 85.3062 75.4276 85.3044 75.7578V78.3901H84.3301V75.9085C84.3301 75.6322 84.2583 75.416 84.1147 75.2599C83.973 75.1038 83.7765 75.0257 83.5253 75.0257C83.3548 75.0257 83.2032 75.0634 83.0704 75.1388C82.9394 75.2123 82.8363 75.3191 82.7609 75.459C82.6873 75.599 82.6505 75.7686 82.6505 75.9677ZM88.0886 74.2559V75.0096H85.712V74.2559H88.0886ZM86.2987 73.2654H87.2731V77.1466C87.2731 77.2776 87.2928 77.3781 87.3323 77.4481C87.3736 77.5163 87.4274 77.5629 87.4938 77.5881C87.5602 77.6132 87.6337 77.6257 87.7145 77.6257C87.7755 77.6257 87.8311 77.6213 87.8814 77.6123C87.9334 77.6033 87.9729 77.5952 87.9998 77.5881L88.164 78.3498C88.1119 78.3677 88.0375 78.3874 87.9406 78.409C87.8455 78.4305 87.7288 78.4431 87.5907 78.4467C87.3466 78.4538 87.1268 78.4171 86.9312 78.3363C86.7357 78.2538 86.5805 78.1264 86.4656 77.9541C86.3526 77.7818 86.2969 77.5665 86.2987 77.3081V73.2654ZM89.6959 75.9677V78.3901H88.7216V72.8779H89.6744V74.9584H89.7229C89.8198 74.7252 89.9696 74.5412 90.1724 74.4067C90.3769 74.2703 90.6371 74.2021 90.9529 74.2021C91.24 74.2021 91.4903 74.2622 91.7038 74.3824C91.9174 74.5026 92.0825 74.6785 92.1991 74.91C92.3175 75.1414 92.3767 75.4241 92.3767 75.7578V78.3901H91.4024V75.9085C91.4024 75.6304 91.3306 75.4142 91.1871 75.2599C91.0453 75.1038 90.8461 75.0257 90.5895 75.0257C90.4173 75.0257 90.263 75.0634 90.1266 75.1388C89.992 75.2123 89.8862 75.3191 89.809 75.459C89.7336 75.599 89.6959 75.7686 89.6959 75.9677ZM96.3667 75.3487L95.4785 75.4456C95.4534 75.3559 95.4095 75.2715 95.3467 75.1926C95.2856 75.1136 95.2031 75.0499 95.099 75.0015C94.995 74.953 94.8676 74.9288 94.7168 74.9288C94.5141 74.9288 94.3436 74.9728 94.2054 75.0607C94.0691 75.1486 94.0018 75.2626 94.0036 75.4025C94.0018 75.5227 94.0457 75.6205 94.1355 75.6959C94.227 75.7713 94.3777 75.8332 94.5876 75.8816L95.2928 76.0323C95.684 76.1167 95.9747 76.2504 96.1649 76.4334C96.3569 76.6164 96.4538 76.856 96.4556 77.152C96.4538 77.4122 96.3775 77.6419 96.2268 77.8411C96.0779 78.0384 95.8706 78.1928 95.605 78.304C95.3395 78.4153 95.0344 78.4709 94.6899 78.4709C94.1839 78.4709 93.7766 78.365 93.468 78.1533C93.1593 77.9398 92.9754 77.6428 92.9162 77.2624L93.8663 77.1709C93.9094 77.3575 94.0009 77.4983 94.1408 77.5934C94.2808 77.6885 94.4629 77.7361 94.6872 77.7361C94.9187 77.7361 95.1044 77.6885 95.2444 77.5934C95.3861 77.4983 95.457 77.3808 95.457 77.2408C95.457 77.1224 95.4113 77.0246 95.3197 76.9475C95.23 76.8703 95.0901 76.8111 94.8999 76.7698L94.1947 76.6218C93.7981 76.5393 93.5047 76.4002 93.3145 76.2046C93.1243 76.0072 93.0301 75.7578 93.0319 75.4564C93.0301 75.2016 93.0992 74.9808 93.2392 74.7942C93.3809 74.6058 93.5774 74.4605 93.8286 74.3582C94.0816 74.2541 94.3732 74.2021 94.7034 74.2021C95.1879 74.2021 95.5692 74.3053 95.8473 74.5116C96.1272 74.718 96.3004 74.997 96.3667 75.3487Z" fill="#7A7A7A"/>
<path d="M48.8377 109.237V106.764L55.3989 100.332C56.0265 99.6985 56.5494 99.1356 56.9677 98.6434C57.3861 98.1512 57.6998 97.6744 57.909 97.213C58.1182 96.7516 58.2228 96.2594 58.2228 95.7365C58.2228 95.1398 58.0874 94.6291 57.8167 94.2046C57.546 93.774 57.1738 93.4418 56.7001 93.208C56.2264 92.9742 55.6881 92.8573 55.0852 92.8573C54.4638 92.8573 53.9194 92.9865 53.4518 93.2449C52.9842 93.4972 52.6213 93.8571 52.3629 94.3246C52.1106 94.7922 51.9845 95.3489 51.9845 95.9949H48.727C48.727 94.7952 49.0008 93.7525 49.5483 92.8666C50.0958 91.9807 50.8495 91.2947 51.8092 90.8087C52.7751 90.3227 53.8824 90.0797 55.1313 90.0797C56.3987 90.0797 57.5122 90.3165 58.4719 90.7902C59.4316 91.2639 60.176 91.913 60.7051 92.7374C61.2404 93.5618 61.508 94.503 61.508 95.5612C61.508 96.2687 61.3726 96.9639 61.1019 97.6467C60.8312 98.3296 60.3545 99.0863 59.6716 99.9169C58.9948 100.747 58.0443 101.753 56.8201 102.934L53.5625 106.247V106.377H61.7941V109.237H48.8377ZM70.8807 109.597C69.3611 109.597 68.0569 109.213 66.968 108.444C65.8852 107.669 65.0516 106.552 64.4671 105.094C63.8888 103.63 63.5997 101.867 63.5997 99.8061C63.6058 97.7452 63.8981 95.9918 64.4764 94.5461C65.0608 93.0942 65.8944 91.9868 66.9772 91.224C68.0661 90.4611 69.3673 90.0797 70.8807 90.0797C72.3941 90.0797 73.6953 90.4611 74.7842 91.224C75.8731 91.9868 76.7067 93.0942 77.285 94.5461C77.8695 95.998 78.1617 97.7513 78.1617 99.8061C78.1617 101.873 77.8695 103.639 77.285 105.103C76.7067 106.561 75.8731 107.675 74.7842 108.444C73.7014 109.213 72.4003 109.597 70.8807 109.597ZM70.8807 106.709C72.0619 106.709 72.994 106.127 73.6768 104.965C74.3659 103.796 74.7104 102.076 74.7104 99.8061C74.7104 98.305 74.5535 97.0438 74.2398 96.0226C73.926 95.0013 73.483 94.2323 72.9109 93.7156C72.3388 93.1926 71.662 92.9312 70.8807 92.9312C69.7057 92.9312 68.7767 93.5156 68.0938 94.6845C67.4109 95.8473 67.0664 97.5545 67.0603 99.8061C67.0541 101.313 67.2048 102.581 67.5124 103.608C67.8262 104.636 68.2691 105.411 68.8413 105.934C69.4134 106.45 70.0932 106.709 70.8807 106.709ZM87.1307 109.597C85.6111 109.597 84.3069 109.213 83.218 108.444C82.1352 107.669 81.3016 106.552 80.7171 105.094C80.1388 103.63 79.8497 101.867 79.8497 99.8061C79.8558 97.7452 80.1481 95.9918 80.7264 94.5461C81.3108 93.0942 82.1444 91.9868 83.2272 91.224C84.3161 90.4611 85.6173 90.0797 87.1307 90.0797C88.6441 90.0797 89.9453 90.4611 91.0342 91.224C92.1231 91.9868 92.9567 93.0942 93.535 94.5461C94.1195 95.998 94.4117 97.7513 94.4117 99.8061C94.4117 101.873 94.1195 103.639 93.535 105.103C92.9567 106.561 92.1231 107.675 91.0342 108.444C89.9514 109.213 88.6503 109.597 87.1307 109.597ZM87.1307 106.709C88.3119 106.709 89.244 106.127 89.9268 104.965C90.6159 103.796 90.9604 102.076 90.9604 99.8061C90.9604 98.305 90.8035 97.0438 90.4898 96.0226C90.176 95.0013 89.733 94.2323 89.1609 93.7156C88.5888 93.1926 87.912 92.9312 87.1307 92.9312C85.9557 92.9312 85.0267 93.5156 84.3438 94.6845C83.6609 95.8473 83.3164 97.5545 83.3103 99.8061C83.3041 101.313 83.4548 102.581 83.7624 103.608C84.0762 104.636 84.5191 105.411 85.0913 105.934C85.6634 106.45 86.3432 106.709 87.1307 106.709ZM96.5796 109.237V90.338H100.003V99.0217H100.234L107.607 90.338H111.788L104.479 98.8187L111.852 109.237H107.736L102.098 101.135L100.003 103.608V109.237H96.5796Z" fill="#242424"/>
<line x1="65.2935" y1="135.05" x2="269.125" y2="135.05" stroke="#F2F2F2" stroke-width="0.270692" stroke-linecap="round" stroke-dasharray="5.41 4.33"/>
<line x1="65.2935" y1="155.623" x2="269.125" y2="155.623" stroke="#F2F2F2" stroke-width="0.270692" stroke-linecap="round" stroke-dasharray="5.41 4.33"/>
<line x1="65.2935" y1="176.195" x2="269.125" y2="176.195" stroke="#F2F2F2" stroke-width="0.270692" stroke-linecap="round" stroke-dasharray="5.41 4.33"/>
<line x1="65.2935" y1="196.768" x2="269.125" y2="196.768" stroke="#F2F2F2" stroke-width="0.270692" stroke-linecap="round" stroke-dasharray="5.41 4.33"/>
<path d="M49.5625 219.758L231.327 165.864L333.372 91.2007" stroke="#FF7354" stroke-width="2.81" stroke-linecap="round"/>
<g filter="url(#filter5_dd_7951_15998)">
<rect x="243.453" y="80.1094" width="92.73" height="35.8567" rx="5.53416" fill="white"/>
<rect x="243.799" y="80.4553" width="92.0382" height="35.1649" rx="5.18827" stroke="#F9F9F9" stroke-width="0.69177"/>
<path d="M252.853 92.6436V91.8771L254.644 90.2189C254.796 90.0715 254.924 89.9389 255.027 89.821C255.132 89.703 255.211 89.5876 255.265 89.4746C255.319 89.3599 255.347 89.2363 255.347 89.1036C255.347 88.9562 255.313 88.8293 255.246 88.7229C255.179 88.6148 255.087 88.5321 254.971 88.4748C254.854 88.4158 254.723 88.3863 254.575 88.3863C254.421 88.3863 254.287 88.4174 254.172 88.4797C254.058 88.5419 253.969 88.6312 253.907 88.7474C253.845 88.8637 253.814 89.0021 253.814 89.1626H252.804C252.804 88.8334 252.878 88.5476 253.028 88.3053C253.177 88.0629 253.385 87.8754 253.654 87.7427C253.923 87.61 254.232 87.5437 254.583 87.5437C254.943 87.5437 255.256 87.6076 255.523 87.7353C255.792 87.8614 256.001 88.0367 256.15 88.261C256.299 88.4854 256.373 88.7425 256.373 89.0324C256.373 89.2224 256.336 89.4099 256.26 89.595C256.187 89.78 256.055 89.9855 255.865 90.2116C255.675 90.4359 255.407 90.7053 255.062 91.0198L254.327 91.7395V91.7739H256.44V92.6436H252.853ZM258.976 92.7541C258.553 92.7525 258.189 92.6485 257.885 92.4421C257.582 92.2358 257.348 91.9369 257.185 91.5455C257.023 91.1541 256.942 90.6832 256.944 90.1329C256.944 89.5843 257.025 89.1167 257.187 88.7302C257.351 88.3437 257.584 88.0498 257.887 87.8483C258.192 87.6453 258.555 87.5437 258.976 87.5437C259.396 87.5437 259.758 87.6453 260.061 87.8483C260.366 88.0514 260.6 88.3462 260.764 88.7327C260.928 89.1176 261.009 89.5843 261.007 90.1329C261.007 90.6849 260.925 91.1565 260.761 91.5479C260.599 91.9393 260.367 92.2382 260.064 92.4446C259.761 92.6509 259.398 92.7541 258.976 92.7541ZM258.976 91.8722C259.264 91.8722 259.494 91.7273 259.666 91.4374C259.838 91.1475 259.923 90.7127 259.921 90.1329C259.921 89.7514 259.882 89.4336 259.803 89.1798C259.726 88.9259 259.617 88.7352 259.474 88.6074C259.333 88.4797 259.167 88.4158 258.976 88.4158C258.689 88.4158 258.46 88.5591 258.288 88.8457C258.116 89.1323 258.029 89.5614 258.027 90.1329C258.027 90.5194 258.066 90.8421 258.143 91.1008C258.221 91.358 258.332 91.5512 258.474 91.6806C258.617 91.8083 258.784 91.8722 258.976 91.8722ZM261.558 92.6436V91.8771L263.349 90.2189C263.501 90.0715 263.629 89.9389 263.732 89.821C263.837 89.703 263.916 89.5876 263.97 89.4746C264.024 89.3599 264.051 89.2363 264.051 89.1036C264.051 88.9562 264.018 88.8293 263.951 88.7229C263.884 88.6148 263.792 88.5321 263.676 88.4748C263.559 88.4158 263.427 88.3863 263.28 88.3863C263.126 88.3863 262.992 88.4174 262.877 88.4797C262.763 88.5419 262.674 88.6312 262.612 88.7474C262.55 88.8637 262.519 89.0021 262.519 89.1626H261.509C261.509 88.8334 261.583 88.5476 261.732 88.3053C261.881 88.0629 262.09 87.8754 262.359 87.7427C262.627 87.61 262.937 87.5437 263.287 87.5437C263.648 87.5437 263.961 87.6076 264.228 87.7353C264.497 87.8614 264.706 88.0367 264.855 88.261C265.004 88.4854 265.078 88.7425 265.078 89.0324C265.078 89.2224 265.041 89.4099 264.965 89.595C264.892 89.78 264.76 89.9855 264.57 90.2116C264.38 90.4359 264.112 90.7053 263.767 91.0198L263.032 91.7395V91.7739H265.145V92.6436H261.558ZM265.524 91.7592V90.9215L267.624 87.6125H268.346V88.772H267.919L266.595 90.8675V90.9068H269.579V91.7592H265.524ZM267.938 92.6436V91.5037L267.958 91.1328V87.6125H268.955V92.6436H267.938ZM270.608 92.7074C270.445 92.7074 270.306 92.6501 270.19 92.5355C270.075 92.4192 270.018 92.28 270.018 92.1178C270.018 91.9574 270.075 91.8198 270.19 91.7051C270.306 91.5905 270.445 91.5332 270.608 91.5332C270.765 91.5332 270.902 91.5905 271.02 91.7051C271.138 91.8198 271.197 91.9574 271.197 92.1178C271.197 92.2259 271.169 92.325 271.114 92.4151C271.06 92.5035 270.988 92.5748 270.9 92.6288C270.811 92.6812 270.714 92.7074 270.608 92.7074ZM273.609 92.7541C273.186 92.7525 272.823 92.6485 272.518 92.4421C272.215 92.2358 271.982 91.9369 271.818 91.5455C271.656 91.1541 271.576 90.6832 271.577 90.1329C271.577 89.5843 271.658 89.1167 271.821 88.7302C271.984 88.3437 272.218 88.0498 272.521 87.8483C272.825 87.6453 273.188 87.5437 273.609 87.5437C274.03 87.5437 274.392 87.6453 274.695 87.8483C274.999 88.0514 275.234 88.3462 275.397 88.7327C275.561 89.1176 275.642 89.5843 275.64 90.1329C275.64 90.6849 275.559 91.1565 275.395 91.5479C275.233 91.9393 275 92.2382 274.697 92.4446C274.394 92.6509 274.031 92.7541 273.609 92.7541ZM273.609 91.8722C273.897 91.8722 274.127 91.7273 274.299 91.4374C274.471 91.1475 274.556 90.7127 274.555 90.1329C274.555 89.7514 274.515 89.4336 274.437 89.1798C274.36 88.9259 274.25 88.7352 274.108 88.6074C273.967 88.4797 273.801 88.4158 273.609 88.4158C273.322 88.4158 273.093 88.5591 272.921 88.8457C272.749 89.1323 272.662 89.5614 272.661 90.1329C272.661 90.5194 272.699 90.8421 272.776 91.1008C272.855 91.358 272.965 91.5512 273.108 91.6806C273.25 91.8083 273.417 91.8722 273.609 91.8722ZM276.255 92.6436L278.341 88.5165V88.4821H275.911V87.6125H279.441V88.4944L277.353 92.6436H276.255Z" fill="#7A7A7A"/>
<path d="M253.098 106.644V105.417L255.963 102.764C256.207 102.528 256.411 102.316 256.576 102.127C256.744 101.939 256.871 101.754 256.958 101.573C257.044 101.39 257.087 101.192 257.087 100.98C257.087 100.744 257.034 100.541 256.926 100.37C256.819 100.198 256.672 100.065 256.486 99.9735C256.3 99.8791 256.089 99.832 255.853 99.832C255.607 99.832 255.392 99.8818 255.208 99.9813C255.025 100.081 254.884 100.224 254.784 100.41C254.684 100.596 254.635 100.817 254.635 101.074H253.019C253.019 100.547 253.138 100.09 253.377 99.7023C253.615 99.3145 253.949 99.0144 254.379 98.8022C254.809 98.5899 255.304 98.4838 255.865 98.4838C256.441 98.4838 256.943 98.586 257.37 98.7904C257.8 98.9922 258.134 99.2725 258.373 99.6315C258.611 99.9905 258.73 100.402 258.73 100.866C258.73 101.17 258.67 101.47 258.549 101.766C258.431 102.062 258.221 102.391 257.917 102.752C257.613 103.111 257.184 103.542 256.631 104.045L255.456 105.197V105.252H258.836V106.644H253.098ZM263.226 106.82C262.55 106.818 261.968 106.651 261.481 106.321C260.996 105.991 260.622 105.513 260.36 104.887C260.101 104.26 259.973 103.507 259.975 102.627C259.975 101.749 260.105 101.001 260.364 100.382C260.626 99.7639 261 99.2935 261.485 98.9712C261.972 98.6463 262.552 98.4838 263.226 98.4838C263.899 98.4838 264.478 98.6463 264.963 98.9712C265.45 99.2961 265.825 99.7678 266.087 100.386C266.349 101.002 266.479 101.749 266.476 102.627C266.476 103.51 266.345 104.264 266.083 104.891C265.824 105.517 265.452 105.995 264.967 106.325C264.482 106.655 263.902 106.82 263.226 106.82ZM263.226 105.409C263.687 105.409 264.055 105.177 264.33 104.714C264.605 104.25 264.742 103.554 264.739 102.627C264.739 102.016 264.676 101.508 264.55 101.102C264.427 100.695 264.252 100.39 264.024 100.186C263.798 99.9813 263.532 99.8791 263.226 99.8791C262.767 99.8791 262.4 100.108 262.125 100.567C261.85 101.026 261.711 101.712 261.709 102.627C261.709 103.245 261.77 103.761 261.893 104.175C262.019 104.587 262.196 104.896 262.424 105.103C262.652 105.307 262.919 105.409 263.226 105.409ZM270.846 106.82C270.17 106.818 269.588 106.651 269.101 106.321C268.616 105.991 268.243 105.513 267.981 104.887C267.721 104.26 267.593 103.507 267.595 102.627C267.595 101.749 267.725 101.001 267.985 100.382C268.247 99.7639 268.62 99.2935 269.105 98.9712C269.592 98.6463 270.173 98.4838 270.846 98.4838C271.519 98.4838 272.099 98.6463 272.583 98.9712C273.071 99.2961 273.445 99.7678 273.707 100.386C273.969 101.002 274.099 101.749 274.097 102.627C274.097 103.51 273.966 104.264 273.703 104.891C273.444 105.517 273.072 105.995 272.587 106.325C272.102 106.655 271.522 106.82 270.846 106.82ZM270.846 105.409C271.307 105.409 271.675 105.177 271.95 104.714C272.226 104.25 272.362 103.554 272.359 102.627C272.359 102.016 272.296 101.508 272.171 101.102C272.047 100.695 271.872 100.39 271.644 100.186C271.419 99.9813 271.153 99.8791 270.846 99.8791C270.387 99.8791 270.021 100.108 269.745 100.567C269.47 101.026 269.331 101.712 269.329 102.627C269.329 103.245 269.39 103.761 269.514 104.175C269.639 104.587 269.816 104.896 270.044 105.103C270.272 105.307 270.539 105.409 270.846 105.409ZM275.357 106.644V98.5939H277.059V102.143H277.165L280.062 98.5939H282.102L279.115 102.198L282.137 106.644H280.101L277.896 103.334L277.059 104.356V106.644H275.357ZM290.522 98.5939H292.224V103.821C292.224 104.408 292.084 104.922 291.803 105.362C291.526 105.802 291.137 106.146 290.636 106.392C290.136 106.636 289.553 106.758 288.887 106.758C288.219 106.758 287.635 106.636 287.134 106.392C286.634 106.146 286.244 105.802 285.967 105.362C285.689 104.922 285.55 104.408 285.55 103.821V98.5939H287.252V103.676C287.252 103.983 287.319 104.255 287.452 104.494C287.589 104.732 287.78 104.919 288.026 105.056C288.273 105.192 288.559 105.26 288.887 105.26C289.217 105.26 289.504 105.192 289.748 105.056C289.994 104.919 290.184 104.732 290.318 104.494C290.454 104.255 290.522 103.983 290.522 103.676V98.5939ZM298.616 102.328L297.083 102.422C297.057 102.291 297.001 102.173 296.914 102.068C296.828 101.961 296.714 101.876 296.572 101.813C296.433 101.747 296.267 101.715 296.073 101.715C295.814 101.715 295.595 101.77 295.417 101.88C295.238 101.987 295.149 102.131 295.149 102.312C295.149 102.456 295.207 102.578 295.322 102.678C295.438 102.777 295.635 102.857 295.916 102.917L297.008 103.138C297.595 103.258 298.033 103.452 298.321 103.719C298.609 103.987 298.754 104.338 298.754 104.773C298.754 105.168 298.637 105.515 298.404 105.814C298.173 106.113 297.856 106.346 297.453 106.514C297.052 106.679 296.589 106.761 296.065 106.761C295.266 106.761 294.629 106.595 294.155 106.262C293.683 105.927 293.407 105.471 293.326 104.894L294.972 104.808C295.022 105.052 295.143 105.238 295.334 105.366C295.525 105.492 295.77 105.555 296.069 105.555C296.363 105.555 296.598 105.498 296.777 105.386C296.957 105.27 297.049 105.122 297.052 104.942C297.049 104.79 296.985 104.665 296.859 104.568C296.733 104.469 296.539 104.393 296.277 104.34L295.232 104.132C294.642 104.014 294.203 103.81 293.915 103.519C293.63 103.228 293.487 102.857 293.487 102.406C293.487 102.019 293.592 101.685 293.801 101.404C294.013 101.124 294.311 100.908 294.693 100.756C295.079 100.604 295.529 100.528 296.045 100.528C296.808 100.528 297.408 100.689 297.846 101.011C298.286 101.333 298.543 101.772 298.616 102.328ZM302.559 106.761C301.938 106.761 301.404 106.636 300.956 106.384C300.51 106.13 300.167 105.771 299.926 105.307C299.685 104.841 299.564 104.289 299.564 103.652C299.564 103.031 299.685 102.486 299.926 102.017C300.167 101.548 300.506 101.183 300.944 100.921C301.384 100.659 301.9 100.528 302.492 100.528C302.891 100.528 303.262 100.592 303.605 100.72C303.951 100.846 304.252 101.036 304.509 101.29C304.768 101.544 304.97 101.864 305.114 102.249C305.258 102.632 305.33 103.08 305.33 103.593V104.053H300.232V103.016H303.754C303.754 102.775 303.702 102.561 303.597 102.375C303.492 102.189 303.347 102.044 303.161 101.939C302.977 101.831 302.764 101.778 302.52 101.778C302.266 101.778 302.04 101.837 301.844 101.954C301.65 102.07 301.498 102.226 301.388 102.422C301.278 102.616 301.222 102.832 301.219 103.071V104.057C301.219 104.356 301.274 104.614 301.384 104.832C301.497 105.049 301.655 105.217 301.86 105.335C302.064 105.453 302.306 105.512 302.587 105.512C302.773 105.512 302.943 105.485 303.098 105.433C303.252 105.381 303.385 105.302 303.495 105.197C303.605 105.092 303.689 104.964 303.746 104.812L305.295 104.914C305.216 105.286 305.055 105.611 304.811 105.889C304.57 106.164 304.259 106.379 303.876 106.534C303.496 106.685 303.057 106.761 302.559 106.761ZM306.423 106.644V100.606H308.046V101.66H308.109C308.219 101.285 308.404 101.002 308.663 100.811C308.923 100.617 309.222 100.52 309.56 100.52C309.643 100.52 309.734 100.525 309.831 100.536C309.928 100.546 310.013 100.56 310.086 100.579V102.065C310.008 102.041 309.899 102.02 309.76 102.002C309.621 101.983 309.494 101.974 309.379 101.974C309.132 101.974 308.912 102.028 308.718 102.135C308.527 102.24 308.375 102.387 308.262 102.575C308.152 102.764 308.097 102.982 308.097 103.228V106.644H306.423Z" fill="#242424"/>
</g>
</g>
</g>
</g>
<defs>
<filter id="filter0_f_7951_15998" x="304.696" y="32.8387" width="468.774" height="470.293" filterUnits="userSpaceOnUse" color-interpolation-filters="sRGB">
<feFlood flood-opacity="0" result="BackgroundImageFix"/>
<feBlend mode="normal" in="SourceGraphic" in2="BackgroundImageFix" result="shape"/>
<feGaussianBlur stdDeviation="50.6236" result="effect1_foregroundBlur_7951_15998"/>
</filter>
<filter id="filter1_f_7951_15998" x="39.5536" y="-119.347" width="710.403" height="719.534" filterUnits="userSpaceOnUse" color-interpolation-filters="sRGB">
<feFlood flood-opacity="0" result="BackgroundImageFix"/>
<feBlend mode="normal" in="SourceGraphic" in2="BackgroundImageFix" result="shape"/>
<feGaussianBlur stdDeviation="50.6236" result="effect1_foregroundBlur_7951_15998"/>
</filter>
<filter id="filter2_f_7951_15998" x="98.2957" y="95.1219" width="468.774" height="470.293" filterUnits="userSpaceOnUse" color-interpolation-filters="sRGB">
<feFlood flood-opacity="0" result="BackgroundImageFix"/>
<feBlend mode="normal" in="SourceGraphic" in2="BackgroundImageFix" result="shape"/>
<feGaussianBlur stdDeviation="50.6236" result="effect1_foregroundBlur_7951_15998"/>
</filter>
<filter id="filter3_f_7951_15998" x="-281.247" y="-231.347" width="682.494" height="662.494" filterUnits="userSpaceOnUse" color-interpolation-filters="sRGB">
<feFlood flood-opacity="0" result="BackgroundImageFix"/>
<feBlend mode="normal" in="SourceGraphic" in2="BackgroundImageFix" result="shape"/>
<feGaussianBlur stdDeviation="50.6236" result="effect1_foregroundBlur_7951_15998"/>
</filter>
<filter id="filter4_dd_7951_15998" x="16" y="30.2324" width="348.531" height="239.612" filterUnits="userSpaceOnUse" color-interpolation-filters="sRGB">
<feFlood flood-opacity="0" result="BackgroundImageFix"/>
<feColorMatrix in="SourceAlpha" type="matrix" values="0 0 0 0 0 0 0 0 0 0 0 0 0 0 0 0 0 0 127 0" result="hardAlpha"/>
<feMorphology radius="3.2" operator="erode" in="SourceAlpha" result="effect1_dropShadow_7951_15998"/>
<feOffset dy="6.4"/>
<feGaussianBlur stdDeviation="4.4"/>
<feColorMatrix type="matrix" values="0 0 0 0 0.176471 0 0 0 0 0.211765 0 0 0 0 0.262745 0 0 0 0.04 0"/>
<feBlend mode="normal" in2="BackgroundImageFix" result="effect1_dropShadow_7951_15998"/>
<feColorMatrix in="SourceAlpha" type="matrix" values="0 0 0 0 0 0 0 0 0 0 0 0 0 0 0 0 0 0 127 0" result="hardAlpha"/>
<feMorphology radius="3.2" operator="erode" in="SourceAlpha" result="effect2_dropShadow_7951_15998"/>
<feOffset dy="16"/>
<feGaussianBlur stdDeviation="9.6"/>
<feColorMatrix type="matrix" values="0 0 0 0 0.176471 0 0 0 0 0.211765 0 0 0 0 0.262745 0 0 0 0.04 0"/>
<feBlend mode="normal" in2="effect1_dropShadow_7951_15998" result="effect2_dropShadow_7951_15998"/>
<feBlend mode="normal" in="SourceGraphic" in2="effect2_dropShadow_7951_15998" result="shape"/>
</filter>
<filter id="filter5_dd_7951_15998" x="227.453" y="80.1094" width="124.73" height="67.8564" filterUnits="userSpaceOnUse" color-interpolation-filters="sRGB">
<feFlood flood-opacity="0" result="BackgroundImageFix"/>
<feColorMatrix in="SourceAlpha" type="matrix" values="0 0 0 0 0 0 0 0 0 0 0 0 0 0 0 0 0 0 127 0" result="hardAlpha"/>
<feMorphology radius="3.2" operator="erode" in="SourceAlpha" result="effect1_dropShadow_7951_15998"/>
<feOffset dy="6.4"/>
<feGaussianBlur stdDeviation="4.4"/>
<feColorMatrix type="matrix" values="0 0 0 0 0.176471 0 0 0 0 0.211765 0 0 0 0 0.262745 0 0 0 0.04 0"/>
<feBlend mode="normal" in2="BackgroundImageFix" result="effect1_dropShadow_7951_15998"/>
<feColorMatrix in="SourceAlpha" type="matrix" values="0 0 0 0 0 0 0 0 0 0 0 0 0 0 0 0 0 0 127 0" result="hardAlpha"/>
<feMorphology radius="3.2" operator="erode" in="SourceAlpha" result="effect2_dropShadow_7951_15998"/>
<feOffset dy="16"/>
<feGaussianBlur stdDeviation="9.6"/>
<feColorMatrix type="matrix" values="0 0 0 0 0.176471 0 0 0 0 0.211765 0 0 0 0 0.262745 0 0 0 0.04 0"/>
<feBlend mode="normal" in2="effect1_dropShadow_7951_15998" result="effect2_dropShadow_7951_15998"/>
<feBlend mode="normal" in="SourceGraphic" in2="effect2_dropShadow_7951_15998" result="shape"/>
</filter>
<linearGradient id="paint0_linear_7951_15998" x1="90.1937" y1="106.465" x2="89.3537" y2="149.885" gradientUnits="userSpaceOnUse">
<stop stop-color="#FF7F62"/>
<stop offset="1" stop-color="#FF4C24"/>
</linearGradient>
<linearGradient id="paint1_linear_7951_15998" x1="90.1937" y1="106.465" x2="89.3537" y2="149.885" gradientUnits="userSpaceOnUse">
<stop stop-color="#FF7F62"/>
<stop offset="1" stop-color="#FF4C24"/>
</linearGradient>
<linearGradient id="paint2_linear_7951_15998" x1="90.1937" y1="106.465" x2="89.3537" y2="149.885" gradientUnits="userSpaceOnUse">
<stop stop-color="#FF7F62"/>
<stop offset="1" stop-color="#FF4C24"/>
</linearGradient>
<linearGradient id="paint3_linear_7951_15998" x1="90.1937" y1="106.465" x2="89.3537" y2="149.885" gradientUnits="userSpaceOnUse">
<stop stop-color="#FF7F62"/>
<stop offset="1" stop-color="#FF4C24"/>
</linearGradient>
<linearGradient id="paint4_linear_7951_15998" x1="90.1937" y1="106.465" x2="89.3537" y2="149.885" gradientUnits="userSpaceOnUse">
<stop stop-color="#FF7F62"/>
<stop offset="1" stop-color="#FF4C24"/>
</linearGradient>
<linearGradient id="paint5_linear_7951_15998" x1="90.1937" y1="106.465" x2="89.3537" y2="149.885" gradientUnits="userSpaceOnUse">
<stop stop-color="#FF7F62"/>
<stop offset="1" stop-color="#FF4C24"/>
</linearGradient>
<linearGradient id="paint6_linear_7951_15998" x1="90.1937" y1="106.465" x2="89.3537" y2="149.885" gradientUnits="userSpaceOnUse">
<stop stop-color="#FF7F62"/>
<stop offset="1" stop-color="#FF4C24"/>
</linearGradient>
<linearGradient id="paint7_linear_7951_15998" x1="90.1937" y1="106.465" x2="89.3537" y2="149.885" gradientUnits="userSpaceOnUse">
<stop stop-color="#FF7F62"/>
<stop offset="1" stop-color="#FF4C24"/>
</linearGradient>
<linearGradient id="paint8_linear_7951_15998" x1="90.1937" y1="106.465" x2="89.3537" y2="149.885" gradientUnits="userSpaceOnUse">
<stop stop-color="#FF7F62"/>
<stop offset="1" stop-color="#FF4C24"/>
</linearGradient>
<linearGradient id="paint9_linear_7951_15998" x1="90.1937" y1="106.465" x2="89.3537" y2="149.885" gradientUnits="userSpaceOnUse">
<stop stop-color="#FF7F62"/>
<stop offset="1" stop-color="#FF4C24"/>
</linearGradient>
<linearGradient id="paint10_linear_7951_15998" x1="48.9734" y1="45.5278" x2="48.7823" y2="55.4012" gradientUnits="userSpaceOnUse">
<stop stop-color="#FF7F62"/>
<stop offset="1" stop-color="#FF4C24"/>
</linearGradient>
<linearGradient id="paint11_linear_7951_15998" x1="48.9734" y1="45.5278" x2="48.7823" y2="55.4012" gradientUnits="userSpaceOnUse">
<stop stop-color="#FF7F62"/>
<stop offset="1" stop-color="#FF4C24"/>
</linearGradient>
<linearGradient id="paint12_linear_7951_15998" x1="48.9734" y1="45.5278" x2="48.7823" y2="55.4012" gradientUnits="userSpaceOnUse">
<stop stop-color="#FF7F62"/>
<stop offset="1" stop-color="#FF4C24"/>
</linearGradient>
<linearGradient id="paint13_linear_7951_15998" x1="48.9734" y1="45.5278" x2="48.7823" y2="55.4012" gradientUnits="userSpaceOnUse">
<stop stop-color="#FF7F62"/>
<stop offset="1" stop-color="#FF4C24"/>
</linearGradient>
<linearGradient id="paint14_linear_7951_15998" x1="48.9734" y1="45.5278" x2="48.7823" y2="55.4012" gradientUnits="userSpaceOnUse">
<stop stop-color="#FF7F62"/>
<stop offset="1" stop-color="#FF4C24"/>
</linearGradient>
<linearGradient id="paint15_linear_7951_15998" x1="48.9734" y1="45.5278" x2="48.7823" y2="55.4012" gradientUnits="userSpaceOnUse">
<stop stop-color="#FF7F62"/>
<stop offset="1" stop-color="#FF4C24"/>
</linearGradient>
<linearGradient id="paint16_linear_7951_15998" x1="48.9734" y1="45.5278" x2="48.7823" y2="55.4012" gradientUnits="userSpaceOnUse">
<stop stop-color="#FF7F62"/>
<stop offset="1" stop-color="#FF4C24"/>
</linearGradient>
<linearGradient id="paint17_linear_7951_15998" x1="48.9734" y1="45.5278" x2="48.7823" y2="55.4012" gradientUnits="userSpaceOnUse">
<stop stop-color="#FF7F62"/>
<stop offset="1" stop-color="#FF4C24"/>
</linearGradient>
<linearGradient id="paint18_linear_7951_15998" x1="48.9734" y1="45.5278" x2="48.7823" y2="55.4012" gradientUnits="userSpaceOnUse">
<stop stop-color="#FF7F62"/>
<stop offset="1" stop-color="#FF4C24"/>
</linearGradient>
<linearGradient id="paint19_linear_7951_15998" x1="48.9734" y1="45.5278" x2="48.7823" y2="55.4012" gradientUnits="userSpaceOnUse">
<stop stop-color="#FF7F62"/>
<stop offset="1" stop-color="#FF4C24"/>
</linearGradient>
<clipPath id="clip0_7951_15998">
<rect width="380" height="228" rx="19.2" fill="white"/>
</clipPath>
<clipPath id="clip1_7951_15998">
<rect width="1348.8" height="281" fill="white" transform="translate(-484 -13)"/>
</clipPath>
<clipPath id="clip2_7951_15998">
<rect width="49.2005" height="9.84009" fill="white" transform="translate(47.1582 45.3911)"/>
</clipPath>
</defs>
</svg>
