<svg width="380" height="228" viewBox="0 0 380 228" fill="none" xmlns="http://www.w3.org/2000/svg">
<g clip-path="url(#clip0_7951_15794)">
<rect width="380" height="228" rx="24" fill="#F9FBFD"/>
<rect width="414.163" height="276.001" transform="translate(-17.082 -24.0005)" fill="#FFF8FF"/>
<rect x="251.217" y="104.64" width="69.5527" height="69.5527" rx="15.0697" transform="rotate(30 251.217 104.64)" fill="url(#paint0_linear_7951_15794)"/>
<rect x="256.521" y="124.434" width="40.5724" height="40.5724" rx="20.2862" transform="rotate(30 256.521 124.434)" fill="white"/>
<path d="M268.034 144.275C268.339 144.037 268.775 144.288 268.721 144.671C268.124 148.968 272.121 152.595 269.342 157.409C267.335 160.885 262.876 162.068 259.383 160.051C255.891 158.034 254.686 153.582 256.693 150.105C259.472 145.292 264.612 146.94 268.034 144.275Z" fill="url(#paint1_linear_7951_15794)"/>
<path fill-rule="evenodd" clip-rule="evenodd" d="M269.654 19.3053C270.314 18.6472 271.209 18.2778 272.143 18.2778C274.086 18.2778 275.664 19.8477 275.664 21.788C275.664 22.7195 275.293 23.6125 274.632 24.2707L273.752 25.1478H274.606C276.547 25.1478 278.128 26.7094 278.142 28.6481C278.148 29.592 277.775 30.4989 277.106 31.1658L272.119 36.1343C271.452 36.7985 270.547 37.1684 269.605 37.1617C267.681 37.1482 266.122 35.5973 266.109 33.6764C266.102 32.7363 266.474 31.8332 267.14 31.169L268.021 30.2919H265.563C263.979 30.2919 262.691 29.0116 262.691 27.4287C262.691 26.6687 262.994 25.9402 263.533 25.4034L269.654 19.3053ZM269.372 30.2919L267.814 31.8446C267.328 32.3286 267.057 32.986 267.062 33.6697C267.072 35.0658 268.206 36.1981 269.612 36.208C270.299 36.2129 270.96 35.9427 271.446 35.4587L276.432 30.4902C276.921 30.0035 277.193 29.3423 277.188 28.6548C277.178 27.2434 276.027 26.1015 274.606 26.1015L268.887 26.1015C268.568 26.1015 268.312 26.3587 268.312 26.6723C268.312 26.9858 268.568 27.243 268.887 27.243H272.886C273.728 27.243 274.414 27.9239 274.414 28.7675C274.414 29.611 273.728 30.2919 272.886 30.2919L269.372 30.2919ZM272.401 25.1478L273.959 23.5951C274.44 23.1155 274.71 22.4654 274.71 21.788C274.71 20.3778 273.562 19.2316 272.143 19.2316C271.461 19.2316 270.808 19.5013 270.327 19.9809L264.206 26.079C263.847 26.4373 263.645 26.9228 263.645 27.4287C263.645 28.4816 264.502 29.3382 265.563 29.3382H272.886C273.205 29.3382 273.46 29.081 273.46 28.7675C273.46 28.4539 273.205 28.1967 272.886 28.1967H268.887C268.044 28.1967 267.359 27.5158 267.359 26.6723C267.359 25.8287 268.044 25.1478 268.887 25.1478H272.401Z" fill="url(#paint2_linear_7951_15794)"/>
<path d="M284.175 32.9842C283.519 32.7039 283.001 32.3002 282.619 31.7732C282.238 31.2462 282.042 30.6239 282.031 29.9063H284.554C284.587 30.3885 284.758 30.7697 285.067 31.05C285.375 31.3303 285.798 31.4705 286.337 31.4705C286.875 31.4705 287.318 31.3387 287.632 31.0752C287.946 30.8117 288.103 30.467 288.103 30.0409C288.103 29.6933 287.996 29.4074 287.783 29.1831C287.57 28.9588 287.304 28.7822 286.984 28.6533C286.664 28.5244 286.224 28.3814 285.664 28.2244C284.901 28.0002 284.282 27.7787 283.805 27.5601C283.329 27.3414 282.919 27.0106 282.577 26.5677C282.235 26.1248 282.064 25.5334 282.064 24.7933C282.064 24.0981 282.238 23.4926 282.586 22.9769C282.933 22.4611 283.421 22.0658 284.049 21.7911C284.677 21.5164 285.395 21.379 286.202 21.379C287.413 21.379 288.397 21.6734 289.154 22.262C289.911 22.8507 290.328 23.672 290.407 24.726H287.817C287.794 24.3224 287.623 23.9888 287.304 23.7253C286.984 23.4618 286.561 23.3301 286.034 23.3301C285.574 23.3301 285.207 23.4478 284.932 23.6833C284.657 23.9187 284.52 24.2607 284.52 24.7092C284.52 25.0232 284.624 25.2839 284.831 25.4913C285.039 25.6987 285.297 25.8669 285.605 25.9959C285.913 26.1248 286.348 26.2734 286.908 26.4416C287.671 26.6658 288.293 26.8901 288.775 27.1144C289.257 27.3386 289.672 27.675 290.02 28.1235C290.367 28.572 290.541 29.1607 290.541 29.8895C290.541 30.5174 290.379 31.1005 290.054 31.6387C289.728 32.1769 289.252 32.6058 288.624 32.9253C287.996 33.2449 287.25 33.4047 286.387 33.4047C285.568 33.4047 284.831 33.2645 284.175 32.9842Z" fill="url(#paint3_linear_7951_15794)"/>
<path d="M292.064 22.4639C291.789 22.2004 291.652 21.8724 291.652 21.48C291.652 21.0875 291.789 20.7595 292.064 20.496C292.338 20.2326 292.683 20.1008 293.098 20.1008C293.513 20.1008 293.858 20.2326 294.132 20.496C294.407 20.7595 294.545 21.0875 294.545 21.48C294.545 21.8724 294.407 22.2004 294.132 22.4639C293.858 22.7274 293.513 22.8591 293.098 22.8591C292.683 22.8591 292.338 22.7274 292.064 22.4639ZM294.259 23.9692V33.287H291.904V23.9692H294.259Z" fill="url(#paint4_linear_7951_15794)"/>
<path d="M301.39 24.2299C301.917 24.5046 302.332 24.8606 302.634 25.2979V23.9692H305.006V33.3543C305.006 34.2176 304.832 34.9885 304.484 35.6669C304.137 36.3453 303.616 36.8835 302.92 37.2815C302.225 37.6796 301.384 37.8786 300.397 37.8786C299.074 37.8786 297.99 37.5702 297.143 36.9536C296.296 36.3369 295.817 35.4959 295.705 34.4307H298.043C298.166 34.8568 298.432 35.196 298.842 35.4482C299.251 35.7005 299.747 35.8267 300.33 35.8267C301.014 35.8267 301.569 35.622 301.995 35.2128C302.421 34.8035 302.634 34.184 302.634 33.3543V31.9078C302.332 32.3451 301.914 32.7095 301.381 33.0011C300.849 33.2926 300.24 33.4384 299.556 33.4384C298.772 33.4384 298.054 33.2365 297.404 32.8329C296.753 32.4292 296.24 31.8602 295.865 31.1257C295.489 30.3913 295.301 29.5475 295.301 28.5945C295.301 27.6414 295.489 26.8172 295.865 26.0884C296.24 25.3596 296.751 24.799 297.395 24.4065C298.04 24.0141 298.76 23.8178 299.556 23.8178C300.252 23.8178 300.863 23.9552 301.39 24.2299ZM302.298 27.1564C302.074 26.7472 301.771 26.4332 301.39 26.2146C301.009 25.9959 300.599 25.8866 300.162 25.8866C299.725 25.8866 299.321 25.9931 298.951 26.2062C298.581 26.4192 298.281 26.7303 298.051 27.1396C297.821 27.5489 297.706 28.0338 297.706 28.5945C297.706 29.1551 297.821 29.6457 298.051 30.0661C298.281 30.4866 298.584 30.809 298.959 31.0332C299.335 31.2575 299.736 31.3696 300.162 31.3696C300.588 31.3696 301.009 31.2603 301.39 31.0416C301.771 30.823 302.074 30.509 302.298 30.0998C302.522 29.6905 302.634 29.2 302.634 28.6281C302.634 28.0563 302.522 27.5657 302.298 27.1564Z" fill="url(#paint5_linear_7951_15794)"/>
<path d="M314.492 24.8859C315.176 25.5866 315.518 26.565 315.518 27.8208V33.287H313.163V28.1403C313.163 27.4003 312.978 26.8313 312.608 26.4332C312.238 26.0352 311.734 25.8361 311.095 25.8361C310.455 25.8361 309.931 26.0352 309.556 26.4332C309.18 26.8313 308.992 27.4003 308.992 28.1403V33.287H306.638V23.9692H308.992V25.1297C309.306 24.7261 309.707 24.4093 310.195 24.1795C310.683 23.9496 311.218 23.8347 311.801 23.8347C312.911 23.8347 313.808 24.1851 314.492 24.8859Z" fill="url(#paint6_linear_7951_15794)"/>
<path d="M317.04 26.0884C317.415 25.3596 317.926 24.799 318.57 24.4065C319.215 24.0141 319.936 23.8178 320.732 23.8178C321.427 23.8178 322.035 23.958 322.557 24.2383C323.078 24.5186 323.496 24.8718 323.81 25.2979V23.9692H326.181V33.287H323.81V31.9246C323.507 32.3619 323.089 32.7235 322.557 33.0095C322.024 33.2954 321.41 33.4384 320.715 33.4384C319.93 33.4384 319.215 33.2365 318.57 32.8329C317.926 32.4292 317.415 31.8602 317.04 31.1257C316.664 30.3913 316.476 29.5475 316.476 28.5945C316.476 27.6414 316.664 26.8172 317.04 26.0884ZM323.473 27.1564C323.249 26.7472 322.946 26.4332 322.565 26.2146C322.184 25.9959 321.774 25.8866 321.337 25.8866C320.9 25.8866 320.496 25.9931 320.126 26.2062C319.756 26.4192 319.456 26.7303 319.226 27.1396C318.996 27.5489 318.882 28.0338 318.882 28.5945C318.882 29.1551 318.996 29.6457 319.226 30.0661C319.456 30.4866 319.759 30.809 320.135 31.0332C320.51 31.2575 320.911 31.3696 321.337 31.3696C321.763 31.3696 322.184 31.2603 322.565 31.0416C322.946 30.823 323.249 30.509 323.473 30.0998C323.697 29.6905 323.81 29.2 323.81 28.6281C323.81 28.0563 323.697 27.5657 323.473 27.1564Z" fill="url(#paint7_linear_7951_15794)"/>
<path d="M330.167 20.8408V33.2869H327.813V20.8408H330.167Z" fill="url(#paint8_linear_7951_15794)"/>
<path d="M331.975 22.4639C331.701 22.2004 331.563 21.8724 331.563 21.48C331.563 21.0875 331.701 20.7595 331.975 20.496C332.25 20.2326 332.595 20.1008 333.01 20.1008C333.425 20.1008 333.769 20.2326 334.044 20.496C334.319 20.7595 334.456 21.0875 334.456 21.48C334.456 21.8724 334.319 22.2004 334.044 22.4639C333.769 22.7274 333.425 22.8591 333.01 22.8591C332.595 22.8591 332.25 22.7274 331.975 22.4639ZM334.17 23.9692V33.287H331.815V23.9692H334.17Z" fill="url(#paint9_linear_7951_15794)"/>
<path d="M343.673 24.8859C344.357 25.5866 344.699 26.565 344.699 27.8208V33.287H342.344V28.1403C342.344 27.4003 342.159 26.8313 341.789 26.4332C341.419 26.0352 340.914 25.8361 340.275 25.8361C339.636 25.8361 339.112 26.0352 338.736 26.4332C338.361 26.8313 338.173 27.4003 338.173 28.1403V33.287H335.818V23.9692H338.173V25.1297C338.487 24.7261 338.888 24.4093 339.376 24.1795C339.863 23.9496 340.399 23.8347 340.982 23.8347C342.092 23.8347 342.989 24.1851 343.673 24.8859Z" fill="url(#paint10_linear_7951_15794)"/>
<path d="M351.746 24.2299C352.273 24.5046 352.688 24.8606 352.991 25.2979V23.9692H355.362V33.3543C355.362 34.2176 355.189 34.9885 354.841 35.6669C354.493 36.3453 353.972 36.8835 353.277 37.2815C352.582 37.6796 351.741 37.8786 350.754 37.8786C349.431 37.8786 348.346 37.5702 347.499 36.9536C346.653 36.3369 346.174 35.4959 346.061 34.4307H348.399C348.523 34.8568 348.789 35.196 349.198 35.4482C349.607 35.7005 350.104 35.8267 350.687 35.8267C351.371 35.8267 351.926 35.622 352.352 35.2128C352.778 34.8035 352.991 34.184 352.991 33.3543V31.9078C352.688 32.3451 352.27 32.7095 351.738 33.0011C351.205 33.2926 350.597 33.4384 349.913 33.4384C349.128 33.4384 348.41 33.2365 347.76 32.8329C347.11 32.4292 346.597 31.8602 346.221 31.1257C345.846 30.3913 345.658 29.5475 345.658 28.5945C345.658 27.6414 345.846 26.8172 346.221 26.0884C346.597 25.3596 347.107 24.799 347.752 24.4065C348.396 24.0141 349.117 23.8178 349.913 23.8178C350.608 23.8178 351.219 23.9552 351.746 24.2299ZM352.654 27.1564C352.43 26.7472 352.127 26.4332 351.746 26.2146C351.365 25.9959 350.956 25.8866 350.518 25.8866C350.081 25.8866 349.677 25.9931 349.307 26.2062C348.937 26.4192 348.638 26.7303 348.408 27.1396C348.178 27.5489 348.063 28.0338 348.063 28.5945C348.063 29.1551 348.178 29.6457 348.408 30.0661C348.638 30.4866 348.94 30.809 349.316 31.0332C349.691 31.2575 350.092 31.3696 350.518 31.3696C350.945 31.3696 351.365 31.2603 351.746 31.0416C352.127 30.823 352.43 30.509 352.654 30.0998C352.879 29.6905 352.991 29.2 352.991 28.6281C352.991 28.0563 352.879 27.5657 352.654 27.1564Z" fill="url(#paint11_linear_7951_15794)"/>
<g clip-path="url(#clip1_7951_15794)">
<rect x="69" y="139.345" width="65.5464" height="65.5464" rx="14.203" transform="rotate(-21.7579 69 139.345)" fill="white"/>
<g filter="url(#filter0_d_7951_15794)">
<g clip-path="url(#clip2_7951_15794)">
<rect x="69.8984" y="139.735" width="64.3878" height="64.3878" rx="14.3595" transform="rotate(-21.7579 69.8984 139.735)" fill="white" shape-rendering="crispEdges"/>
<path d="M108.786 180.149L99.6668 157.3L99.5938 157.329L94.5599 164.966L93.2416 161.663L98.2391 153.829L101.451 152.547L111.962 178.882L108.786 180.149ZM127.995 172.99C125.976 173.796 124.021 173.934 122.131 173.405C120.254 172.871 118.526 171.741 116.949 170.015C115.372 168.289 114.027 166.033 112.915 163.247L112.9 163.211C111.788 160.424 111.21 157.863 111.166 155.525C111.121 153.187 111.598 151.184 112.597 149.516C113.603 147.831 115.116 146.586 117.135 145.78C119.155 144.974 121.11 144.835 122.999 145.364C124.884 145.882 126.615 147.003 128.193 148.729C129.782 150.45 131.133 152.704 132.245 155.49L132.26 155.526C133.372 158.312 133.944 160.877 133.976 163.219C134.02 165.557 133.54 167.568 132.534 169.253C131.528 170.938 130.015 172.184 127.995 172.99ZM126.852 170.125C128.19 169.591 129.161 168.702 129.766 167.46C130.377 166.2 130.612 164.668 130.47 162.863C130.34 161.053 129.835 159.047 128.956 156.845L128.942 156.808C128.063 154.606 127.05 152.81 125.903 151.42C124.763 150.013 123.54 149.07 122.234 148.589C120.94 148.104 119.624 148.129 118.286 148.663C116.948 149.197 115.977 150.086 115.372 151.328C114.768 152.571 114.537 154.095 114.679 155.9C114.816 157.693 115.325 159.69 116.204 161.892L116.218 161.929C117.097 164.131 118.106 165.935 119.246 167.342C120.386 168.749 121.605 169.701 122.904 170.198C124.198 170.683 125.514 170.659 126.852 170.125Z" fill="black"/>
<path d="M93.4582 148.259L90.235 140.183L91.8916 139.522L96.8021 144.77L96.8973 144.732L96.8389 137.547L98.4955 136.886L101.719 144.962L100.42 145.48L98.1286 139.738L97.4234 140.02L98.014 137.338L98.081 146.414L97.096 146.807L90.9008 140.177L93.1756 141.715L92.4648 141.999L94.7566 147.741L93.4582 148.259ZM107.273 142.979C106.482 143.295 105.732 143.395 105.024 143.279C104.319 143.159 103.685 142.843 103.122 142.332C102.559 141.822 102.105 141.134 101.759 140.268L101.755 140.257C101.408 139.387 101.263 138.576 101.321 137.822C101.382 137.062 101.629 136.397 102.063 135.826C102.5 135.253 103.109 134.811 103.889 134.5C104.672 134.187 105.418 134.089 106.126 134.204C106.833 134.32 107.469 134.633 108.032 135.143C108.594 135.654 109.049 136.342 109.394 137.208L109.399 137.219C109.744 138.085 109.889 138.896 109.832 139.654C109.779 140.411 109.537 141.076 109.104 141.651C108.67 142.222 108.06 142.665 107.273 142.979ZM106.775 141.731C107.256 141.539 107.623 141.25 107.875 140.863C108.128 140.477 108.26 140.022 108.271 139.499C108.286 138.973 108.174 138.409 107.932 137.804L107.928 137.793C107.685 137.185 107.378 136.697 107.007 136.331C106.638 135.959 106.23 135.722 105.782 135.619C105.333 135.513 104.868 135.556 104.387 135.748C103.909 135.939 103.542 136.228 103.286 136.616C103.032 136.998 102.898 137.452 102.882 137.977C102.869 138.497 102.984 139.061 103.227 139.669L103.231 139.68C103.472 140.285 103.776 140.774 104.141 141.147C104.51 141.519 104.919 141.758 105.368 141.864C105.821 141.969 106.289 141.924 106.775 141.731ZM112.666 140.593L109.442 132.517L110.696 132.017L117.451 136.36L116.252 136.248L116.974 135.96L114.754 130.397L116.142 129.843L119.365 137.919L118.117 138.417L111.359 134.068L112.559 134.18L111.837 134.468L114.059 140.037L112.666 140.593Z" fill="#FF3A2F"/>
</g>
<rect x="69.8984" y="139.735" width="64.3878" height="64.3878" rx="14.3595" transform="rotate(-21.7579 69.8984 139.735)" stroke="#848282" stroke-opacity="0.1" stroke-width="0.107313" stroke-linejoin="bevel" shape-rendering="crispEdges"/>
</g>
</g>
<rect x="69.0097" y="139.349" width="65.5314" height="65.5314" rx="14.1955" transform="rotate(-21.7579 69.0097 139.349)" stroke="#929292" stroke-width="0.0149655"/>
<rect x="129.711" y="50" width="119.701" height="119.701" rx="17.346" fill="url(#paint12_linear_7951_15794)"/>
<g clip-path="url(#clip3_7951_15794)">
<path d="M189.542 94.394C190.02 93.8128 190.427 93.2337 190.923 92.731C192.094 91.5444 193.398 90.5222 195.108 90.053C197.82 89.308 200.739 90.2371 202.56 92.416C203.907 94.0267 204.523 95.8411 204.318 97.8716C204.164 99.3979 203.581 100.806 202.785 102.139C201.399 104.459 199.525 106.414 197.495 108.249C195.176 110.345 192.622 112.169 189.953 113.857C189.682 114.029 189.451 114.043 189.172 113.866C185.628 111.618 182.287 109.149 179.45 106.131C178 104.588 176.656 102.975 175.746 101.087C175.011 99.5601 174.63 97.9632 174.793 96.2892C174.97 94.4777 175.871 92.9848 177.239 91.7095C178.364 90.6619 179.697 89.994 181.27 89.8311C183.274 89.6237 185.07 90.1439 186.629 91.3523C187.694 92.1773 188.673 93.0714 189.371 94.202C189.414 94.2711 189.481 94.3264 189.542 94.394Z" fill="white"/>
<path d="M179.313 89.6839C179.29 89.585 179.265 89.5275 179.266 89.4715C179.29 88.178 179.235 86.8772 179.363 85.5931C179.549 83.7351 180.322 82.0647 181.606 80.6177C183.382 78.6141 185.664 77.421 188.429 77.1394C193.934 76.58 198.645 80.0066 199.69 84.7733C200.036 86.352 199.9 87.9525 199.911 89.5457C199.911 89.5778 199.882 89.6105 199.86 89.6571C199.372 89.5436 198.893 89.3813 198.401 89.3289C197.712 89.2555 197.013 89.2475 196.317 89.2453C196.047 89.2445 196.018 89.1325 196.019 88.9383C196.023 88.2246 196.02 87.5102 196.02 86.7965C196.019 83.7977 193.974 81.4354 190.828 80.7959C187.331 80.0851 183.66 82.4787 183.253 85.7852C183.13 86.7892 183.174 87.8121 183.17 88.8262C183.168 89.1579 183.103 89.2416 182.713 89.2038C181.67 89.1027 180.644 89.2518 179.651 89.5726C179.554 89.6039 179.457 89.6352 179.314 89.6817L179.313 89.6839Z" fill="white"/>
</g>
<path d="M142.801 142.652V126.319H149.479C153.156 126.319 155.412 128.62 155.412 131.936C155.412 135.32 153.111 137.531 149.366 137.531H146.637V142.652H142.801ZM146.637 134.485H148.667C150.472 134.485 151.442 133.47 151.442 131.936C151.442 130.402 150.472 129.432 148.667 129.432H146.637V134.485ZM156.868 142.652V130.402H160.568V132.613H160.68C161.132 131.011 162.214 130.221 163.568 130.221C163.929 130.221 164.335 130.289 164.651 130.357V133.673C164.29 133.56 163.613 133.493 163.139 133.493C161.718 133.493 160.68 134.485 160.68 135.952V142.652H156.868ZM171.047 142.877C167.212 142.877 164.866 140.486 164.866 136.583C164.866 132.793 167.234 130.244 170.912 130.244C174.341 130.244 176.822 132.432 176.822 136.493V137.463H168.611V137.531C168.611 139.11 169.581 140.125 171.115 140.125C172.153 140.125 172.92 139.674 173.235 138.952H176.777C176.326 141.343 174.228 142.877 171.047 142.877ZM168.611 135.23H173.281C173.258 133.921 172.31 132.996 171.002 132.996C169.648 132.996 168.667 133.955 168.611 135.23ZM178.323 142.652V130.402H181.933V132.635H182.068C182.587 131.146 183.85 130.244 185.542 130.244C187.234 130.244 188.543 131.169 188.859 132.635H188.994C189.468 131.191 190.889 130.244 192.694 130.244C194.995 130.244 196.597 131.801 196.597 134.395V142.652H192.784V135.252C192.784 134.011 192.062 133.335 191.047 133.335C189.941 133.335 189.287 134.124 189.287 135.297V142.652H185.632V135.207C185.632 134.057 184.933 133.335 183.918 133.335C182.858 133.335 182.136 134.147 182.136 135.388V142.652H178.323ZM198.526 142.652V130.402H202.338V142.652H198.526ZM200.443 128.935C199.361 128.935 198.481 128.123 198.481 127.108C198.481 126.093 199.361 125.281 200.443 125.281C201.526 125.281 202.429 126.093 202.429 127.108C202.429 128.123 201.526 128.935 200.443 128.935ZM212.209 137.373V130.402H215.999V142.652H212.389V140.396H212.254C211.712 141.862 210.359 142.81 208.509 142.81C206.005 142.81 204.313 141.005 204.313 138.208V130.402H208.125V137.486C208.125 138.817 208.87 139.651 210.088 139.651C211.261 139.651 212.209 138.839 212.209 137.373ZM217.996 142.652V130.402H221.605V132.635H221.741C222.26 131.146 223.523 130.244 225.215 130.244C226.907 130.244 228.215 131.169 228.531 132.635H228.667C229.14 131.191 230.562 130.244 232.366 130.244C234.668 130.244 236.269 131.801 236.269 134.395V142.652H232.457V135.252C232.457 134.011 231.735 133.335 230.72 133.335C229.614 133.335 228.96 134.124 228.96 135.297V142.652H225.305V135.207C225.305 134.057 224.606 133.335 223.591 133.335C222.53 133.335 221.808 134.147 221.808 135.388V142.652H217.996Z" fill="white"/>
</g>
<defs>
<filter id="filter0_d_7951_15794" x="57.8984" y="103.867" width="107.668" height="107.668" filterUnits="userSpaceOnUse" color-interpolation-filters="sRGB">
<feFlood flood-opacity="0" result="BackgroundImageFix"/>
<feColorMatrix in="SourceAlpha" type="matrix" values="0 0 0 0 0 0 0 0 0 0 0 0 0 0 0 0 0 0 127 0" result="hardAlpha"/>
<feOffset/>
<feGaussianBlur stdDeviation="6"/>
<feComposite in2="hardAlpha" operator="out"/>
<feColorMatrix type="matrix" values="0 0 0 0 0 0 0 0 0 0 0 0 0 0 0 0 0 0 0.1 0"/>
<feBlend mode="normal" in2="BackgroundImageFix" result="effect1_dropShadow_7951_15794"/>
<feBlend mode="normal" in="SourceGraphic" in2="effect1_dropShadow_7951_15794" result="shape"/>
</filter>
<linearGradient id="paint0_linear_7951_15794" x1="250.746" y1="104.865" x2="320.867" y2="174.103" gradientUnits="userSpaceOnUse">
<stop stop-color="#FFC5FF"/>
<stop offset="1" stop-color="#FA9BFF"/>
</linearGradient>
<linearGradient id="paint1_linear_7951_15794" x1="264.656" y1="171.002" x2="261.665" y2="140.783" gradientUnits="userSpaceOnUse">
<stop stop-color="#FF785A"/>
<stop offset="1" stop-color="#FFB4A3"/>
</linearGradient>
<linearGradient id="paint2_linear_7951_15794" x1="262.689" y1="18.2778" x2="262.301" y2="38.3455" gradientUnits="userSpaceOnUse">
<stop stop-color="#FF7F62"/>
<stop offset="1" stop-color="#FF4C24"/>
</linearGradient>
<linearGradient id="paint3_linear_7951_15794" x1="262.689" y1="18.2778" x2="262.301" y2="38.3455" gradientUnits="userSpaceOnUse">
<stop stop-color="#FF7F62"/>
<stop offset="1" stop-color="#FF4C24"/>
</linearGradient>
<linearGradient id="paint4_linear_7951_15794" x1="262.689" y1="18.2778" x2="262.301" y2="38.3455" gradientUnits="userSpaceOnUse">
<stop stop-color="#FF7F62"/>
<stop offset="1" stop-color="#FF4C24"/>
</linearGradient>
<linearGradient id="paint5_linear_7951_15794" x1="262.689" y1="18.2778" x2="262.301" y2="38.3455" gradientUnits="userSpaceOnUse">
<stop stop-color="#FF7F62"/>
<stop offset="1" stop-color="#FF4C24"/>
</linearGradient>
<linearGradient id="paint6_linear_7951_15794" x1="262.689" y1="18.2778" x2="262.301" y2="38.3455" gradientUnits="userSpaceOnUse">
<stop stop-color="#FF7F62"/>
<stop offset="1" stop-color="#FF4C24"/>
</linearGradient>
<linearGradient id="paint7_linear_7951_15794" x1="262.689" y1="18.2778" x2="262.301" y2="38.3455" gradientUnits="userSpaceOnUse">
<stop stop-color="#FF7F62"/>
<stop offset="1" stop-color="#FF4C24"/>
</linearGradient>
<linearGradient id="paint8_linear_7951_15794" x1="262.689" y1="18.2778" x2="262.301" y2="38.3455" gradientUnits="userSpaceOnUse">
<stop stop-color="#FF7F62"/>
<stop offset="1" stop-color="#FF4C24"/>
</linearGradient>
<linearGradient id="paint9_linear_7951_15794" x1="262.689" y1="18.2778" x2="262.301" y2="38.3455" gradientUnits="userSpaceOnUse">
<stop stop-color="#FF7F62"/>
<stop offset="1" stop-color="#FF4C24"/>
</linearGradient>
<linearGradient id="paint10_linear_7951_15794" x1="262.689" y1="18.2778" x2="262.301" y2="38.3455" gradientUnits="userSpaceOnUse">
<stop stop-color="#FF7F62"/>
<stop offset="1" stop-color="#FF4C24"/>
</linearGradient>
<linearGradient id="paint11_linear_7951_15794" x1="262.689" y1="18.2778" x2="262.301" y2="38.3455" gradientUnits="userSpaceOnUse">
<stop stop-color="#FF7F62"/>
<stop offset="1" stop-color="#FF4C24"/>
</linearGradient>
<linearGradient id="paint12_linear_7951_15794" x1="247.137" y1="55.1616" x2="126.628" y2="165.325" gradientUnits="userSpaceOnUse">
<stop stop-color="#FF3DD4"/>
<stop offset="1" stop-color="#FF7377"/>
</linearGradient>
<clipPath id="clip0_7951_15794">
<rect width="380" height="228" rx="24" fill="white"/>
</clipPath>
<clipPath id="clip1_7951_15794">
<rect x="69" y="139.345" width="65.5464" height="65.5464" rx="14.203" transform="rotate(-21.7579 69 139.345)" fill="white"/>
</clipPath>
<clipPath id="clip2_7951_15794">
<rect x="69.8984" y="139.735" width="64.3878" height="64.3878" rx="14.3595" transform="rotate(-21.7579 69.8984 139.735)" fill="white"/>
</clipPath>
<clipPath id="clip3_7951_15794">
<rect width="29.6016" height="37.002" fill="white" transform="translate(174.764 77.064)"/>
</clipPath>
</defs>
</svg>
