<svg width="380" height="228" viewBox="0 0 380 228" fill="none" xmlns="http://www.w3.org/2000/svg">
<g clip-path="url(#clip0_7951_15995)">
<rect width="648" height="400" transform="translate(-134 -86)" fill="#FFF8F0"/>
<path fill-rule="evenodd" clip-rule="evenodd" d="M109.208 96.0968C110.556 94.7538 112.383 94 114.288 94C118.253 94 121.474 97.2038 121.474 101.163C121.474 103.064 120.716 104.887 119.368 106.23L117.571 108.02H119.314C123.277 108.02 126.502 111.207 126.53 115.163C126.544 117.089 125.782 118.94 124.416 120.301L114.239 130.44C112.879 131.796 111.031 132.551 109.109 132.537C105.183 132.509 102.001 129.344 101.973 125.424C101.96 123.506 102.719 121.663 104.079 120.307L105.876 118.518H100.861C97.6274 118.518 95 115.905 95 112.674C95 111.124 95.6184 109.637 96.7179 108.541L109.208 96.0968ZM108.633 118.518L105.453 121.686C104.462 122.674 103.91 124.016 103.92 125.411C103.94 128.26 106.254 130.571 109.122 130.591C110.526 130.601 111.874 130.049 112.865 129.062L123.042 118.922C124.039 117.929 124.594 116.58 124.584 115.177C124.564 112.296 122.214 109.966 119.314 109.966L107.643 109.966C106.992 109.966 106.471 110.491 106.471 111.131C106.471 111.771 106.992 112.296 107.643 112.296H115.804C117.523 112.296 118.923 113.685 118.923 115.407C118.923 117.128 117.523 118.518 115.804 118.518L108.633 118.518ZM114.814 108.02L117.994 104.851C118.976 103.872 119.527 102.546 119.527 101.163C119.527 98.2854 117.185 95.9463 114.288 95.9463C112.897 95.9463 111.564 96.4968 110.582 97.4756L98.0916 109.92C97.3579 110.651 96.9463 111.642 96.9463 112.674C96.9463 114.823 98.6956 116.571 100.861 116.571H115.804C116.455 116.571 116.976 116.046 116.976 115.407C116.976 114.767 116.455 114.242 115.804 114.242H107.643C105.924 114.242 104.524 112.852 104.524 111.131C104.524 109.409 105.924 108.02 107.643 108.02H114.814Z" fill="url(#paint0_linear_7951_15995)"/>
<path d="M138.843 124.012C137.504 123.44 136.446 122.616 135.668 121.541C134.89 120.465 134.49 119.195 134.467 117.731H139.615C139.684 118.715 140.033 119.493 140.662 120.065C141.291 120.637 142.155 120.923 143.253 120.923C144.352 120.923 145.256 120.654 145.896 120.116C146.537 119.578 146.857 118.875 146.857 118.005C146.857 117.296 146.64 116.712 146.205 116.255C145.77 115.797 145.227 115.437 144.575 115.174C143.923 114.91 143.025 114.619 141.88 114.298C140.324 113.841 139.06 113.389 138.088 112.943C137.115 112.496 136.28 111.821 135.582 110.917C134.884 110.014 134.535 108.807 134.535 107.296C134.535 105.878 134.89 104.642 135.599 103.589C136.309 102.537 137.304 101.73 138.585 101.17C139.867 100.609 141.331 100.329 142.979 100.329C145.45 100.329 147.458 100.929 149.003 102.131C150.547 103.332 151.399 105.008 151.56 107.159H146.274C146.228 106.335 145.879 105.655 145.227 105.117C144.575 104.579 143.711 104.31 142.636 104.31C141.697 104.31 140.948 104.551 140.387 105.031C139.827 105.512 139.546 106.209 139.546 107.125C139.546 107.765 139.758 108.297 140.181 108.721C140.605 109.144 141.131 109.487 141.76 109.751C142.39 110.014 143.276 110.317 144.42 110.66C145.976 111.118 147.246 111.575 148.23 112.033C149.214 112.491 150.061 113.177 150.77 114.092C151.48 115.008 151.834 116.209 151.834 117.696C151.834 118.978 151.502 120.168 150.839 121.266C150.175 122.364 149.203 123.24 147.921 123.892C146.64 124.544 145.118 124.87 143.356 124.87C141.686 124.87 140.181 124.584 138.843 124.012Z" fill="url(#paint1_linear_7951_15995)"/>
<path d="M154.941 102.543C154.38 102.005 154.1 101.336 154.1 100.535C154.1 99.7338 154.38 99.0645 154.941 98.5268C155.502 97.9891 156.205 97.7202 157.052 97.7202C157.899 97.7202 158.602 97.9891 159.163 98.5268C159.723 99.0645 160.004 99.7338 160.004 100.535C160.004 101.336 159.723 102.005 159.163 102.543C158.602 103.08 157.899 103.349 157.052 103.349C156.205 103.349 155.502 103.08 154.941 102.543ZM159.42 105.615V124.63H154.615V105.615H159.42Z" fill="url(#paint2_linear_7951_15995)"/>
<path d="M173.973 106.147C175.049 106.707 175.895 107.434 176.513 108.326V105.615H181.353V124.767C181.353 126.529 180.998 128.102 180.289 129.486C179.579 130.871 178.515 131.969 177.097 132.782C175.678 133.594 173.962 134 171.948 134C169.248 134 167.034 133.371 165.307 132.112C163.579 130.854 162.601 129.138 162.372 126.964H167.143C167.395 127.833 167.938 128.525 168.773 129.04C169.608 129.555 170.621 129.813 171.811 129.813C173.207 129.813 174.339 129.395 175.209 128.56C176.078 127.725 176.513 126.46 176.513 124.767V121.815C175.895 122.708 175.043 123.451 173.956 124.046C172.869 124.641 171.628 124.939 170.232 124.939C168.63 124.939 167.166 124.527 165.839 123.703C164.511 122.879 163.465 121.718 162.698 120.219C161.931 118.72 161.548 116.999 161.548 115.054C161.548 113.109 161.931 111.427 162.698 109.939C163.465 108.452 164.506 107.308 165.821 106.507C167.137 105.706 168.607 105.306 170.232 105.306C171.651 105.306 172.898 105.586 173.973 106.147ZM175.827 112.119C175.369 111.284 174.751 110.643 173.973 110.197C173.195 109.751 172.36 109.527 171.468 109.527C170.575 109.527 169.751 109.745 168.996 110.18C168.241 110.614 167.629 111.249 167.16 112.085C166.691 112.92 166.456 113.909 166.456 115.054C166.456 116.198 166.691 117.199 167.16 118.057C167.629 118.915 168.247 119.573 169.013 120.03C169.78 120.488 170.598 120.717 171.468 120.717C172.337 120.717 173.195 120.494 173.973 120.048C174.751 119.601 175.369 118.961 175.827 118.125C176.284 117.29 176.513 116.289 176.513 115.122C176.513 113.955 176.284 112.954 175.827 112.119Z" fill="url(#paint3_linear_7951_15995)"/>
<path d="M200.711 107.485C202.107 108.915 202.805 110.912 202.805 113.475V124.63H198V114.127C198 112.617 197.622 111.455 196.867 110.643C196.112 109.831 195.082 109.424 193.778 109.424C192.474 109.424 191.404 109.831 190.638 110.643C189.871 111.455 189.488 112.617 189.488 114.127V124.63H184.682V105.615H189.488V107.983C190.128 107.159 190.946 106.513 191.942 106.044C192.937 105.575 194.03 105.34 195.22 105.34C197.485 105.34 199.316 106.055 200.711 107.485Z" fill="url(#paint4_linear_7951_15995)"/>
<path d="M205.911 109.939C206.677 108.452 207.719 107.308 209.034 106.507C210.35 105.706 211.82 105.306 213.445 105.306C214.863 105.306 216.105 105.592 217.169 106.164C218.233 106.736 219.085 107.457 219.726 108.326V105.615H224.566V124.63H219.726V121.85C219.108 122.742 218.256 123.48 217.169 124.063C216.082 124.647 214.829 124.939 213.41 124.939C211.809 124.939 210.35 124.527 209.034 123.703C207.719 122.879 206.677 121.718 205.911 120.219C205.144 118.72 204.761 116.999 204.761 115.054C204.761 113.109 205.144 111.427 205.911 109.939ZM219.039 112.119C218.582 111.284 217.964 110.643 217.186 110.197C216.408 109.751 215.573 109.527 214.68 109.527C213.788 109.527 212.964 109.745 212.209 110.18C211.454 110.614 210.842 111.249 210.373 112.085C209.904 112.92 209.669 113.909 209.669 115.054C209.669 116.198 209.904 117.199 210.373 118.057C210.842 118.915 211.46 119.573 212.226 120.03C212.993 120.488 213.811 120.717 214.68 120.717C215.55 120.717 216.408 120.494 217.186 120.048C217.964 119.601 218.582 118.961 219.039 118.125C219.497 117.29 219.726 116.289 219.726 115.122C219.726 113.955 219.497 112.954 219.039 112.119Z" fill="url(#paint5_linear_7951_15995)"/>
<path d="M232.701 99.2304V124.63H227.895V99.2304H232.701Z" fill="url(#paint6_linear_7951_15995)"/>
<path d="M236.39 102.543C235.829 102.005 235.549 101.336 235.549 100.535C235.549 99.7338 235.829 99.0645 236.39 98.5268C236.951 97.9891 237.654 97.7202 238.501 97.7202C239.348 97.7202 240.051 97.9891 240.612 98.5268C241.172 99.0645 241.453 99.7338 241.453 100.535C241.453 101.336 241.172 102.005 240.612 102.543C240.051 103.08 239.348 103.349 238.501 103.349C237.654 103.349 236.951 103.08 236.39 102.543ZM240.869 105.615V124.63H236.064V105.615H240.869Z" fill="url(#paint7_linear_7951_15995)"/>
<path d="M260.262 107.485C261.658 108.915 262.355 110.912 262.355 113.475V124.63H257.55V114.127C257.55 112.617 257.173 111.455 256.417 110.643C255.662 109.831 254.633 109.424 253.328 109.424C252.024 109.424 250.954 109.831 250.188 110.643C249.421 111.455 249.038 112.617 249.038 114.127V124.63H244.233V105.615H249.038V107.983C249.679 107.159 250.497 106.513 251.492 106.044C252.487 105.575 253.58 105.34 254.77 105.34C257.035 105.34 258.866 106.055 260.262 107.485Z" fill="url(#paint8_linear_7951_15995)"/>
<path d="M276.737 106.147C277.813 106.707 278.66 107.434 279.277 108.326V105.615H284.117V124.767C284.117 126.529 283.762 128.102 283.053 129.486C282.344 130.871 281.28 131.969 279.861 132.782C278.442 133.594 276.726 134 274.712 134C272.012 134 269.798 133.371 268.071 132.112C266.343 130.854 265.365 129.138 265.136 126.964H269.907C270.159 127.833 270.702 128.525 271.537 129.04C272.373 129.555 273.385 129.813 274.575 129.813C275.971 129.813 277.104 129.395 277.973 128.56C278.843 127.725 279.277 126.46 279.277 124.767V121.815C278.66 122.708 277.807 123.451 276.72 124.046C275.633 124.641 274.392 124.939 272.996 124.939C271.394 124.939 269.93 124.527 268.603 123.703C267.276 122.879 266.229 121.718 265.462 120.219C264.696 118.72 264.312 116.999 264.312 115.054C264.312 113.109 264.696 111.427 265.462 109.939C266.229 108.452 267.27 107.308 268.586 106.507C269.901 105.706 271.372 105.306 272.996 105.306C274.415 105.306 275.662 105.586 276.737 106.147ZM278.591 112.119C278.133 111.284 277.515 110.643 276.737 110.197C275.959 109.751 275.124 109.527 274.232 109.527C273.339 109.527 272.516 109.745 271.761 110.18C271.005 110.614 270.393 111.249 269.924 112.085C269.455 112.92 269.221 113.909 269.221 115.054C269.221 116.198 269.455 117.199 269.924 118.057C270.393 118.915 271.011 119.573 271.778 120.03C272.544 120.488 273.362 120.717 274.232 120.717C275.101 120.717 275.959 120.494 276.737 120.048C277.515 119.601 278.133 118.961 278.591 118.125C279.049 117.29 279.277 116.289 279.277 115.122C279.277 113.955 279.049 112.954 278.591 112.119Z" fill="url(#paint9_linear_7951_15995)"/>
</g>
<defs>
<linearGradient id="paint0_linear_7951_15995" x1="94.9948" y1="94" x2="94.2025" y2="134.953" gradientUnits="userSpaceOnUse">
<stop stop-color="#FF7F62"/>
<stop offset="1" stop-color="#FF4C24"/>
</linearGradient>
<linearGradient id="paint1_linear_7951_15995" x1="94.9948" y1="94" x2="94.2025" y2="134.953" gradientUnits="userSpaceOnUse">
<stop stop-color="#FF7F62"/>
<stop offset="1" stop-color="#FF4C24"/>
</linearGradient>
<linearGradient id="paint2_linear_7951_15995" x1="94.9948" y1="94" x2="94.2025" y2="134.953" gradientUnits="userSpaceOnUse">
<stop stop-color="#FF7F62"/>
<stop offset="1" stop-color="#FF4C24"/>
</linearGradient>
<linearGradient id="paint3_linear_7951_15995" x1="94.9948" y1="94" x2="94.2025" y2="134.953" gradientUnits="userSpaceOnUse">
<stop stop-color="#FF7F62"/>
<stop offset="1" stop-color="#FF4C24"/>
</linearGradient>
<linearGradient id="paint4_linear_7951_15995" x1="94.9948" y1="94" x2="94.2025" y2="134.953" gradientUnits="userSpaceOnUse">
<stop stop-color="#FF7F62"/>
<stop offset="1" stop-color="#FF4C24"/>
</linearGradient>
<linearGradient id="paint5_linear_7951_15995" x1="94.9948" y1="94" x2="94.2025" y2="134.953" gradientUnits="userSpaceOnUse">
<stop stop-color="#FF7F62"/>
<stop offset="1" stop-color="#FF4C24"/>
</linearGradient>
<linearGradient id="paint6_linear_7951_15995" x1="94.9948" y1="94" x2="94.2025" y2="134.953" gradientUnits="userSpaceOnUse">
<stop stop-color="#FF7F62"/>
<stop offset="1" stop-color="#FF4C24"/>
</linearGradient>
<linearGradient id="paint7_linear_7951_15995" x1="94.9948" y1="94" x2="94.2025" y2="134.953" gradientUnits="userSpaceOnUse">
<stop stop-color="#FF7F62"/>
<stop offset="1" stop-color="#FF4C24"/>
</linearGradient>
<linearGradient id="paint8_linear_7951_15995" x1="94.9948" y1="94" x2="94.2025" y2="134.953" gradientUnits="userSpaceOnUse">
<stop stop-color="#FF7F62"/>
<stop offset="1" stop-color="#FF4C24"/>
</linearGradient>
<linearGradient id="paint9_linear_7951_15995" x1="94.9948" y1="94" x2="94.2025" y2="134.953" gradientUnits="userSpaceOnUse">
<stop stop-color="#FF7F62"/>
<stop offset="1" stop-color="#FF4C24"/>
</linearGradient>
<clipPath id="clip0_7951_15995">
<rect width="380" height="228" rx="24" fill="white"/>
</clipPath>
</defs>
</svg>
